<svg width="80" height="100" viewBox="0 0 80 100" fill="none" xmlns="http://www.w3.org/2000/svg">
<path d="M70.377 54.0098C73.8753 54.2044 76.4953 57.3742 75.9697 60.8877L71.7979 88.7773C71.7891 88.7685 71.7803 88.7598 71.7715 88.751C73.4633 90.448 74.1145 93.116 72.9619 95.5596L72.4902 96.5596C71.4995 98.6597 69.3856 100 67.0635 100H12.6377C10.3333 99.9999 8.2402 98.6809 7.24023 96.6191L7.14648 96.418L6.70605 95.418C5.61555 92.9412 6.33906 90.2743 8.0918 88.6211C8.01387 88.6946 7.93805 88.7703 7.86426 88.8477L3.95312 60.8291C3.46544 57.3336 6.08047 54.2022 9.55664 54.0098L9.89551 54H70.0361L70.377 54.0098ZM12.6377 94H67.0635L67.5352 93H12.1973L12.6377 94ZM71.6133 88.5977C71.5922 88.578 71.5702 88.5594 71.5488 88.54C71.5702 88.5594 71.5922 88.578 71.6133 88.5977ZM8.58691 88.2031C8.52995 88.2463 8.47422 88.2909 8.41895 88.3359C8.47422 88.2909 8.52995 88.2463 8.58691 88.2031ZM8.91602 87.9707C8.8431 88.0185 8.7717 88.0683 8.70117 88.1191C8.7717 88.0683 8.8431 88.0185 8.91602 87.9707ZM70.9658 88.0742C70.9433 88.0584 70.9212 88.0419 70.8984 88.0264C70.9212 88.0419 70.9433 88.0584 70.9658 88.0742ZM70.7119 87.9053C70.6887 87.8907 70.6651 87.8766 70.6416 87.8623C70.6651 87.8766 70.6886 87.8907 70.7119 87.9053ZM70.4414 87.7441C70.4151 87.7295 70.3879 87.7164 70.3613 87.7021C70.3879 87.7164 70.4151 87.7295 70.4414 87.7441ZM9.55469 87.6064C9.47933 87.6434 9.40541 87.6827 9.33203 87.7227C9.40541 87.6827 9.47933 87.6434 9.55469 87.6064ZM9.88672 87.457C9.80559 87.4908 9.72558 87.5264 9.64648 87.5635C9.72558 87.5264 9.80559 87.4908 9.88672 87.457ZM70.0586 87.5518C69.9958 87.5226 69.9332 87.4928 69.8691 87.4658C69.9332 87.4928 69.9958 87.5227 70.0586 87.5518ZM10.2354 87.3242C10.1476 87.3543 10.0612 87.3869 9.97559 87.4209C10.0612 87.3869 10.1476 87.3543 10.2354 87.3242ZM69.748 87.418C69.6854 87.3932 69.6223 87.3694 69.5586 87.3467C69.6224 87.3694 69.6854 87.3932 69.748 87.418ZM69.3984 87.292C69.3448 87.2746 69.2907 87.2581 69.2363 87.2422C69.2908 87.2581 69.3448 87.2746 69.3984 87.292ZM69.0762 87.1963C68.9736 87.1694 68.8697 87.1456 68.7646 87.124C68.8697 87.1455 68.9736 87.1695 69.0762 87.1963ZM10.9766 87.1221C10.8712 87.1435 10.767 87.1675 10.6641 87.1943C10.767 87.1675 10.8712 87.1435 10.9766 87.1221ZM68.6338 87.0996C68.5537 87.085 68.473 87.072 68.3916 87.0605C68.473 87.0719 68.5537 87.0851 68.6338 87.0996ZM11.332 87.0615C11.2556 87.0724 11.1798 87.085 11.1045 87.0986C11.1798 87.085 11.2556 87.0724 11.332 87.0615ZM68.2783 87.0459C68.1866 87.0348 68.0942 87.0255 68.001 87.0186C68.0942 87.0255 68.1866 87.0348 68.2783 87.0459ZM11.6953 87.0215C11.6189 87.0277 11.5431 87.035 11.4678 87.0439C11.5431 87.035 11.6189 87.0277 11.6953 87.0215ZM67.917 87.0127C67.7911 87.005 67.6637 87 67.5352 87C67.6638 87 67.791 87.005 67.917 87.0127ZM12.1973 87C12.0767 87 11.9572 87.0039 11.8389 87.0107C11.9572 87.0039 12.0767 87 12.1973 87ZM13.665 87H65.9971L70.0361 60H9.89551L13.665 87ZM40 72C41.6569 72 43 73.3431 43 75C43 76.6569 41.6569 78 40 78C38.3432 78 37 76.6568 37 75C37 73.3432 38.3432 72 40 72ZM47.5166 36.6436C56.378 36.8682 63.8043 42.8568 66.1914 51H59.8164C57.648 46.0753 52.7265 42.6367 47 42.6367H33C27.2735 42.6367 22.352 46.0753 20.1836 51H13.8086C16.1957 42.8568 23.622 36.8683 32.4834 36.6436L33 36.6367H47L47.5166 36.6436ZM40 0C49.3888 0 57 7.61116 57 17C57 26.3888 49.3888 34 40 34C30.6112 34 23 26.3888 23 17C23 7.61117 30.6112 1.85558e-05 40 0ZM40 6C33.9249 6.00002 29 10.9249 29 17C29 23.0751 33.9249 28 40 28C46.0751 28 51 23.0751 51 17C51 10.9249 46.0751 6 40 6Z" fill="black"/>
</svg>
