<svg width="90" height="90" viewBox="0 0 90 90" fill="none" xmlns="http://www.w3.org/2000/svg">
<g clip-path="url(#clip0_5600_15286)">
<path d="M67.7959 68.2273C66.6182 69.2913 64.8 69.2568 63.665 68.1218C62.5301 66.9868 62.4955 65.1686 63.5596 63.9909L63.665 63.8786L79.5449 47.9997H3L2.8457 47.9958C1.26056 47.9155 0 46.6048 0 44.9997C0.000115833 43.3947 1.26063 42.0839 2.8457 42.0036L3 41.9997H79.7578L63.665 25.9079L63.5596 25.7966C62.4956 24.6191 62.5304 22.8007 63.665 21.6657C64.8 20.5308 66.6182 20.4953 67.7959 21.5593L67.9082 21.6657L88.3525 42.1101C88.6294 42.25 88.8897 42.4344 89.1211 42.6657C89.7258 43.2704 90.0166 44.0687 89.9971 44.861C89.9992 44.907 90 44.9532 90 44.9997C90 45.0908 89.9953 45.1812 89.9873 45.2702C89.9865 45.2793 89.9863 45.2885 89.9854 45.2976C89.9694 45.4598 89.9382 45.6176 89.8975 45.7712C89.8891 45.8028 89.8815 45.8346 89.8721 45.8659C89.8536 45.9272 89.8318 45.987 89.8096 46.0466C89.7995 46.0738 89.7912 46.1017 89.7803 46.1286L89.7646 46.1677C89.7486 46.2056 89.7294 46.2419 89.7119 46.279C89.6897 46.326 89.6683 46.3736 89.6436 46.4196C89.6279 46.4487 89.6093 46.4761 89.5928 46.5046C89.5131 46.6417 89.4245 46.7754 89.3213 46.9011C89.315 46.9088 89.3081 46.9159 89.3018 46.9235C89.245 46.9913 89.1848 47.0571 89.1211 47.1208C89.0574 47.1845 88.9915 47.2447 88.9238 47.3015C88.916 47.308 88.9083 47.3146 88.9004 47.321C88.8378 47.3724 88.7736 47.421 88.708 47.4665C88.6928 47.4771 88.6775 47.4875 88.6621 47.4978C88.6129 47.5306 88.5614 47.559 88.5107 47.5886C88.4835 47.6045 88.4574 47.6223 88.4297 47.6374L88.3955 47.6569C88.3821 47.664 88.368 47.6696 88.3545 47.6765L67.9082 68.1218L67.7959 68.2273Z" fill="black"/>
</g>
<defs>
<clipPath id="clip0_5600_15286">
<rect width="90" height="90" fill="white"/>
</clipPath>
</defs>
</svg>
