<svg width="90" height="90" viewBox="0 0 90 90" fill="none" xmlns="http://www.w3.org/2000/svg">
<g clip-path="url(#clip0_5600_15266)">
<mask id="path-1-inside-1_5600_15266" fill="white">
<path d="M88.0478 37.0563C92.1116 40.7432 89.5035 47.5005 84.0166 47.5006H68V83.9997C68 87.3132 65.3135 89.9994 62 89.9997H28C24.6862 89.9997 22 87.3134 22 83.9997V47.5006H5.98238C0.495444 47.5004 -2.11264 40.7432 1.95113 37.0563L40.9677 1.65787C43.2549 -0.417216 46.744 -0.417199 49.0312 1.65787L88.0478 37.0563Z"/>
</mask>
<path d="M88.0478 37.0563L84.0162 41.5L84.0162 41.5L88.0478 37.0563ZM84.0166 47.5006L84.0166 53.5006L84.0167 53.5006L84.0166 47.5006ZM68 47.5006V41.5006H62V47.5006H68ZM62 89.9997L62 95.9997L62.0004 95.9997L62 89.9997ZM22 47.5006H28V41.5006H22V47.5006ZM5.98238 47.5006L5.98211 53.5006H5.98238V47.5006ZM1.95113 37.0563L5.98272 41.5L5.98272 41.5L1.95113 37.0563ZM40.9677 1.65787L36.9361 -2.78581L36.9361 -2.7858L40.9677 1.65787ZM49.0312 1.65787L53.0628 -2.7858L53.0628 -2.78583L49.0312 1.65787ZM88.0478 37.0563L84.0162 41.5C84.0416 41.5231 84.0541 41.5378 84.0579 41.5426C84.0618 41.5474 84.0601 41.5459 84.0556 41.5381C84.0512 41.5304 84.046 41.5199 84.0413 41.5074C84.0367 41.4951 84.0334 41.4834 84.0313 41.4734C84.0271 41.4533 84.0288 41.4461 84.0281 41.4536C84.0278 41.4573 84.027 41.4637 84.025 41.4723C84.0229 41.4809 84.0201 41.4905 84.0162 41.5005C84.0123 41.5105 84.008 41.5196 84.0037 41.5273C83.9994 41.535 83.9958 41.5403 83.9935 41.5433C83.989 41.5492 83.9927 41.5427 84.0093 41.5306C84.0176 41.5246 84.0279 41.5181 84.0397 41.5121C84.0516 41.506 84.0625 41.5017 84.071 41.4989C84.0796 41.4961 84.0819 41.4962 84.0758 41.4971C84.0698 41.4981 84.0507 41.5006 84.0164 41.5006L84.0166 47.5006L84.0167 53.5006C94.9916 53.5003 100.206 39.9859 92.0794 32.6126L88.0478 37.0563ZM84.0166 47.5006V41.5006H68V47.5006V53.5006H84.0166V47.5006ZM68 47.5006H62V83.9997H68H74V47.5006H68ZM68 83.9997H62L61.9995 83.9997L62 89.9997L62.0004 95.9997C68.6268 95.9992 74 90.6274 74 83.9997H68ZM62 89.9997V83.9997H28V89.9997V95.9997H62V89.9997ZM28 89.9997V83.9997H22H16C16 90.6271 21.3725 95.9997 28 95.9997V89.9997ZM22 83.9997H28V47.5006H22H16V83.9997H22ZM22 47.5006V41.5006H5.98238V47.5006V53.5006H22V47.5006ZM5.98238 47.5006L5.98264 41.5006C5.94834 41.5006 5.92925 41.4981 5.92319 41.4971C5.91712 41.4962 5.91943 41.4961 5.92805 41.4989C5.93655 41.5017 5.94744 41.506 5.95934 41.5121C5.9711 41.5181 5.98134 41.5246 5.98965 41.5306C6.00632 41.5427 6.00995 41.5492 6.00542 41.5432C6.00319 41.5403 5.99953 41.535 5.99523 41.5273C5.99093 41.5195 5.98662 41.5105 5.98276 41.5005C5.9789 41.4905 5.976 41.4809 5.97399 41.4722C5.97198 41.4636 5.97114 41.4572 5.97081 41.4535C5.97015 41.446 5.97184 41.4533 5.96763 41.4734C5.96553 41.4834 5.96227 41.495 5.95762 41.5073C5.95291 41.5198 5.94778 41.5303 5.94336 41.5381C5.93888 41.5459 5.93714 41.5474 5.94102 41.5426C5.94487 41.5378 5.95729 41.5231 5.98272 41.5L1.95113 37.0563L-2.08047 32.6126C-10.2075 39.986 -4.99245 53.5002 5.98211 53.5006L5.98238 47.5006ZM1.95113 37.0563L5.98272 41.5L44.9993 6.10155L40.9677 1.65787L36.9361 -2.7858L-2.08047 32.6126L1.95113 37.0563ZM40.9677 1.65787L44.9993 6.10155L44.9996 6.10157L49.0312 1.65787L53.0628 -2.78583C48.4884 -6.93594 41.5106 -6.93601 36.9361 -2.78581L40.9677 1.65787ZM49.0312 1.65787L44.9996 6.10155L84.0162 41.5L88.0478 37.0563L92.0794 32.6126L53.0628 -2.7858L49.0312 1.65787Z" fill="black" mask="url(#path-1-inside-1_5600_15266)"/>
</g>
<defs>
<clipPath id="clip0_5600_15266">
<rect width="90" height="90" fill="white"/>
</clipPath>
</defs>
</svg>
