<svg width="90" height="90" viewBox="0 0 90 90" fill="none" xmlns="http://www.w3.org/2000/svg">
<g clip-path="url(#clip0_5600_15271)">
<mask id="path-1-inside-1_5600_15271" fill="white">
<path d="M52.9437 88.0478C49.2568 92.1116 42.5005 89.5035 42.5003 84.0166V68H6.00032C2.68686 67.9999 0.000575676 65.3134 0.000318032 62V28C0.000318032 24.6863 2.6867 22.0001 6.00032 22H42.5003V5.98239C42.5005 0.495425 49.2568 -2.11264 52.9437 1.95114L88.3421 40.9677C90.4172 43.2549 90.4172 46.744 88.3421 49.0312L52.9437 88.0478Z"/>
</mask>
<path d="M52.9437 88.0478L48.5 84.0162L48.5 84.0162L52.9437 88.0478ZM42.5003 84.0166L36.5003 84.0166L36.5003 84.0168L42.5003 84.0166ZM42.5003 68H48.5003V62H42.5003V68ZM6.00032 68L6.00013 74H6.00032V68ZM0.000318032 62L-5.99968 62L-5.99968 62.0004L0.000318032 62ZM6.00032 22L6.00032 16L6.00013 16L6.00032 22ZM42.5003 22V28H48.5003V22H42.5003ZM42.5003 5.98239L36.5003 5.98216V5.98239H42.5003ZM52.9437 1.95114L48.5 5.98273L48.5 5.98273L52.9437 1.95114ZM88.3421 40.9677L92.7858 36.9361L92.7858 36.9361L88.3421 40.9677ZM88.3421 49.0312L92.7858 53.0628L92.7858 53.0628L88.3421 49.0312ZM52.9437 88.0478L48.5 84.0162C48.4769 84.0417 48.4621 84.0541 48.4573 84.058C48.4525 84.0619 48.454 84.0601 48.4618 84.0556C48.4696 84.0512 48.4801 84.0461 48.4926 84.0414C48.5049 84.0367 48.5166 84.0334 48.5267 84.0313C48.5468 84.0271 48.5542 84.0288 48.5468 84.0281C48.5431 84.0278 48.5368 84.027 48.5283 84.025C48.5197 84.023 48.5101 84.0201 48.5002 84.0163C48.4902 84.0124 48.4812 84.0081 48.4735 84.0039C48.4659 83.9996 48.4606 83.996 48.4577 83.9938C48.4518 83.9893 48.4583 83.9929 48.4704 84.0096C48.4765 84.0179 48.4829 84.0282 48.4889 84.0399C48.495 84.0518 48.4993 84.0627 48.5021 84.0712C48.5049 84.0798 48.5048 84.082 48.5039 84.0759C48.5029 84.0698 48.5003 84.0507 48.5003 84.0163L42.5003 84.0166L36.5003 84.0168C36.5007 94.9907 50.0134 100.207 57.3874 92.0794L52.9437 88.0478ZM42.5003 84.0166H48.5003V68H42.5003H36.5003V84.0166H42.5003ZM42.5003 68V62H6.00032V68V74H42.5003V68ZM6.00032 68L6.0005 62L6.00032 61.9995L0.000318032 62L-5.99968 62.0004C-5.99917 68.6269 -0.627172 73.9998 6.00013 74L6.00032 68ZM0.000318032 62H6.00032V28H0.000318032H-5.99968V62H0.000318032ZM0.000318032 28H6.00032L6.0005 28L6.00032 22L6.00013 16C-0.626869 16.0002 -5.99968 21.3724 -5.99968 28H0.000318032ZM6.00032 22V28H42.5003V22V16H6.00032V22ZM42.5003 22H48.5003V5.98239H42.5003H36.5003V22H42.5003ZM42.5003 5.98239L48.5003 5.98262C48.5003 5.94826 48.5029 5.92913 48.5039 5.92303C48.5048 5.91692 48.5049 5.91919 48.5021 5.92779C48.4993 5.93626 48.495 5.94713 48.4889 5.95903C48.4829 5.97077 48.4765 5.98102 48.4704 5.98933C48.4583 6.00601 48.4518 6.00968 48.4577 6.0052C48.4606 6.00299 48.4659 5.99935 48.4735 5.99508C48.4812 5.9908 48.4902 5.98652 48.5002 5.98268C48.5101 5.97884 48.5197 5.97596 48.5283 5.97396C48.5368 5.97196 48.5431 5.97113 48.5468 5.97081C48.5542 5.97016 48.5468 5.97184 48.5267 5.96761C48.5166 5.9655 48.5049 5.96224 48.4926 5.95758C48.4801 5.95286 48.4696 5.94773 48.4618 5.94331C48.454 5.93882 48.4525 5.93709 48.4573 5.94097C48.4621 5.94484 48.4769 5.95728 48.5 5.98273L52.9437 1.95114L57.3874 -2.08045C50.0134 -10.2081 36.5007 -4.99171 36.5003 5.98216L42.5003 5.98239ZM52.9437 1.95114L48.5 5.98273L83.8984 44.9993L88.3421 40.9677L92.7858 36.9361L57.3874 -2.08046L52.9437 1.95114ZM88.3421 40.9677L83.8984 44.9993V44.9996L88.3421 49.0312L92.7858 53.0628C96.936 48.4884 96.936 41.5105 92.7858 36.9361L88.3421 40.9677ZM88.3421 49.0312L83.8984 44.9996L48.5 84.0162L52.9437 88.0478L57.3874 92.0794L92.7858 53.0628L88.3421 49.0312Z" fill="black" mask="url(#path-1-inside-1_5600_15271)"/>
</g>
<defs>
<clipPath id="clip0_5600_15271">
<rect width="90" height="90" fill="white"/>
</clipPath>
</defs>
</svg>
