<svg width="80" height="100" viewBox="0 0 80 100" fill="none" xmlns="http://www.w3.org/2000/svg">
<mask id="path-1-inside-1_5642_1594" fill="white">
<path d="M54.0757 1.75736C56.4188 -0.585786 60.2179 -0.585786 62.561 1.75736L69.4771 8.67337C71.8202 11.0165 71.8202 14.8156 69.4771 17.1587L38.5036 48.1312C37.7225 48.9123 37.7225 50.1786 38.5036 50.9597L69.7319 82.189C72.0748 84.5321 72.0748 88.3303 69.7319 90.6734L62.8159 97.5904C60.4728 99.9333 56.6737 99.9333 54.3306 97.5904L11.0112 54.2701C10.268 53.5268 9.76048 52.6372 9.48878 51.6939C8.54551 49.5034 8.96725 46.8659 10.7564 45.0767L54.0757 1.75736Z"/>
</mask>
<path d="M54.0757 1.75736C56.4188 -0.585786 60.2179 -0.585786 62.561 1.75736L69.4771 8.67337C71.8202 11.0165 71.8202 14.8156 69.4771 17.1587L38.5036 48.1312C37.7225 48.9123 37.7225 50.1786 38.5036 50.9597L69.7319 82.189C72.0748 84.5321 72.0748 88.3303 69.7319 90.6734L62.8159 97.5904C60.4728 99.9333 56.6737 99.9333 54.3306 97.5904L11.0112 54.2701C10.268 53.5268 9.76048 52.6372 9.48878 51.6939C8.54551 49.5034 8.96725 46.8659 10.7564 45.0767L54.0757 1.75736Z" fill="black"/>
<path d="M62.561 1.75736L58.3184 6L62.561 1.75736ZM69.4771 17.1587L73.7196 21.4014L73.7197 21.4014L69.4771 17.1587ZM69.7319 82.189L73.9748 77.9465L73.9746 77.9464L69.7319 82.189ZM69.7319 90.6734L65.4891 86.4309L65.489 86.431L69.7319 90.6734ZM62.8159 97.5904L67.0584 101.833L67.0589 101.833L62.8159 97.5904ZM54.3306 97.5904L50.0879 101.833L50.0881 101.833L54.3306 97.5904ZM11.0112 54.2701L6.76851 58.5126L6.76855 58.5126L11.0112 54.2701ZM9.48878 51.6939L15.2544 50.0332L15.1495 49.669L14.9996 49.3209L9.48878 51.6939ZM10.7564 45.0767L6.51371 40.8341L6.51356 40.8342L10.7564 45.0767ZM38.5036 48.1312L42.7462 52.374L38.5036 48.1312ZM38.5036 50.9597L42.7463 46.7171L38.5036 50.9597ZM54.0757 1.75736L58.3183 6H58.3184L62.561 1.75736L66.8037 -2.48528C62.1174 -7.17157 54.5193 -7.17157 49.833 -2.48528L54.0757 1.75736ZM62.561 1.75736L58.3184 6L65.2344 12.916L69.4771 8.67337L73.7197 4.43073L66.8037 -2.48528L62.561 1.75736ZM69.4771 8.67337L65.2344 12.916V12.9161L69.4771 17.1587L73.7197 21.4014C78.406 16.7151 78.406 9.11702 73.7197 4.43073L69.4771 8.67337ZM69.4771 17.1587L65.2345 12.916L34.261 43.8885L38.5036 48.1312L42.7462 52.374L73.7196 21.4014L69.4771 17.1587ZM38.5036 50.9597L34.2608 55.2023L65.4892 86.4316L69.7319 82.189L73.9746 77.9464L42.7463 46.7171L38.5036 50.9597ZM69.7319 82.189L65.4891 86.4315L65.4891 86.4309L69.7319 90.6734L73.9748 94.9158C78.6605 90.2296 78.6606 82.6328 73.9748 77.9465L69.7319 82.189ZM69.7319 90.6734L65.489 86.431L58.573 93.348L62.8159 97.5904L67.0589 101.833L73.9749 94.9157L69.7319 90.6734ZM62.8159 97.5904L58.5734 93.3476L58.573 93.3476L54.3306 97.5904L50.0881 101.833C54.7743 106.519 62.3722 106.519 67.0584 101.833L62.8159 97.5904ZM54.3306 97.5904L58.5733 93.3478L15.2539 50.0275L11.0112 54.2701L6.76855 58.5126L50.0879 101.833L54.3306 97.5904ZM11.0112 54.2701L15.254 50.0275C15.2519 50.0255 15.2506 50.024 15.2498 50.0231C15.249 50.0222 15.2486 50.0217 15.2486 50.0217C15.2486 50.0216 15.2488 50.0219 15.2491 50.0224C15.2495 50.023 15.25 50.0237 15.2504 50.0245C15.2528 50.0285 15.254 50.0318 15.2544 50.0332L9.48878 51.6939L3.72316 53.3545C4.26886 55.2491 5.28964 57.0337 6.76851 58.5126L11.0112 54.2701ZM9.48878 51.6939L14.9996 49.3209C15.001 49.3243 15.0006 49.3246 15.0002 49.3213C14.9998 49.3176 15.0001 49.3141 15.0004 49.3122C15.0006 49.3111 15.0002 49.3139 14.9975 49.3191C14.9962 49.3216 14.995 49.3235 14.9943 49.3244C14.9936 49.3254 14.9947 49.3236 14.9991 49.3192L10.7564 45.0767L6.51356 40.8342C2.92716 44.4209 2.09687 49.6984 3.97799 54.0669L9.48878 51.6939ZM10.7564 45.0767L14.999 49.3193L58.3183 6L54.0757 1.75736L49.833 -2.48528L6.51371 40.8341L10.7564 45.0767ZM38.5036 48.1312L34.261 43.8885C31.1368 47.0127 31.1367 52.078 34.2608 55.2023L38.5036 50.9597L42.7463 46.7171C44.3083 48.2792 44.3083 50.8119 42.7462 52.374L38.5036 48.1312Z" fill="black" mask="url(#path-1-inside-1_5642_1594)"/>
</svg>
