<svg width="90" height="90" viewBox="0 0 90 90" fill="none" xmlns="http://www.w3.org/2000/svg">
<g clip-path="url(#clip0_5600_15291)">
<path d="M21.7727 67.7959C20.7087 66.6182 20.7432 64.8 21.8782 63.665C23.0132 62.5301 24.8314 62.4955 26.0091 63.5596L26.1214 63.665L42.0003 79.5449V3L42.0042 2.8457C42.0845 1.26056 43.3952 0 45.0003 0C46.6053 0.000115833 47.9161 1.26063 47.9964 2.8457L48.0003 3V79.7578L64.0921 63.665L64.2034 63.5596C65.3809 62.4956 67.1993 62.5304 68.3343 63.665C69.4692 64.8 69.5047 66.6182 68.4407 67.7959L68.3343 67.9082L47.8899 88.3525C47.75 88.6294 47.5656 88.8897 47.3343 89.1211C46.7296 89.7258 45.9313 90.0166 45.139 89.9971C45.093 89.9992 45.0468 90 45.0003 90C44.9092 90 44.8188 89.9953 44.7298 89.9873C44.7207 89.9865 44.7115 89.9863 44.7024 89.9854C44.5402 89.9694 44.3824 89.9382 44.2288 89.8975C44.1972 89.8891 44.1654 89.8815 44.1341 89.8721C44.0728 89.8536 44.013 89.8318 43.9534 89.8096C43.9262 89.7995 43.8983 89.7912 43.8714 89.7803L43.8323 89.7646C43.7944 89.7486 43.7581 89.7294 43.721 89.7119C43.674 89.6897 43.6264 89.6683 43.5804 89.6436C43.5513 89.6279 43.5239 89.6093 43.4954 89.5928C43.3583 89.5131 43.2246 89.4245 43.0989 89.3213C43.0912 89.315 43.0841 89.3081 43.0765 89.3018C43.0087 89.245 42.9429 89.1848 42.8792 89.1211C42.8155 89.0574 42.7553 88.9915 42.6985 88.9238C42.692 88.916 42.6854 88.9083 42.679 88.9004C42.6276 88.8378 42.579 88.7736 42.5335 88.708C42.5229 88.6928 42.5125 88.6775 42.5022 88.6621C42.4694 88.6129 42.441 88.5614 42.4114 88.5107C42.3955 88.4835 42.3777 88.4574 42.3626 88.4297L42.3431 88.3955C42.336 88.3821 42.3304 88.368 42.3235 88.3545L21.8782 67.9082L21.7727 67.7959Z" fill="black"/>
</g>
<defs>
<clipPath id="clip0_5600_15291">
<rect width="90" height="90" fill="white"/>
</clipPath>
</defs>
</svg>
