<svg width="90" height="90" viewBox="0 0 90 90" fill="none" xmlns="http://www.w3.org/2000/svg">
<g clip-path="url(#clip0_5600_15281)">
<path d="M68.2273 22.2041C69.2913 23.3818 69.2568 25.2 68.1218 26.335C66.9868 27.4699 65.1686 27.5045 63.9909 26.4404L63.8786 26.335L47.9997 10.4551V87L47.9958 87.1543C47.9155 88.7394 46.6048 90 44.9997 90C43.3947 89.9999 42.0839 88.7394 42.0036 87.1543L41.9997 87V10.2422L25.9079 26.335L25.7966 26.4404C24.6191 27.5044 22.8007 27.4696 21.6657 26.335C20.5308 25.2 20.4953 23.3818 21.5593 22.2041L21.6657 22.0918L42.1101 1.64746C42.25 1.37056 42.4344 1.11025 42.6657 0.878906C43.2704 0.274232 44.0687 -0.0165754 44.861 0.00292969C44.907 0.000835458 44.9532 3.35409e-06 44.9997 0C45.0908 0 45.1812 0.00474147 45.2702 0.0126953C45.2793 0.0135137 45.2885 0.0137473 45.2976 0.0146484C45.4598 0.0306257 45.6176 0.0617619 45.7712 0.102539C45.8028 0.110914 45.8346 0.118507 45.8659 0.12793C45.9272 0.146381 45.987 0.168233 46.0466 0.19043C46.0738 0.200538 46.1017 0.208803 46.1286 0.219727L46.1677 0.235352C46.2056 0.251375 46.2419 0.270569 46.279 0.288086C46.326 0.310265 46.3736 0.331685 46.4196 0.356445C46.4487 0.372097 46.4761 0.390653 46.5046 0.407227C46.6417 0.486884 46.7754 0.575532 46.9011 0.678711C46.9088 0.685001 46.9159 0.691878 46.9235 0.698242C46.9913 0.755006 47.0571 0.815217 47.1208 0.878906C47.1845 0.942562 47.2447 1.00845 47.3015 1.07617C47.308 1.08397 47.3146 1.09174 47.321 1.09961C47.3724 1.16223 47.421 1.22636 47.4665 1.29199C47.4771 1.3072 47.4875 1.32249 47.4978 1.33789C47.5306 1.38708 47.559 1.43863 47.5886 1.48926C47.6045 1.51647 47.6223 1.54256 47.6374 1.57031L47.6569 1.60449C47.664 1.6179 47.6696 1.63201 47.6765 1.64551L68.1218 22.0918L68.2273 22.2041Z" fill="black"/>
</g>
<defs>
<clipPath id="clip0_5600_15281">
<rect width="90" height="90" fill="white"/>
</clipPath>
</defs>
</svg>
