<svg width="90" height="90" viewBox="0 0 90 90" fill="none" xmlns="http://www.w3.org/2000/svg">
<path d="M22.2041 21.7727C23.3818 20.7086 25.2 20.7432 26.335 21.8782C27.4699 23.0132 27.5045 24.8314 26.4404 26.009L26.335 26.1213L10.4551 42.0002H87L87.1543 42.0042C88.7394 42.0845 90 43.3951 90 45.0002C89.9999 46.6052 88.7394 47.916 87.1543 47.9963L87 48.0002H10.2422L26.335 64.092L26.4404 64.2034C27.5044 65.3809 27.4696 67.1992 26.335 68.3342C25.2 69.4692 23.3818 69.5047 22.2041 68.4407L22.0918 68.3342L1.64746 47.8899C1.37056 47.7499 1.11025 47.5656 0.878906 47.3342C0.274232 46.7295 -0.0165754 45.9312 0.00292969 45.1389C0.000835458 45.093 3.35409e-06 45.0467 0 45.0002C0 44.9091 0.00474147 44.8188 0.0126953 44.7297C0.0135137 44.7206 0.0137473 44.7115 0.0146484 44.7024C0.0306257 44.5402 0.0617619 44.3823 0.102539 44.2288C0.110914 44.1972 0.118507 44.1654 0.12793 44.134C0.146381 44.0728 0.168233 44.0129 0.19043 43.9534C0.200538 43.9262 0.208803 43.8983 0.219727 43.8713L0.235352 43.8323C0.251375 43.7944 0.270569 43.758 0.288086 43.7209C0.310265 43.6739 0.331685 43.6264 0.356445 43.5803C0.372097 43.5512 0.390653 43.5239 0.407227 43.4954C0.486884 43.3583 0.575532 43.2246 0.678711 43.0989C0.685001 43.0912 0.691878 43.084 0.698242 43.0764C0.755006 43.0087 0.815217 42.9428 0.878906 42.8792C0.942562 42.8155 1.00845 42.7552 1.07617 42.6985C1.08397 42.692 1.09174 42.6854 1.09961 42.679C1.16223 42.6276 1.22636 42.579 1.29199 42.5334C1.3072 42.5229 1.32249 42.5125 1.33789 42.5022C1.38708 42.4694 1.43863 42.441 1.48926 42.4114C1.51647 42.3955 1.54256 42.3776 1.57031 42.3625L1.60449 42.343C1.6179 42.336 1.63201 42.3303 1.64551 42.3235L22.0918 21.8782L22.2041 21.7727Z" fill="black"/>
</svg>
