<svg width="90" height="90" viewBox="0 0 90 90" fill="none" xmlns="http://www.w3.org/2000/svg">
<g clip-path="url(#clip0_5600_15248)">
<mask id="path-1-inside-1_5600_15248" fill="white">
<path d="M37.0573 1.95162C40.7442 -2.11201 47.5005 0.495952 47.5007 5.98287V21.9995H83.9997C87.3132 21.9995 89.9994 24.686 89.9997 27.9995V61.9995C89.9997 65.3132 87.3134 67.9995 83.9997 67.9995H47.5007V84.017C47.5004 89.504 40.7442 92.1119 37.0573 88.0483L1.65886 49.0317C-0.416235 46.7445 -0.416235 43.2554 1.65886 40.9682L37.0573 1.95162Z"/>
</mask>
<path d="M37.0573 1.95162L32.6137 -2.08007L32.6136 -2.07998L37.0573 1.95162ZM47.5007 5.98287L53.5007 5.98287L53.5007 5.98264L47.5007 5.98287ZM47.5007 21.9995H41.5007V27.9995H47.5007V21.9995ZM89.9997 27.9995L95.9997 27.9995L95.9997 27.999L89.9997 27.9995ZM47.5007 67.9995V61.9995H41.5007V67.9995H47.5007ZM47.5007 84.017L53.5007 84.0173V84.017H47.5007ZM37.0573 88.0483L32.6136 92.0799L32.6137 92.08L37.0573 88.0483ZM1.65886 49.0317L-2.78482 53.0633L-2.78481 53.0633L1.65886 49.0317ZM1.65886 40.9682L-2.78481 36.9366L-2.78482 36.9366L1.65886 40.9682ZM37.0573 1.95162L41.5009 5.98331C41.524 5.95786 41.5387 5.94542 41.5436 5.94155C41.5484 5.93767 41.5469 5.9394 41.5391 5.94388C41.5313 5.9483 41.5208 5.95343 41.5083 5.95815C41.496 5.96281 41.4843 5.96607 41.4743 5.96817C41.4541 5.9724 41.4468 5.97071 41.4542 5.97137C41.4579 5.97169 41.4642 5.97252 41.4727 5.97452C41.4813 5.97652 41.4909 5.9794 41.5008 5.98324C41.5108 5.98708 41.5198 5.99137 41.5275 5.99565C41.5352 5.99992 41.5404 6.00356 41.5433 6.00577C41.5492 6.01024 41.5427 6.00657 41.5306 5.98988C41.5245 5.98156 41.5181 5.97131 41.5121 5.95956C41.506 5.94766 41.5016 5.93678 41.4989 5.9283C41.4961 5.9197 41.4962 5.91742 41.4971 5.92353C41.4981 5.92962 41.5007 5.94874 41.5007 5.98309L47.5007 5.98287L53.5007 5.98264C53.5002 -4.99147 39.9875 -10.2072 32.6137 -2.08007L37.0573 1.95162ZM47.5007 5.98287H41.5007V21.9995H47.5007H53.5007V5.98287H47.5007ZM47.5007 21.9995V27.9995H83.9997V21.9995V15.9995H47.5007V21.9995ZM83.9997 21.9995V27.9995L83.9997 27.9999L89.9997 27.9995L95.9997 27.999C95.9992 21.3726 90.6274 15.9995 83.9997 15.9995V21.9995ZM89.9997 27.9995H83.9997V61.9995H89.9997H95.9997V27.9995H89.9997ZM89.9997 61.9995H83.9997V67.9995V73.9995C90.6271 73.9995 95.9997 68.6269 95.9997 61.9995H89.9997ZM83.9997 67.9995V61.9995H47.5007V67.9995V73.9995H83.9997V67.9995ZM47.5007 67.9995H41.5007V84.017H47.5007H53.5007V67.9995H47.5007ZM47.5007 84.017L41.5007 84.0168C41.5007 84.0512 41.4981 84.0703 41.4971 84.0764C41.4962 84.0825 41.4961 84.0802 41.4989 84.0716C41.5016 84.0631 41.506 84.0522 41.5121 84.0403C41.5181 84.0286 41.5245 84.0183 41.5306 84.01C41.5427 83.9933 41.5492 83.9897 41.5433 83.9941C41.5404 83.9964 41.5352 84 41.5275 84.0043C41.5198 84.0085 41.5108 84.0128 41.5008 84.0167C41.4909 84.0205 41.4813 84.0234 41.4727 84.0254C41.4642 84.0274 41.4578 84.0282 41.4542 84.0285C41.4468 84.0292 41.4541 84.0275 41.4743 84.0317C41.4843 84.0338 41.496 84.0371 41.5083 84.0418C41.5208 84.0465 41.5313 84.0516 41.5391 84.056C41.5469 84.0605 41.5484 84.0622 41.5436 84.0584C41.5387 84.0545 41.524 84.0421 41.5009 84.0166L37.0573 88.0483L32.6137 92.08C39.9875 100.207 53.5002 94.9914 53.5007 84.0173L47.5007 84.017ZM37.0573 88.0483L41.501 84.0167L6.10254 45.0001L1.65886 49.0317L-2.78481 53.0633L32.6136 92.0799L37.0573 88.0483ZM1.65886 49.0317L6.10254 45.0001V44.9998L1.65886 40.9682L-2.78482 36.9366C-6.93501 41.511 -6.93501 48.4889 -2.78482 53.0633L1.65886 49.0317ZM1.65886 40.9682L6.10254 44.9998L41.501 5.98321L37.0573 1.95162L32.6136 -2.07998L-2.78481 36.9366L1.65886 40.9682Z" fill="black" mask="url(#path-1-inside-1_5600_15248)"/>
</g>
<defs>
<clipPath id="clip0_5600_15248">
<rect width="90" height="90" fill="white"/>
</clipPath>
</defs>
</svg>
