<svg width="80" height="100" viewBox="0 0 80 100" fill="none" xmlns="http://www.w3.org/2000/svg">
<g clip-path="url(#clip0_5642_1628)">
<mask id="path-1-inside-1_5642_1628" fill="white">
<path d="M25.9236 98.2427C23.5804 100.586 19.7813 100.586 17.4382 98.2427L10.5222 91.3267C8.17911 88.9836 8.1792 85.1845 10.5222 82.8413L41.4966 51.8679C42.2777 51.0868 42.2777 49.8205 41.4966 49.0394L10.2673 17.8111C7.92441 15.468 7.92446 11.6688 10.2673 9.32571L17.1843 2.4097C19.5274 0.0667228 23.3256 0.0667462 25.6687 2.4097L68.989 45.729C69.7316 46.4717 70.2386 47.3608 70.5105 48.3033C71.455 50.4943 71.0327 53.1335 69.2429 54.9234L25.9236 98.2427Z"/>
</mask>
<path d="M25.9236 98.2427C23.5804 100.586 19.7813 100.586 17.4382 98.2427L10.5222 91.3267C8.17911 88.9836 8.1792 85.1845 10.5222 82.8413L41.4966 51.8679C42.2777 51.0868 42.2777 49.8205 41.4966 49.0394L10.2673 17.8111C7.92441 15.468 7.92446 11.6688 10.2673 9.32571L17.1843 2.4097C19.5274 0.0667228 23.3256 0.0667462 25.6687 2.4097L68.989 45.729C69.7316 46.4717 70.2386 47.3608 70.5105 48.3033C71.455 50.4943 71.0327 53.1335 69.2429 54.9234L25.9236 98.2427Z" fill="black"/>
<path d="M25.9236 98.2427L30.1661 102.485L30.1662 102.485L25.9236 98.2427ZM10.5222 82.8413L6.27964 78.5986L6.27944 78.5988L10.5222 82.8413ZM10.2673 17.8111L6.02454 22.0536L6.02475 22.0538L10.2673 17.8111ZM10.2673 9.32571L6.02499 5.08277L6.02447 5.08329L10.2673 9.32571ZM17.1843 2.4097L21.4267 6.65264L21.4268 6.65245L17.1843 2.4097ZM25.6687 2.4097L29.9113 -1.83299L29.9112 -1.83309L25.6687 2.4097ZM68.989 45.729L73.2318 41.4865L73.2316 41.4863L68.989 45.729ZM70.5105 48.3033L64.7456 49.9662L64.8506 50.3304L65.0007 50.6785L70.5105 48.3033ZM69.2429 54.9234L65.0003 50.6807L69.2429 54.9234ZM41.4966 51.8679L45.7392 56.1106L41.4966 51.8679ZM25.9236 98.2427L21.6811 93.9999L21.6809 94.0001L17.4382 98.2427L13.1956 102.485C17.882 107.172 25.4799 107.171 30.1661 102.485L25.9236 98.2427ZM17.4382 98.2427L21.6809 94.0001L14.7649 87.084L10.5222 91.3267L6.27957 95.5693L13.1956 102.485L17.4382 98.2427ZM10.5222 91.3267L14.7649 87.084L14.765 87.0839L10.5222 82.8413L6.27944 78.5988C1.59358 83.285 1.5932 90.883 6.27957 95.5693L10.5222 91.3267ZM10.5222 82.8413L14.7648 87.084L45.7392 56.1106L41.4966 51.8679L37.254 47.6252L6.27964 78.5986L10.5222 82.8413ZM41.4966 49.0394L45.7392 44.7967L14.5099 13.5684L10.2673 17.8111L6.02475 22.0538L37.254 53.2821L41.4966 49.0394ZM10.2673 17.8111L14.5101 13.5686L14.5102 13.5681L10.2673 9.32571L6.02447 5.08329C1.33881 9.76943 1.3386 17.3673 6.02454 22.0536L10.2673 17.8111ZM10.2673 9.32571L14.5097 13.5687L21.4267 6.65264L17.1843 2.4097L12.942 -1.83324L6.02499 5.08277L10.2673 9.32571ZM17.1843 2.4097L21.4268 6.65245L21.4262 6.65249L25.6687 2.4097L29.9112 -1.83309C25.225 -6.51896 17.6281 -6.51906 12.9418 -1.83306L17.1843 2.4097ZM25.6687 2.4097L21.4261 6.65239L64.7464 49.9717L68.989 45.729L73.2316 41.4863L29.9113 -1.83299L25.6687 2.4097ZM68.989 45.729L64.7463 49.9716C64.7498 49.9751 64.7511 49.9768 64.7509 49.9766C64.7508 49.9764 64.75 49.9754 64.749 49.9736C64.7467 49.9698 64.7457 49.9669 64.7456 49.9662L70.5105 48.3033L76.2754 46.6403C75.7299 44.7492 74.7107 42.9655 73.2318 41.4865L68.989 45.729ZM70.5105 48.3033L65.0007 50.6785C64.999 50.6747 64.9994 50.6741 64.9998 50.6773C65.0002 50.6809 65 50.6845 64.9996 50.6865C64.9993 50.6879 64.9996 50.6853 65.0022 50.6804C65.0035 50.678 65.0046 50.6762 65.0052 50.6754C65.0059 50.6745 65.0047 50.6763 65.0003 50.6807L69.2429 54.9234L73.4856 59.166C77.0724 55.5791 77.9045 50.2988 76.0203 45.928L70.5105 48.3033ZM69.2429 54.9234L65.0003 50.6807L21.6809 94.0001L25.9236 98.2427L30.1662 102.485L73.4856 59.166L69.2429 54.9234ZM41.4966 51.8679L45.7392 56.1106C48.8635 52.9864 48.8635 47.9209 45.7392 44.7967L41.4966 49.0394L37.254 53.2821C35.6919 51.72 35.6919 49.1873 37.254 47.6252L41.4966 51.8679Z" fill="black" mask="url(#path-1-inside-1_5642_1628)"/>
</g>
<defs>
<clipPath id="clip0_5642_1628">
<rect width="80" height="100" fill="white"/>
</clipPath>
</defs>
</svg>
