<svg width="100" height="80" viewBox="0 0 100 80" fill="none" xmlns="http://www.w3.org/2000/svg">
<g clip-path="url(#clip0_5576_17856)">
<path d="M20.7891 0.772461C21.9667 -0.291584 23.7849 -0.255955 24.9199 0.878906C26.0549 2.01389 26.0905 3.83211 25.0264 5.00977L24.9199 5.12109L10.041 20H70L70.7744 20.0098C86.9851 20.4205 100 33.6904 100 50C100 66.5685 86.5685 80 70 80H50C48.3431 80 47 78.6569 47 77C47 75.3431 48.3431 74 50 74H70C83.2548 74 94 63.2548 94 50C94 36.9522 83.5878 26.3362 70.6191 26.0078L70 26H10.2422L24.9199 40.6777L25.0264 40.7891C26.0905 41.9667 26.0549 43.7849 24.9199 44.9199C23.7849 46.0549 21.9667 46.0905 20.7891 45.0264L20.6777 44.9199L0.878906 25.1211C0.815037 25.0572 0.755148 24.9908 0.698242 24.9229C0.691879 24.9152 0.685 24.9081 0.678711 24.9004C0.622321 24.8317 0.569868 24.7608 0.520508 24.6885C0.516539 24.6827 0.512718 24.6767 0.508789 24.6709C0.469438 24.6124 0.434194 24.5518 0.399414 24.4912C0.386041 24.4679 0.37116 24.4455 0.358398 24.4219C0.331503 24.372 0.308042 24.3206 0.28418 24.2695C0.264442 24.2274 0.243393 24.1858 0.225586 24.1426C0.212519 24.1108 0.20236 24.078 0.19043 24.0459C0.167889 23.9854 0.145625 23.9246 0.126953 23.8623C0.117865 23.8319 0.110644 23.8011 0.102539 23.7705C0.0372723 23.5244 0 23.2666 0 23C0 22.9558 0.00103953 22.9119 0.00292969 22.8682C-0.0151837 22.0775 0.275534 21.2811 0.878906 20.6777L20.6777 0.878906L20.7891 0.772461Z" fill="black"/>
</g>
<defs>
<clipPath id="clip0_5576_17856">
<rect width="100" height="80" fill="white"/>
</clipPath>
</defs>
</svg>
