<svg width="90" height="90" viewBox="0 0 90 90" fill="none" xmlns="http://www.w3.org/2000/svg">
<g clip-path="url(#clip0_5600_15276)">
<mask id="path-1-inside-1_5600_15276" fill="white">
<path d="M1.95218 52.9437C-2.1116 49.2568 0.496473 42.5005 5.98343 42.5003H22V6.00032C22.0001 2.68686 24.6866 0.000575676 28 0.000318032H62C65.3137 0.000318032 67.9999 2.6867 68 6.00032V42.5003H84.0176C89.5046 42.5005 92.1126 49.2568 88.0489 52.9437L49.0323 88.3421C46.7451 90.4172 43.256 90.4172 40.9688 88.3421L1.95218 52.9437Z"/>
</mask>
<path d="M1.95218 52.9437L5.98378 48.5L5.98377 48.5L1.95218 52.9437ZM5.98343 42.5003L5.98343 36.5003L5.9832 36.5003L5.98343 42.5003ZM22 42.5003V48.5003H28V42.5003H22ZM22 6.00032L16 6.00013V6.00032H22ZM28 0.000318032L28 -5.99968L27.9996 -5.99968L28 0.000318032ZM68 6.00032L74 6.00032L74 6.00013L68 6.00032ZM68 42.5003H62V48.5003H68V42.5003ZM84.0176 42.5003L84.0178 36.5003H84.0176V42.5003ZM88.0489 52.9437L84.0173 48.5L84.0173 48.5L88.0489 52.9437ZM49.0323 88.3421L53.0639 92.7858L53.0639 92.7858L49.0323 88.3421ZM40.9688 88.3421L36.9372 92.7858L36.9372 92.7858L40.9688 88.3421ZM1.95218 52.9437L5.98377 48.5C5.95832 48.4769 5.94589 48.4621 5.94202 48.4573C5.93814 48.4525 5.93987 48.454 5.94435 48.4618C5.94877 48.4696 5.95391 48.4801 5.95863 48.4926C5.96329 48.5049 5.96655 48.5166 5.96866 48.5267C5.97288 48.5468 5.9712 48.5542 5.97185 48.5468C5.97218 48.5431 5.97301 48.5368 5.975 48.5283C5.97701 48.5197 5.97988 48.5101 5.98372 48.5002C5.98756 48.4902 5.99185 48.4812 5.99613 48.4735C6.0004 48.4659 6.00404 48.4606 6.00625 48.4577C6.01073 48.4518 6.00706 48.4583 5.99038 48.4704C5.98206 48.4765 5.97182 48.4829 5.96007 48.4889C5.94818 48.495 5.93731 48.4993 5.92883 48.5021C5.92024 48.5049 5.91797 48.5048 5.92408 48.5039C5.93018 48.5029 5.94931 48.5003 5.98366 48.5003L5.98343 42.5003L5.9832 36.5003C-4.99065 36.5007 -10.207 50.0134 -2.07941 57.3874L1.95218 52.9437ZM5.98343 42.5003V48.5003H22V42.5003V36.5003H5.98343V42.5003ZM22 42.5003H28V6.00032H22H16V42.5003H22ZM22 6.00032L28 6.0005L28.0005 6.00032L28 0.000318032L27.9996 -5.99968C21.3731 -5.99917 16.0002 -0.627172 16 6.00013L22 6.00032ZM28 0.000318032V6.00032H62V0.000318032V-5.99968H28V0.000318032ZM62 0.000318032V6.00032L62 6.0005L68 6.00032L74 6.00013C73.9998 -0.626869 68.6276 -5.99968 62 -5.99968V0.000318032ZM68 6.00032H62V42.5003H68H74V6.00032H68ZM68 42.5003V48.5003H84.0176V42.5003V36.5003H68V42.5003ZM84.0176 42.5003L84.0174 48.5003C84.0517 48.5003 84.0709 48.5029 84.077 48.5039C84.0831 48.5048 84.0808 48.5049 84.0722 48.5021C84.0637 48.4993 84.0529 48.495 84.041 48.4889C84.0292 48.4829 84.019 48.4765 84.0107 48.4704C83.994 48.4583 83.9903 48.4518 83.9948 48.4577C83.997 48.4606 84.0006 48.4659 84.0049 48.4735C84.0092 48.4812 84.0135 48.4902 84.0173 48.5002C84.0212 48.5101 84.024 48.5197 84.026 48.5283C84.028 48.5368 84.0289 48.5431 84.0292 48.5468C84.0298 48.5542 84.0282 48.5468 84.0324 48.5267C84.0345 48.5166 84.0378 48.5049 84.0424 48.4926C84.0471 48.4801 84.0523 48.4696 84.0567 48.4618C84.0612 48.454 84.0629 48.4525 84.059 48.4573C84.0552 48.4621 84.0427 48.4769 84.0173 48.5L88.0489 52.9437L92.0805 57.3874C100.208 50.0134 94.9917 36.5007 84.0178 36.5003L84.0176 42.5003ZM88.0489 52.9437L84.0173 48.5L45.0007 83.8984L49.0323 88.3421L53.0639 92.7858L92.0805 57.3874L88.0489 52.9437ZM49.0323 88.3421L45.0007 83.8984H45.0004L40.9688 88.3421L36.9372 92.7858C41.5116 96.936 48.4895 96.936 53.0639 92.7858L49.0323 88.3421ZM40.9688 88.3421L45.0004 83.8984L5.98378 48.5L1.95218 52.9437L-2.07941 57.3874L36.9372 92.7858L40.9688 88.3421Z" fill="black" mask="url(#path-1-inside-1_5600_15276)"/>
</g>
<defs>
<clipPath id="clip0_5600_15276">
<rect width="90" height="90" fill="white"/>
</clipPath>
</defs>
</svg>
