<svg width="90" height="90" viewBox="0 0 90 90" fill="none" xmlns="http://www.w3.org/2000/svg">
<path d="M63 26L63 33" stroke="black" stroke-width="6" stroke-linecap="round"/>
<path d="M26 26L26 33" stroke="black" stroke-width="6" stroke-linecap="round"/>
<path d="M61 65C48.4721 72.7825 41.5026 73.2146 29 65" stroke="black" stroke-width="6" stroke-linecap="round"/>
<path d="M6 81C6 82.6569 7.34315 84 9 84H20.001C21.6578 84 23.001 85.3431 23.001 87V87C23.001 88.6569 21.6578 90 20.001 90H6L5.69141 89.9922C2.62332 89.8367 0.163251 87.3767 0.0078125 84.3086L0 84V70C0 68.3431 1.34315 67 3 67V67C4.65685 67 6 68.3431 6 70V81ZM90 84L89.9922 84.3086C89.8367 87.3767 87.3767 89.8367 84.3086 89.9922L84 90H70.001C68.3441 90 67.001 88.6569 67.001 87V87C67.001 85.3431 68.3441 84 70.001 84H81C82.6569 84 84 82.6569 84 81V70C84 68.3431 85.3431 67 87 67V67C88.6569 67 90 68.3431 90 70V84ZM23.001 3C23.001 4.65685 21.6578 6 20.001 6H9C7.34315 6 6 7.34315 6 9V20C6 21.6569 4.65685 23 3 23V23C1.34315 23 0 21.6569 0 20V6C0 2.78979 2.52111 0.168429 5.69141 0.0078125L6 0H20.001C21.6578 0 23.001 1.34315 23.001 3V3ZM84.3086 0.0078125C87.4789 0.168429 90 2.78979 90 6V20C90 21.6569 88.6569 23 87 23V23C85.3431 23 84 21.6569 84 20V9C84 7.34315 82.6569 6 81 6H70.001C68.3441 6 67.001 4.65685 67.001 3V3C67.001 1.34315 68.3441 0 70.001 0H84L84.3086 0.0078125Z" fill="black"/>
<path d="M45 35C45 35 56.25 56.4755 45 54.9193" stroke="black" stroke-width="6" stroke-linecap="round"/>
</svg>
