<svg width="90" height="90" viewBox="0 0 90 90" fill="none" xmlns="http://www.w3.org/2000/svg">
<g clip-path="url(#clip0_5643_1633)">
<mask id="path-1-inside-1_5643_1633" fill="white">
<path d="M6.70595 20.5177C6.16013 21.4719 6.25651 22.6633 6.94849 23.5175C8.47956 25.407 6.88635 28.1917 4.48157 27.8295C3.39457 27.6658 2.3186 28.1867 1.7726 29.1407L1.18339 30.1706C-0.0224207 32.2783 0.708298 34.9648 2.81578 36.1708L13.2477 42.139C15.3827 43.3605 18.1043 42.6197 19.3257 40.4848L19.9615 39.3735C20.4907 38.4483 20.3974 37.2928 19.7265 36.4646C18.2419 34.6326 19.7865 31.9326 22.1183 32.284C23.1722 32.4428 24.2155 31.9373 24.745 31.0123L30.3324 21.246C31.4968 19.2106 30.7586 16.6189 30.1427 14.3563C29.2164 10.953 31.2247 7.44271 34.628 6.51641L34.7714 6.47809C35.7575 6.20971 36.5986 5.33465 36.2922 4.35975C36.1048 3.76353 35.8617 3.18439 35.565 2.63088C34.1647 0.019 30.8329 -0.382095 27.9733 0.396051L20.4149 2.45328C17.8559 3.14984 15.6783 4.83474 14.3613 7.13673L6.70595 20.5177Z"/>
</mask>
<path d="M6.70595 20.5177L1.49781 17.5385L1.49802 17.5381L6.70595 20.5177ZM6.94849 23.5175L2.28684 27.2949L2.28638 27.2944L6.94849 23.5175ZM4.48157 27.8295L5.3748 21.8963L5.37529 21.8964L4.48157 27.8295ZM1.7726 29.1407L-3.43533 26.1612L-3.43491 26.1605L1.7726 29.1407ZM1.18339 30.1706L-4.02454 27.1911L1.18339 30.1706ZM2.81578 36.1708L-0.163726 41.3787L-0.164283 41.3784L2.81578 36.1708ZM13.2477 42.139L10.2682 47.347L13.2477 42.139ZM19.3257 40.4848L24.5336 43.4643L24.5336 43.4643L19.3257 40.4848ZM19.9615 39.3735L25.1695 42.3528L25.1694 42.353L19.9615 39.3735ZM19.7265 36.4646L24.388 32.6869L24.3887 32.6878L19.7265 36.4646ZM22.1183 32.284L21.2246 38.2171L21.2241 38.217L22.1183 32.284ZM24.745 31.0123L29.9529 33.9918L29.9524 33.9927L24.745 31.0123ZM34.628 6.51641L33.0523 0.727021L33.0657 0.723357L33.0792 0.719755L34.628 6.51641ZM35.565 2.63088L40.853 -0.204019L40.8531 -0.203855L35.565 2.63088ZM27.9733 0.396051L26.3976 -5.39334L26.3979 -5.39343L27.9733 0.396051ZM20.4149 2.45328L18.839 -3.33608L18.8392 -3.33611L20.4149 2.45328ZM14.3613 7.13673L19.5692 10.1162L14.3613 7.13673ZM36.2922 4.35975L30.5683 6.15888L36.2922 4.35975ZM6.70595 20.5177L11.9141 23.4968C12.5977 22.3017 12.4768 20.8099 11.6106 19.7406L6.94849 23.5175L2.28638 27.2944C0.0362281 24.5168 -0.277448 20.642 1.49781 17.5385L6.70595 20.5177ZM6.94849 23.5175L11.6101 19.7401C16.5895 25.885 11.4082 34.9406 3.58785 33.7625L4.48157 27.8295L5.37529 21.8964C2.36446 21.4429 0.369637 24.929 2.28684 27.2949L6.94849 23.5175ZM4.48157 27.8295L3.58834 33.7626C4.94966 33.9676 6.29661 33.3153 6.98012 32.121L1.7726 29.1407L-3.43491 26.1605C-1.6594 23.0581 1.83948 21.3641 5.3748 21.8963L4.48157 27.8295ZM1.7726 29.1407L6.98053 32.1203L6.39132 33.1501L1.18339 30.1706L-4.02454 27.1911L-3.43533 26.1612L1.7726 29.1407ZM1.18339 30.1706L6.39132 33.1501C6.8305 32.3825 6.56496 31.4033 5.79584 30.9632L2.81578 36.1708L-0.164283 41.3784C-5.14837 38.5263 -6.87534 32.1741 -4.02454 27.1911L1.18339 30.1706ZM2.81578 36.1708L5.79529 30.9629L16.2273 36.9311L13.2477 42.139L10.2682 47.347L-0.163726 41.3787L2.81578 36.1708ZM13.2477 42.139L16.2273 36.9311C15.486 36.507 14.5419 36.764 14.1178 37.5053L19.3257 40.4848L24.5336 43.4643C21.6666 48.4755 15.2795 50.2139 10.2682 47.347L13.2477 42.139ZM19.3257 40.4848L14.1178 37.5053L14.7535 36.394L19.9615 39.3735L25.1694 42.353L24.5336 43.4643L19.3257 40.4848ZM19.9615 39.3735L14.7534 36.3942C14.0535 37.6177 14.1766 39.1456 15.0643 40.2414L19.7265 36.4646L24.3887 32.6878C26.6182 35.44 26.9279 39.279 25.1695 42.3528L19.9615 39.3735ZM19.7265 36.4646L15.065 40.2423C10.132 34.1551 15.2644 25.1833 23.0125 26.351L22.1183 32.284L21.2241 38.217C24.3087 38.6819 26.3518 35.1102 24.388 32.6869L19.7265 36.4646ZM22.1183 32.284L23.0119 26.351C21.6157 26.1407 20.2368 26.8101 19.5375 28.0319L24.745 31.0123L29.9524 33.9927C28.1942 37.0646 24.7287 38.7449 21.2246 38.2171L22.1183 32.284ZM24.745 31.0123L19.537 28.0328L25.1245 18.2664L30.3324 21.246L35.5403 24.2255L29.9529 33.9918L24.745 31.0123ZM30.1427 14.3563L24.3533 15.932C22.5568 9.33133 26.4516 2.52357 33.0523 0.727021L34.628 6.51641L36.2037 12.3058C35.9978 12.3618 35.8761 12.5746 35.9321 12.7805L30.1427 14.3563ZM34.628 6.51641L33.0792 0.719755L33.2226 0.681431L34.7714 6.47809L36.3202 12.2747L36.1768 12.3131L34.628 6.51641ZM36.2922 4.35975L30.5683 6.15888C30.4926 5.91822 30.395 5.686 30.2768 5.46561L35.565 2.63088L40.8531 -0.203855C41.3284 0.682778 41.7169 1.60884 42.0161 2.56062L36.2922 4.35975ZM35.565 2.63088L30.2769 5.46577C30.3799 5.65792 30.5424 5.83913 30.72 5.96501C30.8789 6.07768 30.9676 6.08895 30.909 6.07479C30.8462 6.05966 30.6847 6.03327 30.4215 6.04435C30.1617 6.05529 29.861 6.10057 29.5488 6.18553L27.9733 0.396051L26.3979 -5.39343C28.5704 -5.9846 31.1664 -6.20752 33.7239 -5.59038C36.3855 -4.94812 39.1834 -3.31845 40.853 -0.204019L35.565 2.63088ZM27.9733 0.396051L29.5491 6.18544L21.9906 8.24267L20.4149 2.45328L18.8392 -3.33611L26.3976 -5.39334L27.9733 0.396051ZM20.4149 2.45328L21.9908 8.24264C20.9675 8.52117 20.0962 9.19515 19.5692 10.1162L14.3613 7.13673L9.15338 4.15722C11.2604 0.474339 14.7443 -2.2215 18.839 -3.33608L20.4149 2.45328ZM14.3613 7.13673L19.5692 10.1162L11.9139 23.4972L6.70595 20.5177L1.49802 17.5381L9.15338 4.15722L14.3613 7.13673ZM34.7714 6.47809L33.1957 0.688697C32.6056 0.849314 31.9019 1.21224 31.3062 1.96727C30.6261 2.82922 30.0133 4.39322 30.5683 6.15888L36.2922 4.35975L42.0161 2.56062C42.8775 5.30117 41.9974 7.79016 40.7268 9.40045C39.5406 10.9038 37.9233 11.8385 36.3472 12.2675L34.7714 6.47809ZM30.3324 21.246L25.1245 18.2664C24.8564 18.735 24.9839 18.9832 24.9337 18.4707C24.9101 18.2294 24.8551 17.9049 24.7513 17.4577C24.6448 16.9988 24.5173 16.5345 24.3534 15.9323L30.1427 14.3563L35.932 12.7803C36.2037 13.7783 36.7016 15.5131 36.8767 17.3019C37.0585 19.1598 36.9728 21.7215 35.5403 24.2255L30.3324 21.246Z" fill="black" mask="url(#path-1-inside-1_5643_1633)"/>
<path d="M25.118 22.2233C26.7636 19.3474 30.4293 18.3497 33.3055 19.9952L50.892 30.0566C51.5217 30.4169 51.6005 31.294 51.0452 31.7607L50.3264 32.3637C49.518 33.042 49.3755 34.2316 50.0011 35.0815L50.5575 35.8375C50.8306 36.2087 50.4024 36.689 50.0024 36.4602L31.6528 25.9622C30.9199 25.5429 29.9859 25.7971 29.5666 26.5299C29.1472 27.2628 29.4014 28.1969 30.1343 28.6163L47.5696 38.5916C48.8012 39.2962 48.9277 41.0235 47.8121 41.9002L46.1155 43.2332C45.4751 43.7364 44.5936 43.801 43.8867 43.3966L25.8276 33.0648C23.0416 31.4708 22.0184 27.9811 23.4526 25.1498L23.5994 24.8773L25.118 22.2233Z" fill="black"/>
<path d="M79.2007 87.3548L78.9299 87.5019C76.1953 88.901 72.835 88.0004 71.1664 85.4214L71.0047 85.1584L49.6416 48.1549C49.5078 47.9231 49.7296 47.6482 49.9844 47.7299L50.9547 48.0406C52.0213 48.3821 53.1603 47.7814 53.4809 46.7084L53.7724 45.7326C53.9524 45.1294 54.7665 45.0338 55.0812 45.579L79.2007 87.3548ZM60.6567 41.8835L63.1518 42.5825C63.655 42.7235 64.0831 43.0558 64.3444 43.5083L84.0453 77.63L84.1924 77.9009C85.5915 80.6354 84.6918 83.9959 82.1129 85.6645L81.8489 85.8261L79.2007 87.3548L76.9653 83.4826C76.5431 82.7513 76.7937 81.8163 77.525 81.3942C78.2562 80.9721 78.5068 80.037 78.0846 79.3058L55.9898 41.0381C55.9218 40.9203 55.9565 40.77 56.0693 40.694C56.1322 40.6515 56.2107 40.6388 56.2838 40.6593L60.6567 41.8835Z" fill="black"/>
<path d="M59 13L58 24" stroke="black" stroke-width="6" stroke-linecap="round"/>
<path d="M83 18L67 31" stroke="black" stroke-width="6" stroke-linecap="round"/>
<path d="M85 40H75" stroke="black" stroke-width="6" stroke-linecap="round"/>
</g>
<defs>
<clipPath id="clip0_5643_1633">
<rect width="90" height="90" fill="white"/>
</clipPath>
</defs>
</svg>
