<svg width="90" height="90" viewBox="0 0 90 90" fill="none" xmlns="http://www.w3.org/2000/svg">
<path d="M27 0C30.3137 0 33 2.68629 33 6V9.86621H56V6L56.0078 5.69141C56.1632 2.62332 58.6233 0.16325 61.6914 0.0078125L62 0H65C68.3137 0 71 2.68629 71 6V9.86621H84C84.1591 9.86621 84.3167 9.87358 84.4727 9.88574C84.5174 9.88923 84.562 9.89203 84.6064 9.89648C84.6251 9.89835 84.6435 9.90128 84.6621 9.90332C84.8443 9.92333 85.0242 9.95038 85.2012 9.98633C85.2388 9.99398 85.2761 10.0034 85.3135 10.0117C85.3637 10.0229 85.4141 10.0334 85.4639 10.0459C85.5315 10.0629 85.5983 10.0823 85.665 10.1016C85.692 10.1093 85.7193 10.1159 85.7461 10.124C85.8053 10.142 85.8635 10.1629 85.9219 10.1826C85.9564 10.1943 85.9911 10.2055 86.0254 10.2178C86.0742 10.2353 86.1226 10.2537 86.1709 10.2725C86.214 10.2892 86.2572 10.3055 86.2998 10.3232C86.3428 10.3411 86.3853 10.3601 86.4277 10.3789C86.4736 10.3992 86.5192 10.42 86.5645 10.4414C86.6038 10.4601 86.6427 10.4795 86.6816 10.499C86.7301 10.5233 86.7785 10.5477 86.8262 10.5732C86.8629 10.5929 86.8992 10.6134 86.9355 10.6338C86.9778 10.6575 87.0199 10.6813 87.0615 10.7061C87.1033 10.7309 87.1445 10.7564 87.1855 10.7822C87.2259 10.8075 87.266 10.8331 87.3057 10.8594C87.3479 10.8873 87.3892 10.9164 87.4307 10.9453C87.4676 10.9711 87.5047 10.9968 87.541 11.0234C87.5755 11.0487 87.6096 11.0746 87.6436 11.1006C87.6883 11.1349 87.7326 11.1696 87.7764 11.2051C87.8046 11.228 87.8326 11.251 87.8604 11.2744C87.9042 11.3113 87.9475 11.3486 87.9902 11.3867C88.0219 11.4149 88.0529 11.4438 88.084 11.4727C88.1241 11.51 88.164 11.5475 88.2031 11.5859C88.2261 11.6085 88.2489 11.6313 88.2715 11.6543C88.3155 11.6989 88.3588 11.7441 88.4014 11.79C88.425 11.8156 88.4485 11.8413 88.4717 11.8672C88.5108 11.9109 88.5491 11.9552 88.5869 12C88.613 12.0309 88.6386 12.0623 88.6641 12.0938C88.6972 12.1346 88.7297 12.176 88.7617 12.2178C88.7849 12.248 88.8084 12.2779 88.8311 12.3086C88.8638 12.3529 88.8953 12.3981 88.9268 12.4434C88.9539 12.4824 88.9806 12.5218 89.0068 12.5615C89.0266 12.5913 89.0462 12.6212 89.0654 12.6514C89.098 12.7026 89.1301 12.7543 89.1611 12.8066C89.1817 12.8412 89.2018 12.8761 89.2217 12.9111C89.2446 12.9515 89.2671 12.9922 89.2891 13.0332C89.3153 13.0822 89.3403 13.1319 89.3652 13.1816C89.3853 13.2216 89.4057 13.2613 89.4248 13.3018C89.4425 13.3391 89.4586 13.3772 89.4756 13.415C89.4984 13.4659 89.5215 13.5167 89.543 13.5684C89.5541 13.5952 89.5644 13.6224 89.5752 13.6494C89.6003 13.7124 89.6245 13.7758 89.6475 13.8398C89.6606 13.8764 89.6731 13.9133 89.6855 13.9502C89.7024 14.0002 89.7198 14.05 89.7354 14.1006C89.7504 14.1494 89.7636 14.1987 89.7773 14.248C89.7907 14.2957 89.8042 14.3434 89.8164 14.3916C89.9114 14.7675 89.9719 15.1573 89.9922 15.5576L90 15.8662V84L89.9922 84.3086C89.8367 87.3766 87.3766 89.8368 84.3086 89.9922L84 90H6L5.69141 89.9922C2.62335 89.8368 0.163302 87.3766 0.0078125 84.3086L0 84V15.8662C1.94174e-07 15.7627 0.00263439 15.6598 0.0078125 15.5576C0.0179295 15.3579 0.0382082 15.1609 0.0673828 14.9668C0.0731845 14.9282 0.0803812 14.8899 0.0869141 14.8516C0.0964377 14.7957 0.106129 14.7399 0.117188 14.6846C0.126133 14.6398 0.135572 14.5952 0.145508 14.5508C0.15656 14.5014 0.168401 14.4523 0.180664 14.4033C0.193701 14.3513 0.207294 14.2995 0.22168 14.248C0.231981 14.2112 0.241946 14.1743 0.25293 14.1377C0.268086 14.0872 0.284342 14.0372 0.300781 13.9873C0.315425 13.9429 0.330056 13.8985 0.345703 13.8545C0.360637 13.8125 0.376742 13.771 0.392578 13.7295C0.410454 13.6826 0.429233 13.6362 0.448242 13.5898C0.46693 13.5443 0.486093 13.4991 0.505859 13.4541C0.521943 13.4175 0.537899 13.3809 0.554688 13.3447C0.567072 13.318 0.579033 13.2911 0.591797 13.2646L0.648438 13.1514C0.660981 13.1267 0.674627 13.1026 0.6875 13.0781C0.709817 13.0357 0.731586 12.993 0.754883 12.9512C0.774619 12.9157 0.795001 12.8807 0.81543 12.8457C0.841428 12.8012 0.867429 12.7567 0.894531 12.7129C0.920207 12.6714 0.946982 12.6306 0.973633 12.5898C0.997539 12.5532 1.02122 12.5165 1.0459 12.4805C1.0773 12.4346 1.10995 12.3897 1.14258 12.3447C1.1634 12.3161 1.18377 12.2871 1.20508 12.2588C1.24123 12.2108 1.27887 12.164 1.31641 12.1172C1.33784 12.0904 1.35898 12.0635 1.38086 12.0371C1.41699 11.9936 1.45388 11.9507 1.49121 11.9082C1.57698 11.8106 1.66596 11.7159 1.75781 11.624C1.82276 11.5591 1.8882 11.4945 1.95605 11.4326C1.99287 11.399 2.03169 11.3676 2.06934 11.335C2.10314 11.3056 2.13644 11.2757 2.1709 11.2471C2.20798 11.2163 2.24635 11.1871 2.28418 11.1572C2.32035 11.1286 2.35574 11.099 2.39258 11.0713C2.43001 11.0431 2.46873 11.0166 2.50684 10.9893C2.54264 10.9636 2.57787 10.937 2.61426 10.9121C2.65499 10.8842 2.69683 10.858 2.73828 10.8311C2.77439 10.8076 2.81004 10.7834 2.84668 10.7607C2.89047 10.7336 2.93496 10.7076 2.97949 10.6816C3.01448 10.6612 3.04952 10.6408 3.08496 10.6211C3.1306 10.5957 3.17727 10.5721 3.22363 10.5479C3.24427 10.5371 3.26438 10.5252 3.28516 10.5146L3.39844 10.458C3.42493 10.4452 3.45181 10.4333 3.47852 10.4209C3.51471 10.4041 3.55131 10.3882 3.58789 10.3721C3.63324 10.3521 3.67868 10.3323 3.72461 10.3135C3.77053 10.2946 3.81679 10.2765 3.86328 10.2588C3.90482 10.243 3.94631 10.2268 3.98828 10.2119C4.03226 10.1963 4.07665 10.1816 4.12109 10.167C4.17099 10.1506 4.22102 10.1343 4.27148 10.1191C4.30806 10.1082 4.34497 10.0982 4.38184 10.0879C4.43468 10.0731 4.48759 10.0583 4.54102 10.0449C4.58859 10.033 4.63655 10.0225 4.68457 10.0117C4.72967 10.0016 4.77483 9.99149 4.82031 9.98242C4.875 9.97152 4.93014 9.96253 4.98535 9.95312C5.0237 9.94659 5.06199 9.9394 5.10059 9.93359C5.17565 9.92231 5.2512 9.91277 5.32715 9.9043C5.34895 9.90186 5.3707 9.89868 5.39258 9.89648C5.49149 9.88654 5.59113 9.8791 5.69141 9.87402L6 9.86621H18V6L18.0078 5.69141C18.1632 2.62332 20.6233 0.16325 23.6914 0.0078125L24 0H27ZM6 84H84V37.6904H6V84ZM33 15.8662V21.0723L32.9922 21.3809C32.8315 24.5511 30.2102 27.0723 27 27.0723H24L23.6914 27.0645C20.6233 26.909 18.1633 24.4489 18.0078 21.3809L18 21.0723V15.8662H6V31.6904H84V15.8662H71V21.0723L70.9922 21.3809C70.8315 24.5511 68.2102 27.0723 65 27.0723H62L61.6914 27.0645C58.6233 26.909 56.1633 24.4489 56.0078 21.3809L56 21.0723V15.8662H33ZM24 21.0723H27V6H24V21.0723ZM62 21.0723H65V6H62V21.0723Z" fill="black"/>
</svg>
