<svg width="100" height="80" viewBox="0 0 100 80" fill="none" xmlns="http://www.w3.org/2000/svg">
<g clip-path="url(#clip0_5602_38808)">
<path d="M67.167 0C69.4787 9.79393e-05 71.6036 1.33244 72.5283 3.45117C73.6873 6.10692 74.659 8.6399 75.4678 11.0693H94C97.3137 11.0693 100 13.7556 100 17.0693V74C100 77.3137 97.3137 80 94 80H6C2.68629 80 0 77.3137 0 74V17.0693C0 13.7556 2.68629 11.0693 6 11.0693H23.3193C23.9779 8.66335 24.795 6.18635 25.7949 3.61914C26.6572 1.40552 28.8324 4.02523e-05 31.208 0H67.167ZM50 27C41.1634 27 34 34.3873 34 43.5C34 52.6127 41.1634 60 50 60C58.8366 60 66 52.6127 66 43.5C66 34.3873 58.8366 27 50 27ZM84 21C80.134 21 77 24.134 77 28C77 31.866 80.134 35 84 35C87.866 35 91 31.866 91 28C91 24.134 87.866 21 84 21Z" fill="black"/>
</g>
<defs>
<clipPath id="clip0_5602_38808">
<rect width="100" height="80" fill="white"/>
</clipPath>
</defs>
</svg>
