<svg width="100" height="80" viewBox="0 0 100 80" fill="none" xmlns="http://www.w3.org/2000/svg">
<path d="M50 27.3037C58.2487 27.3037 64.9998 34.0856 65 42.5312C65 50.977 58.2488 57.7598 50 57.7598C41.7512 57.7598 35 50.977 35 42.5312C35.0002 34.0856 41.7513 27.3037 50 27.3037Z" stroke="black" stroke-width="6"/>
<circle cx="82" cy="29" r="5" stroke="black" stroke-width="6"/>
<mask id="path-4-inside-1_1678_25834" fill="white">
<path d="M67.167 0C69.4787 9.79393e-05 71.6036 1.33244 72.5283 3.45117C73.6873 6.10692 74.659 8.6399 75.4678 11.0693H94C97.3137 11.0693 100 13.7556 100 17.0693V74C100 77.3137 97.3137 80 94 80H6C2.68629 80 0 77.3137 0 74V17.0693C0 13.7556 2.68629 11.0693 6 11.0693H23.3193C23.9779 8.66335 24.795 6.18635 25.7949 3.61914C26.6572 1.40552 28.8324 4.02523e-05 31.208 0H67.167Z"/>
</mask>
<path d="M67.167 0L67.1672 -6H67.167V0ZM72.5283 3.45117L78.0275 1.05132L78.0274 1.05108L72.5283 3.45117ZM75.4678 11.0693L69.775 12.9646L71.1415 17.0693H75.4678V11.0693ZM94 11.0693L94 5.06934H94V11.0693ZM94 80L94 86L94 86L94 80ZM6 80L6 86H6V80ZM6 11.0693L6 5.06934L6 5.06934L6 11.0693ZM23.3193 11.0693V17.0693H27.8978L29.1065 12.6533L23.3193 11.0693ZM25.7949 3.61914L20.2041 1.4414L20.204 1.44158L25.7949 3.61914ZM31.208 0L31.208 -6L31.2079 -6L31.208 0ZM67.167 0L67.1667 6C67.1694 6 67.159 6.00103 67.1371 5.98707C67.1108 5.97026 67.0619 5.926 67.0293 5.85127L72.5283 3.45117L78.0274 1.05108C76.1064 -3.3502 71.7579 -5.99981 67.1672 -6L67.167 0ZM72.5283 3.45117L67.0292 5.85102C68.1204 8.35146 69.0264 10.7161 69.775 12.9646L75.4678 11.0693L81.1606 9.17412C80.2915 6.56369 79.2542 3.86238 78.0275 1.05132L72.5283 3.45117ZM75.4678 11.0693V17.0693H94V11.0693V5.06934H75.4678V11.0693ZM94 11.0693L94 17.0693L94 17.0693H100H106C106 10.4419 100.627 5.06934 94 5.06934L94 11.0693ZM100 17.0693H94V74H100H106V17.0693H100ZM100 74H94H94L94 80L94 86C100.627 86 106 80.6274 106 74H100ZM94 80V74H6V80V86H94V80ZM6 80L6 74H6H0H-6C-6 80.6274 -0.627417 86 6 86L6 80ZM0 74H6V17.0693H0H-6V74H0ZM0 17.0693H6L6 17.0693L6 11.0693L6 5.06934C-0.627417 5.06934 -6 10.4419 -6 17.0693H0ZM6 11.0693V17.0693H23.3193V11.0693V5.06934H6V11.0693ZM23.3193 11.0693L29.1065 12.6533C29.7079 10.456 30.4587 8.17702 31.3858 5.7967L25.7949 3.61914L20.204 1.44158C19.1313 4.19568 18.2478 6.87069 17.5322 9.48535L23.3193 11.0693ZM25.7949 3.61914L31.3858 5.79688C31.3469 5.89676 31.2829 5.9581 31.2465 5.98218C31.2165 6.00205 31.2029 6 31.2081 6L31.208 0L31.2079 -6C26.5042 -5.99992 22.0156 -3.20913 20.2041 1.4414L25.7949 3.61914ZM31.208 0V6H67.167V0V-6H31.208V0Z" fill="black" mask="url(#path-4-inside-1_1678_25834)"/>
</svg>
