<svg width="100" height="100" viewBox="0 0 100 100" fill="none" xmlns="http://www.w3.org/2000/svg">
<g clip-path="url(#clip0_5556_139980)">
<path d="M50 0C77.6142 0 100 22.3858 100 50C100 77.6142 77.6142 100 50 100C22.3858 100 0 77.6142 0 50C0 22.3858 22.3858 0 50 0ZM50 6C25.6995 6 6 25.6995 6 50C6 74.3005 25.6995 94 50 94C74.3005 94 94 74.3005 94 50C94 25.6995 74.3005 6 50 6ZM50 84C51.6051 84 52.9158 85.2606 52.9961 86.8457L53 87V89C53 90.6569 51.6569 92 50 92C48.3431 92 47 90.6569 47 89V87L47.0039 86.8457C47.0842 85.2606 48.3949 84 50 84ZM73.6182 75.0225C74.753 73.8874 76.5712 73.8521 77.749 74.916L77.8613 75.0225L79.2754 76.4365C80.4469 77.608 80.4468 79.5071 79.2754 80.6787C78.1039 81.8502 76.2048 81.8501 75.0332 80.6787L73.6191 79.2646L73.5127 79.1533C72.4485 77.9758 72.4834 76.1576 73.6182 75.0225ZM22.4043 73.9551C23.5818 72.8909 25.4 72.9258 26.5352 74.0605C27.6703 75.1954 27.7056 77.0136 26.6416 78.1914L26.5352 78.3037L25.1211 79.7178C23.9496 80.8892 22.0505 80.8891 20.8789 79.7178C19.7074 78.5463 19.7075 76.6472 20.8789 75.4756L22.293 74.0615L22.4043 73.9551ZM50 8C51.6569 8 53 9.34315 53 11V42.583C55.9316 43.7699 58 46.6428 58 50C58 51.1329 57.7626 52.2099 57.3379 53.1865L69.8076 66.6143C70.935 67.8284 70.8645 69.7271 69.6504 70.8545C68.4363 71.9818 66.5375 71.9114 65.4102 70.6973L53.0566 57.3926C52.1146 57.7825 51.0829 58 50 58C45.5817 58 42 54.4183 42 50C42 46.6428 44.0684 43.7699 47 42.583V11C47 9.34315 48.3431 8 50 8ZM12.9834 47C14.6401 46.9908 15.9907 48.3267 16 49.9834C16.0092 51.6401 14.6733 52.9907 13.0166 53L11.0166 53.0107C9.35998 53.0199 8.00943 51.6849 8 50.0283C7.9907 48.3715 9.32657 47.021 10.9834 47.0117L12.9834 47ZM88.9824 46.9766C90.6392 46.9669 91.9903 48.3022 92 49.959C92.0097 51.6158 90.6744 52.9669 89.0176 52.9766L87.0176 52.9883L86.8633 52.9854C85.2777 52.9143 84.0094 51.6109 84 50.0059C83.9906 48.4008 85.2435 47.0828 86.8281 46.9932L86.9824 46.9883L88.9824 46.9766ZM50 48C48.8954 48 48 48.8954 48 50C48 51.1046 48.8954 52 50 52C51.1046 52 52 51.1046 52 50C52 48.8954 51.1046 48 50 48ZM73.9619 20.1875C75.1394 19.1233 76.9577 19.1582 78.0928 20.293C79.2279 21.4278 79.2632 23.2461 78.1992 24.4238L78.0928 24.5361L76.6787 25.9502C75.5073 27.1217 73.6081 27.1216 72.4365 25.9502C71.2651 24.7787 71.2652 22.8796 72.4365 21.708L73.8506 20.2939L73.9619 20.1875ZM20.8506 20.293C21.9854 19.1579 23.8037 19.1226 24.9814 20.1865L25.0938 20.293L26.5078 21.707C27.6793 22.8785 27.6792 24.7776 26.5078 25.9492C25.3364 27.1207 23.4372 27.1206 22.2656 25.9492L20.8516 24.5352L20.7451 24.4238C19.6809 23.2463 19.7158 21.4281 20.8506 20.293Z" fill="black"/>
</g>
<defs>
<clipPath id="clip0_5556_139980">
<rect width="100" height="100" fill="white"/>
</clipPath>
</defs>
</svg>
