<svg width="100" height="100" viewBox="0 0 100 100" fill="none" xmlns="http://www.w3.org/2000/svg">
<g clip-path="url(#clip0_5559_140474)">
<path d="M46.1426 46.1421L32 31" stroke="black" stroke-width="6" stroke-linecap="round"/>
<circle cx="50" cy="50" r="5" stroke="black" stroke-width="6"/>
<path d="M50 13V11" stroke="black" stroke-width="6" stroke-linecap="round"/>
<path d="M50 89V87" stroke="black" stroke-width="6" stroke-linecap="round"/>
<path d="M13 50L11 50.0112" stroke="black" stroke-width="6" stroke-linecap="round"/>
<path d="M23 77.5967L24.4141 76.1823" stroke="black" stroke-width="6" stroke-linecap="round"/>
<path d="M74.5576 23.8291L75.9717 22.4147" stroke="black" stroke-width="6" stroke-linecap="round"/>
<path d="M24.3867 23.8281L22.9723 22.4141" stroke="black" stroke-width="6" stroke-linecap="round"/>
<path d="M50 13V43" stroke="black" stroke-width="6" stroke-linecap="round"/>
<path d="M50 0C73.6583 0 93.4778 16.4315 98.6711 38.5047C99.099 40.3233 97.6688 42 95.8005 42C94.3359 42 93.0912 40.9495 92.7439 39.5267C88.045 20.2827 70.6913 6 50 6C25.6995 6 6 25.6995 6 50C6 74.3005 25.6995 94 50 94C51.6245 94 53 95.2734 53 96.8979V97.0927C53 98.675 51.7666 99.9937 50.1843 99.9997C50.1229 99.9999 50.0615 100 50 100C22.3858 100 0 77.6142 0 50C0 22.3858 22.3858 0 50 0Z" fill="black"/>
<mask id="path-11-inside-1_5559_140474" fill="white">
<path d="M90 69C91.1045 69 91.9999 69.8955 92 71V89.8799H91.9746C91.5333 95.0555 85.2219 99.1602 77.5 99.1602C69.7781 99.1602 63.4667 95.0555 63.0254 89.8799H63V71C63.0001 69.8955 63.8955 69 65 69H90Z"/>
</mask>
<path d="M92 71H98V70.9995L92 71ZM92 89.8799V95.8799H98V89.8799H92ZM91.9746 89.8799V83.8799H86.4645L85.9963 89.3701L91.9746 89.8799ZM77.5 99.1602V105.16V99.1602ZM63.0254 89.8799L69.0037 89.3701L68.5355 83.8799H63.0254V89.8799ZM63 89.8799H57V95.8799H63V89.8799ZM63 71L57 70.9995V71H63ZM90 69V75C87.7904 75 86.0002 73.2089 86 71.0005L92 71L98 70.9995C97.9997 66.5821 94.4187 63 90 63V69ZM92 71H86V89.8799H92H98V71H92ZM92 89.8799V83.8799H91.9746V89.8799V95.8799H92V89.8799ZM91.9746 89.8799L85.9963 89.3701C85.9803 89.5573 85.7827 90.4095 84.2191 91.4163C82.7008 92.394 80.3489 93.1602 77.5 93.1602V99.1602V105.16C82.373 105.16 87.0377 103.874 90.7159 101.505C94.3489 99.1661 97.5275 95.3782 97.9529 90.3897L91.9746 89.8799ZM77.5 99.1602V93.1602C74.6511 93.1602 72.2992 92.394 70.7809 91.4163C69.2173 90.4095 69.0197 89.5573 69.0037 89.3701L63.0254 89.8799L57.0471 90.3897C57.4725 95.3782 60.6511 99.1661 64.2841 101.505C67.9623 103.874 72.627 105.16 77.5 105.16V99.1602ZM63.0254 89.8799V83.8799H63V89.8799V95.8799H63.0254V89.8799ZM63 89.8799H69V71H63H57V89.8799H63ZM63 71L69 71.0005C68.9998 73.2089 67.2096 75 65 75V69V63C60.5813 63 57.0003 66.5821 57 70.9995L63 71ZM65 69V75H90V69V63H65V69Z" fill="black" mask="url(#path-11-inside-1_5559_140474)"/>
<path d="M78.5717 63.5L76.8526 59.7659C76.6271 59.2762 76.609 58.7162 76.8021 58.2128L78.2273 54.5L79.5452 51.8979C79.8313 51.333 79.833 50.6661 79.5499 50.0998L77.5 46" stroke="black" stroke-width="6" stroke-linecap="round"/>
<path d="M87.7531 63.5L86.1406 60.6373C85.7513 59.9462 85.8073 59.0903 86.2832 58.4557L87 57.5L87.9739 55.8769C88.3043 55.3262 88.3501 54.6503 88.0972 54.0601L87 51.5" stroke="black" stroke-width="6" stroke-linecap="round"/>
<path d="M69 64L67.7486 62.4358C67.2877 61.8597 67.1814 61.0766 67.4721 60.3985L68.5 58L69.4472 56.1056C69.786 55.428 69.7129 54.6172 69.2584 54.0111L68.5 53" stroke="black" stroke-width="6" stroke-linecap="round"/>
<path d="M92 73C96.4617 73.2588 100 76.9588 100 81.4854C100 86.0119 96.4617 89.7109 92 89.9697V83.9346C93.141 83.7029 94 82.6948 94 81.4854C94 80.2759 93.1411 79.2668 92 79.0352V73Z" fill="black"/>
<path d="M91 97H65" stroke="black" stroke-width="6" stroke-linecap="round"/>
</g>
<defs>
<clipPath id="clip0_5559_140474">
<rect width="100" height="100" fill="white"/>
</clipPath>
</defs>
</svg>
