<svg width="100" height="80" viewBox="0 0 100 80" fill="none" xmlns="http://www.w3.org/2000/svg">
<path d="M85 19C93.2843 19 100 25.7157 100 34V51C100 59.2843 93.2843 66 85 66C84.7349 66 84.5559 66.2705 84.6592 66.5146L88.6641 75.9854C89.4026 77.7329 87.5198 79.431 85.8574 78.5166L63.3359 66.124C63.1883 66.0428 63.022 66 62.8535 66H48C42.4382 66 37.5834 62.973 34.9932 58.4766L41.3643 53.2285C41.5433 53.081 41.769 53 42.001 53H63C71.2843 53 78 46.2843 78 38V19H85Z" fill="black"/>
<mask id="path-2-inside-1_5610_41773" fill="white">
<path d="M58 0C66.2843 0 73 6.71573 73 15V34C73 42.2843 66.2843 49 58 49H39.3327C39.094 49 38.8633 49.0853 38.6821 49.2406L19.4463 65.7197C14.8324 69.6724 7.94005 65.0513 9.84473 59.2822L12.8872 50.0674C13.0859 49.4653 12.6799 48.8341 12.0581 48.7104C5.18248 47.3432 7.07479e-08 41.2773 0 34V15C0 6.71573 6.71573 2.33543e-07 15 0H58Z"/>
</mask>
<path d="M73 15L79 15L73 15ZM58 49L58 55L58 55L58 49ZM19.4463 65.7197L23.3498 70.2763L23.3499 70.2763L19.4463 65.7197ZM9.84473 59.2822L4.14724 57.4011L4.14721 57.4012L9.84473 59.2822ZM0 34L-6 34L0 34ZM15 0L15 -6L15 -6L15 0ZM12.8872 50.0674L7.18967 48.1863L12.8872 50.0674ZM12.0581 48.7104L10.8878 54.5952L12.0581 48.7104ZM38.6821 49.2406L42.5856 53.7971L38.6821 49.2406ZM58 0V6C62.9706 6 67 10.0294 67 15L73 15L79 15C79 3.40202 69.598 -6 58 -6V0ZM73 15H67V34H73H79V15H73ZM73 34H67C67 38.9706 62.9706 43 58 43L58 49L58 55C69.598 55 79 45.598 79 34H73ZM58 49V43H39.3327V49V55H58V49ZM38.6821 49.2406L34.7785 44.684L15.5427 61.1632L19.4463 65.7197L23.3499 70.2763L42.5856 53.7971L38.6821 49.2406ZM19.4463 65.7197L15.5428 61.1631C15.5236 61.1796 15.5081 61.1915 15.4967 61.1997C15.4852 61.208 15.4772 61.213 15.4728 61.2157C15.4684 61.2183 15.4669 61.219 15.4682 61.2183C15.4696 61.2176 15.4732 61.216 15.4788 61.2138C15.4845 61.2116 15.4915 61.2092 15.4998 61.2068C15.508 61.2045 15.5169 61.2023 15.5262 61.2005C15.5451 61.1968 15.5627 61.195 15.5778 61.1946C15.6079 61.1939 15.6177 61.1986 15.6068 61.1953C15.6014 61.1937 15.5924 61.1905 15.5805 61.1849C15.5686 61.1792 15.5555 61.1719 15.5423 61.1631C15.5291 61.1542 15.5174 61.1449 15.5077 61.1361C15.498 61.1272 15.4916 61.1201 15.4881 61.1157C15.4809 61.1069 15.489 61.1142 15.4998 61.1425C15.5052 61.1566 15.5102 61.1736 15.514 61.1925C15.5158 61.2018 15.5172 61.2108 15.5181 61.2194C15.5191 61.228 15.5195 61.2354 15.5197 61.2415C15.5198 61.2476 15.5196 61.2515 15.5195 61.253C15.5194 61.2546 15.5195 61.2529 15.5202 61.2479C15.521 61.2428 15.5226 61.2335 15.5259 61.2198C15.5292 61.2061 15.5343 61.1873 15.5422 61.1633L9.84473 59.2822L4.14721 57.4012C0.33751 68.9404 14.1228 78.1809 23.3498 70.2763L19.4463 65.7197ZM9.84473 59.2822L15.5422 61.1633L18.5846 51.9485L12.8872 50.0674L7.18967 48.1863L4.14724 57.4011L9.84473 59.2822ZM12.0581 48.7104L13.2283 42.8256C9.10521 42.0057 6 38.359 6 34L0 34L-6 34C-6 44.1957 1.25976 52.6806 10.8878 54.5952L12.0581 48.7104ZM0 34H6V15H0H-6V34H0ZM0 15H6C6 10.0294 10.0294 6 15 6L15 0L15 -6C3.40202 -6 -6 3.40202 -6 15H0ZM15 0V6H58V0V-6H15V0ZM12.8872 50.0674L18.5846 51.9485C20.0186 47.6055 17.049 43.5854 13.2283 42.8256L12.0581 48.7104L10.8878 54.5952C8.31078 54.0827 6.15332 51.3251 7.18967 48.1863L12.8872 50.0674ZM39.3327 49V43C37.6623 43 36.047 43.5973 34.7785 44.684L38.6821 49.2406L42.5856 53.7971C41.6796 54.5734 40.5258 55 39.3327 55V49Z" fill="black" mask="url(#path-2-inside-1_5610_41773)"/>
<circle cx="47" cy="24" r="3" fill="black"/>
<circle cx="37" cy="24" r="3" fill="black"/>
<circle cx="27" cy="24" r="3" fill="black"/>
</svg>
