<svg width="100" height="80" viewBox="0 0 100 80" fill="none" xmlns="http://www.w3.org/2000/svg">
<g clip-path="url(#clip0_5607_38890)">
<mask id="path-1-inside-1_5607_38890" fill="white">
<path d="M75 0C88.8071 0 100 11.1929 100 25V41C100 54.8071 88.8071 66 75 66H36.1303C35.9363 66 35.7465 66.0564 35.584 66.1624L15.7559 79.0938C10.6505 82.4233 4.4082 76.9021 7.08984 71.4287L11.2482 62.9398C11.4726 62.4817 11.3148 61.9298 10.8939 61.6416C4.31634 57.1381 0 49.5735 0 41V25C0 11.1929 11.1929 0 25 0H75Z"/>
</mask>
<path d="M15.7559 79.0938L12.4783 74.0681L12.4783 74.0681L15.7559 79.0938ZM7.08984 71.4287L12.4779 74.0686L12.4781 74.0682L7.08984 71.4287ZM11.2482 62.9398L5.85997 60.3004L11.2482 62.9398ZM10.8939 61.6416L7.5042 66.5924L10.8939 61.6416ZM35.584 66.1624L38.8616 71.1881L35.584 66.1624ZM75 0V6C85.4934 6 94 14.5066 94 25H100H106C106 7.87917 92.1208 -6 75 -6V0ZM100 25H94V41H100H106V25H100ZM100 41H94C94 51.4934 85.4934 60 75 60V66V72C92.1208 72 106 58.1208 106 41H100ZM75 66V60H36.1303V66V72H75V66ZM35.584 66.1624L32.3064 61.1367L12.4783 74.0681L15.7559 79.0938L19.0335 84.1194L38.8616 71.1881L35.584 66.1624ZM15.7559 79.0938L12.4783 74.0681C12.4568 74.0821 12.4397 74.092 12.4272 74.0987C12.4146 74.1055 12.4059 74.1095 12.4011 74.1116C12.3963 74.1137 12.3947 74.1141 12.3961 74.1137C12.3976 74.1132 12.4014 74.112 12.4073 74.1106C12.4133 74.1091 12.4206 74.1076 12.4292 74.1064C12.4378 74.1051 12.447 74.1041 12.4565 74.1035C12.476 74.1023 12.4939 74.1029 12.509 74.1045C12.5394 74.1077 12.5486 74.1138 12.5381 74.1091C12.533 74.1067 12.5243 74.1023 12.5131 74.0951C12.502 74.0878 12.4899 74.0787 12.4779 74.0681C12.4658 74.0574 12.4554 74.0466 12.4468 74.0364C12.4383 74.0262 12.4328 74.0182 12.4299 74.0134C12.4239 74.0036 12.4311 74.0121 12.4381 74.0419C12.4415 74.0568 12.4443 74.0745 12.4455 74.094C12.4461 74.1036 12.4462 74.1129 12.446 74.1216C12.4458 74.1303 12.4452 74.1378 12.4445 74.1439C12.4438 74.15 12.4431 74.1539 12.4428 74.1555C12.4424 74.157 12.4427 74.1553 12.4442 74.1503C12.4457 74.1453 12.4486 74.1362 12.4537 74.123C12.4589 74.1097 12.4667 74.0915 12.4779 74.0686L7.08984 71.4287L1.70178 68.7889C-3.66223 79.7371 8.82406 90.7777 19.0335 84.1194L15.7559 79.0938ZM7.08984 71.4287L12.4781 74.0682L16.6364 65.5793L11.2482 62.9398L5.85997 60.3004L1.7016 68.7892L7.08984 71.4287ZM10.8939 61.6416L14.2836 56.6908C9.26933 53.2577 6 47.5099 6 41H0H-6C-6 51.6371 -0.636653 61.0185 7.5042 66.5924L10.8939 61.6416ZM0 41H6V25H0H-6V41H0ZM0 25H6C6 14.5066 14.5066 6 25 6V0V-6C7.87917 -6 -6 7.87917 -6 25H0ZM25 0V6H75V0V-6H25V0ZM11.2482 62.9398L16.6364 65.5793C18.2295 62.3272 17.0522 58.5864 14.2836 56.6908L10.8939 61.6416L7.5042 66.5924C5.57751 65.2732 4.71576 62.6361 5.85997 60.3004L11.2482 62.9398ZM36.1303 66V60C34.7724 60 33.4438 60.3949 32.3064 61.1367L35.584 66.1624L38.8616 71.1881C38.0492 71.7179 37.1002 72 36.1303 72V66Z" fill="black" mask="url(#path-1-inside-1_5607_38890)"/>
<circle cx="65" cy="33" r="4" fill="black"/>
<circle cx="50" cy="33" r="4" fill="black"/>
<circle cx="35" cy="33" r="4" fill="black"/>
</g>
<defs>
<clipPath id="clip0_5607_38890">
<rect width="100" height="80" fill="white"/>
</clipPath>
</defs>
</svg>
