<svg width="60" height="90" viewBox="0 0 60 90" fill="none" xmlns="http://www.w3.org/2000/svg">
<path d="M11.3636 67.5C17.6396 67.5 22.7273 72.5368 22.7273 78.75C22.7273 84.9632 17.6396 90 11.3636 90C5.08767 90 0 84.9632 0 78.75C0 72.5368 5.08767 67.5 11.3636 67.5ZM48.1818 67.5C54.7088 67.5 60 72.5368 60 78.75C60 84.9632 54.7088 90 48.1818 90C41.6548 90 36.3636 84.9632 36.3636 78.75C36.3636 72.5368 41.6548 67.5 48.1818 67.5ZM11.3636 33.3C17.6396 33.3 22.7273 38.5383 22.7273 45C22.7273 51.4617 17.6396 56.7 11.3636 56.7C5.08767 56.7 0 51.4617 0 45C0 38.5383 5.08767 33.3 11.3636 33.3ZM48.1818 33.3C54.7088 33.3 60 38.5383 60 45C60 51.4617 54.7088 56.7 48.1818 56.7C41.6548 56.7 36.3636 51.4617 36.3636 45C36.3636 38.5383 41.6548 33.3 48.1818 33.3ZM11.3636 0C17.6396 0 22.7273 5.0368 22.7273 11.25C22.7273 17.4632 17.6396 22.5 11.3636 22.5C5.08767 22.5 0 17.4632 0 11.25C0 5.0368 5.08767 0 11.3636 0ZM48.1818 0C54.7088 0 60 5.0368 60 11.25C60 17.4632 54.7088 22.5 48.1818 22.5C41.6548 22.5 36.3636 17.4632 36.3636 11.25C36.3636 5.0368 41.6548 0 48.1818 0Z" fill="white"/>
</svg>
