<svg width="66" height="100" viewBox="0 0 66 100" fill="none" xmlns="http://www.w3.org/2000/svg">
<path d="M12.5 75C19.4036 75 25 80.5964 25 87.5C25 94.4036 19.4036 100 12.5 100C5.59644 100 0 94.4036 0 87.5C0 80.5964 5.59644 75 12.5 75ZM53 75C60.1797 75 66 80.5964 66 87.5C66 94.4036 60.1797 100 53 100C45.8203 100 40 94.4036 40 87.5C40 80.5964 45.8203 75 53 75ZM12.5 37C19.4036 37 25 42.8203 25 50C25 57.1797 19.4036 63 12.5 63C5.59644 63 0 57.1797 0 50C0 42.8203 5.59644 37 12.5 37ZM53 37C60.1797 37 66 42.8203 66 50C66 57.1797 60.1797 63 53 63C45.8203 63 40 57.1797 40 50C40 42.8203 45.8203 37 53 37ZM12.5 0C19.4036 0 25 5.59644 25 12.5C25 19.4036 19.4036 25 12.5 25C5.59644 25 0 19.4036 0 12.5C0 5.59644 5.59644 0 12.5 0ZM53 0C60.1797 0 66 5.59644 66 12.5C66 19.4036 60.1797 25 53 25C45.8203 25 40 19.4036 40 12.5C40 5.59644 45.8203 0 53 0Z" fill="black"/>
</svg>
