<svg width="80" height="100" viewBox="0 0 80 100" fill="none" xmlns="http://www.w3.org/2000/svg">
<g clip-path="url(#clip0_5594_1491)">
<path d="M3 7.7207C3.00005 5.76339 4.84451 4.33013 6.74121 4.81348L35.7412 12.2041C37.07 12.5429 38 13.74 38 15.1113V93.2793C38 95.1756 36.2692 96.5793 34.4365 96.2256L34.2588 96.1865L5.25879 88.7959C3.92996 88.4571 3 87.26 3 85.8887V7.7207Z" stroke="black" stroke-width="6"/>
<path d="M56 59C57.6569 59 59 60.3431 59 62V85L58.9922 85.3086C58.8367 88.3767 56.3767 90.8367 53.3086 90.9922L53 91H41V85H50C51.6569 85 53 83.6569 53 82V62C53 60.3431 54.3431 59 56 59ZM53.3086 0.0078125C56.4789 0.16843 59 2.78979 59 6V29C59 30.6569 57.6569 32 56 32C54.3431 32 53 30.6569 53 29V9C53 7.34315 51.6569 6 50 6H23.5449L7.48145 1.90625C3.68812 0.939765 4.69374e-05 3.80615 0 7.7207V6C0 2.78979 2.52111 0.168429 5.69141 0.0078125L6 0H53L53.3086 0.0078125Z" fill="black"/>
<path d="M64.5986 33.8789C65.7335 32.7442 67.5509 32.7079 68.7285 33.7715L68.8408 33.8789L78.79 43.8281C79.3887 44.4268 79.6792 45.2154 79.666 46C79.6793 46.7846 79.3887 47.5731 78.79 48.1719L68.8408 58.1211L68.7285 58.2285C67.5508 59.2923 65.7335 59.256 64.5986 58.1211C63.4638 56.9862 63.4275 55.1689 64.4912 53.9912L64.5986 53.8789L69.4775 49H49C47.3431 49 46 47.6569 46 46C46.0001 44.3432 47.3432 43 49 43H69.4775L64.5986 38.1211L64.4912 38.0088C63.4276 36.8311 63.4638 35.0137 64.5986 33.8789Z" fill="black"/>
<path d="M28 51V56" stroke="black" stroke-width="6" stroke-linecap="round"/>
</g>
<defs>
<clipPath id="clip0_5594_1491">
<rect width="80" height="100" fill="white"/>
</clipPath>
</defs>
</svg>
