<svg width="105" height="100" viewBox="0 0 105 100" fill="none" xmlns="http://www.w3.org/2000/svg">
<g clip-path="url(#clip0_5690_1798)">
<path d="M47.0117 0.0419922C47.5712 0.0421024 48.1083 0.264538 48.5039 0.660156C50.2077 2.364 51.1666 4.53056 51.3828 6.75488L51.3916 6.90332C51.4291 8.42115 49.7267 9.23729 48.1562 9.2373H47.9785C43.7405 9.23731 40.3039 12.6732 40.3037 16.9111C40.3038 18.9761 40.323 21.2666 39.5488 23.127C39.7576 23.2718 39.9603 23.4301 40.1533 23.6045L40.377 23.8164L54.6592 38.0986L64.8037 27.9551H64.8086L65.5986 27.165C65.8965 26.8668 65.9987 26.4268 65.8828 26.0215C64.01 19.4747 65.8524 11.8738 71.2969 6.42871C76.1555 1.57015 82.7309 -0.420628 88.7422 0.537109C92.5112 1.13794 93.0758 5.70155 90.377 8.40039L85.5625 13.2139C84.1511 14.6256 84.1511 16.9144 85.5625 18.3262C86.9743 19.738 89.2639 19.738 90.6758 18.3262L95.4902 13.5117L95.748 13.2686C98.3821 10.9297 102.495 11.4574 103.285 14.8027L103.354 15.1465C104.312 21.1583 102.321 27.7349 97.4619 32.5938C93.0562 36.999 87.2381 39.0467 81.71 38.6758L81.1758 38.6318C78.9813 38.4219 76.6965 38.9217 75.1377 40.4805L66.2119 49.4062H66.208L37.1211 78.4932C35.6675 79.9468 35.1523 82.0365 35.1807 84.0967L35.1943 84.5068C35.391 88.584 33.9318 92.727 30.8184 95.8408C24.9605 101.698 15.4623 101.698 9.60449 95.8408C3.74742 89.9831 3.74739 80.4856 9.60449 74.6279C12.3193 71.9134 15.8165 70.458 19.3701 70.2598C21.2591 70.1544 23.1563 69.6023 24.4941 68.2646L43.0986 49.6592L28.8174 35.377L28.6045 35.1533C28.5208 35.0607 28.4411 34.9655 28.3643 34.8691C27.4868 35.4794 26.3424 35.6047 25.3408 35.1631C22.7479 34.0201 20.1038 36.6639 21.2471 39.2568C21.7638 40.429 21.5083 41.7982 20.6025 42.7041L19.5146 43.792C17.4247 45.8815 14.0362 45.8816 11.9463 43.792L1.73438 33.5801C-0.328472 31.5169 -0.328468 28.1716 1.73438 26.1084L2.74219 25.1016C3.67654 24.1672 5.08875 23.9026 6.29785 24.4355C8.97226 25.6147 11.6992 22.8883 10.5205 20.2139C9.98741 19.0048 10.2512 17.5917 11.1855 16.6572L24.8721 2.9707C26.7473 1.0957 29.2906 0.0421186 31.9424 0.0419922H47.0117ZM102.525 85.9648L102.739 86.1895C104.867 88.5447 104.795 92.1805 102.525 94.4502L99.4502 97.5254L99.2266 97.7383C96.9474 99.797 93.4686 99.7971 91.1895 97.7383L90.9648 97.5254L98.2832 90.208L61.8457 53.7705L66.0889 49.5283L102.525 85.9648ZM95.208 93.2822L90.9648 97.5254L54.5283 61.0889L58.7705 56.8457L95.208 93.2822ZM83.8496 6.44141C80.9136 6.86303 77.9594 8.25258 75.54 10.6719C71.5876 14.6249 70.397 19.986 71.6514 24.3711C72.3311 26.7472 71.77 29.4788 69.8408 31.4082L69.0508 32.1982C69.0235 32.2255 68.9944 32.2517 68.9668 32.2783L28.7363 72.5078C25.9565 75.2874 22.385 76.1005 19.7041 76.25C17.6999 76.3618 15.7394 77.1333 14.1582 78.5732L13.8477 78.8701C10.4432 82.2749 10.3365 87.7297 13.5283 91.2627L13.8477 91.5986C17.2525 95.003 22.7074 95.1089 26.2402 91.917L26.5752 91.5986C28.4429 89.7307 29.3196 87.2555 29.2012 84.7969C29.0536 81.7363 29.6545 77.4754 32.8789 74.251L61.9648 45.1641C61.992 45.1369 62.0213 45.1115 62.0488 45.085L70.8955 36.2383C74.1255 33.0084 78.4325 32.3429 81.748 32.6602C85.6346 33.0319 89.9255 31.6434 93.2188 28.3506C95.6386 25.9307 97.0282 22.9753 97.4492 20.0381L94.918 22.5693C91.163 26.324 85.0752 26.324 81.3203 22.5693C77.5653 18.8144 77.5653 12.7257 81.3203 8.9707L83.8496 6.44141ZM19.999 81C22.2082 81 23.999 82.7909 23.999 85C23.999 87.2091 22.2082 89 19.999 89C17.79 88.9998 15.999 87.209 15.999 85C15.999 82.791 17.79 81.0002 19.999 81ZM33.0596 31.1348L47.3418 45.416L50.417 42.3418L36.1348 28.0596L33.0596 31.1348ZM31.9434 6.04297C30.8825 6.04301 29.8642 6.46403 29.1143 7.21387L16.626 19.7021C17.8528 25.5352 13.0772 30.9026 7.37109 30.7314L14.9629 38.3232C14.7268 32.6636 20.0082 27.895 25.7773 29.0439L34.0156 20.8057C34.0456 20.7304 34.1038 20.5584 34.1582 20.2383C34.2961 19.4264 34.3037 18.4576 34.3037 16.9121L34.3047 16.9111C34.3048 12.4789 36.4135 8.53954 39.6826 6.04102L31.9434 6.04297ZM61.0195 32.6104C61.0282 32.6174 61.0382 32.6238 61.0469 32.6309C61.0314 32.6184 61.0154 32.6064 61 32.5938L61.0195 32.6104Z" fill="White"/>
</g>
<defs>
<clipPath id="clip0_5690_1798">
<rect width="105" height="100" fill="white"/>
</clipPath>
</defs>
</svg>
