<svg width="90" height="90" viewBox="0 0 90 90" fill="none" xmlns="http://www.w3.org/2000/svg">
<path d="M51.9412 2.75686C54.2112 0.487084 57.8476 0.41684 60.2029 2.54495L60.4265 2.75686L87.9851 30.3155L88.198 30.5391C90.326 32.8943 90.2549 36.5309 87.9851 38.8008L38.8006 87.9854L38.5769 88.1983C36.2976 90.2578 32.8182 90.2577 30.5388 88.1983L30.3152 87.9854L2.75661 60.4268L6.99977 56.1846L34.5574 83.7422L48.6502 69.6504L21.0916 42.0918L2.75661 60.4268L2.54469 60.2031C0.485125 57.9238 0.48508 54.4454 2.54469 52.166L2.75661 51.9424L51.9412 2.75686ZM25.3338 37.8496L52.8923 65.4073L83.7429 34.5586L56.1843 7.00002L25.3338 37.8496Z" fill="black"/>
</svg>
