<svg width="80" height="100" viewBox="0 0 80 100" fill="none" xmlns="http://www.w3.org/2000/svg">
<g clip-path="url(#clip0_5611_41936)">
<path d="M25 30C26.1046 30 27 30.8954 27 32V34C27 35.1046 26.1046 36 25 36H8C6.89543 36 6 36.8954 6 38V92C6 93.1046 6.89543 94 8 94H72C73.1046 94 74 93.1046 74 92V38C74 36.8954 73.1046 36 72 36H55C53.8954 36 53 35.1046 53 34V32C53 30.8954 53.8954 30 55 30H74L74.3086 30.0078C77.4789 30.1684 80 32.7898 80 36V94L79.9922 94.3086C79.8367 97.3767 77.3767 99.8367 74.3086 99.9922L74 100H6L5.69141 99.9922C2.62332 99.8367 0.163251 97.3767 0.0078125 94.3086L0 94V36C0 32.7898 2.52111 30.1684 5.69141 30.0078L6 30H25ZM39.8496 0C40.0418 -0.000424611 40.2299 0.0176244 40.4121 0.0517578C40.4221 0.053627 40.4324 0.0546799 40.4424 0.0566406C40.4936 0.0667773 40.5435 0.0820124 40.5938 0.0947266C40.6412 0.106703 40.6894 0.116539 40.7363 0.130859C40.7541 0.136306 40.7714 0.143638 40.7891 0.149414C40.8637 0.173728 40.9379 0.200158 41.0107 0.230469C41.0309 0.238871 41.0504 0.24898 41.0703 0.257812C41.1393 0.288308 41.2084 0.319521 41.2754 0.355469C41.2913 0.364013 41.3066 0.373985 41.3223 0.382812C41.5571 0.514438 41.7788 0.679167 41.9785 0.878906C42.176 1.07644 42.3388 1.29541 42.4697 1.52734C42.4782 1.54242 42.4878 1.55703 42.4961 1.57227C42.5015 1.58225 42.5084 1.59154 42.5137 1.60156L58.0527 17.1416L58.1592 17.2539C59.2233 18.4316 59.1877 20.2498 58.0527 21.3848C56.9177 22.5194 55.0994 22.5552 53.9219 21.4912L53.8105 21.3848L42.874 10.4473L43.001 64.9932L42.9971 65.1484C42.92 66.7333 41.6126 67.9962 40.0078 68C38.403 68.0036 37.0892 66.7467 37.0049 65.1621L37.001 65.0068L36.874 10.2256L25.7148 21.3848L25.6035 21.4912C24.4259 22.5551 22.6076 22.5196 21.4727 21.3848C20.3378 20.2498 20.3024 18.4315 21.3662 17.2539L21.4727 17.1416L37.0137 1.60156C37.1507 1.34168 37.3283 1.09756 37.5469 0.878906C38.1487 0.277067 38.9428 -0.0135632 39.7314 0.00292969C39.7705 0.00133173 39.8102 9.52581e-05 39.8496 0Z" fill="white"/>
</g>
<defs>
<clipPath id="clip0_5611_41936">
<rect width="80" height="100" fill="white"/>
</clipPath>
</defs>
</svg>
