<svg width="100" height="80" viewBox="0 0 100 80" fill="none" xmlns="http://www.w3.org/2000/svg">
<mask id="path-1-inside-1_5688_1499" fill="white">
<path d="M49.8428 10C72.2895 10 91.5361 22.1747 99.6846 39.5C91.5361 56.8253 72.2895 69 49.8428 69C27.3959 69 8.14835 56.8255 0 39.5C8.14835 22.1745 27.3959 10 49.8428 10Z"/>
</mask>
<path d="M99.6846 39.5L105.114 42.0536L106.315 39.5L105.114 36.9464L99.6846 39.5ZM0 39.5L-5.4295 36.9465L-6.63045 39.5L-5.4295 42.0535L0 39.5ZM49.8428 10V16C70.1849 16 87.1863 27.0239 94.2551 42.0536L99.6846 39.5L105.114 36.9464C95.8859 17.3254 74.3941 4 49.8428 4V10ZM99.6846 39.5L94.2551 36.9464C87.1863 51.9761 70.1849 63 49.8428 63V69V75C74.3941 75 95.8859 61.6746 105.114 42.0536L99.6846 39.5ZM49.8428 69V63C29.5003 63 12.4981 51.9761 5.4295 36.9465L0 39.5L-5.4295 42.0535C3.79862 61.6749 25.2914 75 49.8428 75V69ZM0 39.5L5.4295 42.0535C12.4981 27.0239 29.5003 16 49.8428 16V10V4C25.2914 4 3.79862 17.3251 -5.4295 36.9465L0 39.5Z" fill="blue" mask="url(#path-1-inside-1_5688_1499)"/>
<circle cx="50" cy="40" r="14" stroke="blue" stroke-width="6"/>
</svg>
