<svg width="100" height="80" viewBox="0 0 100 80" fill="none" xmlns="http://www.w3.org/2000/svg">
<path d="M49.8428 10C72.2895 10 91.5361 22.1747 99.6846 39.5C91.5361 56.8253 72.2895 69 49.8428 69C27.3959 69 8.14835 56.8255 0 39.5C8.14835 22.1745 27.3959 10 49.8428 10ZM49.8428 16C30.6713 16 14.4679 25.792 6.74902 39.5C14.4679 53.208 30.6713 63 49.8428 63C69.0137 63 85.2155 53.2077 92.9346 39.5C85.2155 25.7923 69.0137 16 49.8428 16ZM50 23C59.3888 23 67 30.6112 67 40C67 49.3888 59.3888 57 50 57C40.6112 57 33 49.3888 33 40C33 30.6112 40.6112 23 50 23ZM50 29C43.9249 29 39 33.9249 39 40C39 46.0751 43.9249 51 50 51C56.0751 51 61 46.0751 61 40C61 33.9249 56.0751 29 50 29Z" fill="black"/>
</svg>
