<svg width="100" height="80" viewBox="0 0 100 80" fill="none" xmlns="http://www.w3.org/2000/svg">
<path d="M24.0801 22.5654C16.6315 26.7295 10.6221 32.6217 6.74902 39.5C14.4679 53.208 30.6713 63 49.8428 63C54.3986 63 58.7862 62.4451 62.9326 61.418L67.7969 66.2822C62.1798 68.042 56.1372 69 49.8428 69C27.3959 69 8.14835 56.8255 0 39.5C4.09459 30.7938 10.9919 23.3884 19.6895 18.1748L24.0801 22.5654ZM49.8428 10C72.2895 10 91.5361 22.1747 99.6846 39.5C95.5226 48.3492 88.4646 55.8533 79.5645 61.0791L75.1621 56.6768C82.8143 52.5004 88.9852 46.5135 92.9346 39.5C85.2155 25.7923 69.0137 16 49.8428 16C45.0857 16 40.5114 16.6027 36.2041 17.7188L31.3691 12.8838C37.1326 11.0187 43.3538 10 49.8428 10ZM39.2373 37.7227C39.0826 38.4575 39 39.2191 39 40C39 46.0751 43.9249 51 50 51C50.7806 51 51.5417 50.9163 52.2764 50.7617L57.0068 55.4922C54.8702 56.4601 52.4983 57 50 57C40.6112 57 33 49.3888 33 40C33 37.5016 33.5388 35.1289 34.5068 32.9922L39.2373 37.7227ZM50 23C59.3888 23 67 30.6112 67 40C67 42.4983 66.4601 44.8702 65.4922 47.0068L60.7617 42.2764C60.9163 41.5417 61 40.7806 61 40C61 33.9249 56.0751 29 50 29C49.2191 29 48.4575 29.0826 47.7227 29.2373L42.9922 24.5068C45.1289 23.5388 47.5016 23 50 23Z" fill="black"/>
<path d="M15 5L85.7107 75.7107" stroke="black" stroke-width="6" stroke-linecap="round"/>
</svg>
