<svg width="118" height="80" viewBox="0 0 118 80" fill="none" xmlns="http://www.w3.org/2000/svg">
<g clip-path="url(#clip0_5600_15410)">
<path d="M93 27V17H45.7588L44.2002 13.3643L41.0439 6.00098V6H5V15C5 14.9945 4.99917 14.997 5.00098 15.0078L5.16797 16L5.00098 16.9932C4.99927 17.0034 5 17.0052 5 17V62.4717L17.6592 30.7744C18.5412 28.5662 20.6401 27.0937 23.002 27.0039L23.2314 27H93ZM5.90137 79.9219C6.05325 79.9458 6.20704 79.9651 6.36328 79.9775C6.20704 79.9651 6.05325 79.9458 5.90137 79.9219ZM1.73633 77.124C1.80962 77.244 1.88735 77.361 1.96875 77.4756C1.88734 77.361 1.80963 77.244 1.73633 77.124ZM6.85742 74H95.2686L111.643 33H23.2314L6.85742 74ZM112.037 27.0127C116.064 27.268 118.739 31.4081 117.215 35.2256L100.841 76.2256L100.752 76.4365C99.8235 78.5272 97.7839 79.9092 95.498 79.9961L95.2686 80H94.7637C94.206 80.1713 93.6138 80.2637 93 80.2637H5C1.68629 80.2637 -1 77.5774 -1 74.2637V17C-1 16.6592 -0.970593 16.3253 -0.916016 16C-0.970568 15.6748 -1 15.3407 -1 15V6C-0.999868 2.6864 1.68637 0 5 0H41.0439C43.444 0.000126871 45.6132 1.43071 46.5586 3.63672L49.7148 11H93C96.3137 11 99 13.6863 99 17V27H111.643L112.037 27.0127Z" fill="black"/>
</g>
<defs>
<clipPath id="clip0_5600_15410">
<rect width="118" height="80" rx="6" fill="white"/>
</clipPath>
</defs>
</svg>
