<svg width="100" height="80" viewBox="0 0 100 80" fill="none" xmlns="http://www.w3.org/2000/svg">
<g clip-path="url(#clip0_5600_15398)">
<mask id="path-2-inside-1_5600_15398" fill="white">
<path d="M35.9834 0C38.4863 0 40.7267 1.55411 41.6035 3.89844L43.6104 9.26367H94C97.3136 9.26367 99.9998 11.9501 100 15.2637V74.2637C100 77.5774 97.3137 80.2637 94 80.2637H6C2.68629 80.2637 0 77.5774 0 74.2637V15.2637C2.85445e-06 15.2196 0.00198147 15.1757 0.00292969 15.1318C0.00198433 15.088 1.92784e-09 15.0441 0 15V6C0 2.68629 2.68629 0 6 0H35.9834Z"/>
</mask>
<path d="M41.6035 3.89844L35.9837 6.00038L35.9838 6.00047L41.6035 3.89844ZM43.6104 9.26367L37.9906 11.3657L39.4486 15.2637H43.6104V9.26367ZM94 9.26367L94 3.26367H94V9.26367ZM100 15.2637L106 15.2637L106 15.2633L100 15.2637ZM94 80.2637L94 86.2637L94 86.2637L94 80.2637ZM6 80.2637L6 86.2637H6V80.2637ZM0 15.2637L-6 15.2633V15.2637H0ZM0.00292969 15.1318L6.00153 15.2616L6.00433 15.132L6.00154 15.0025L0.00292969 15.1318ZM0 15L-6 15L-6 15L0 15ZM35.9834 0V6L35.9837 6.00038L41.6035 3.89844L47.2233 1.7965C45.4697 -2.89194 40.9895 -6 35.9834 -6V0ZM41.6035 3.89844L35.9838 6.00047L37.9906 11.3657L43.6104 9.26367L49.2301 7.16164L47.2233 1.79641L41.6035 3.89844ZM43.6104 9.26367V15.2637H94V9.26367V3.26367H43.6104V9.26367ZM94 9.26367L94 15.2637L94 15.2641L100 15.2637L106 15.2633C106 8.63674 100.628 3.26367 94 3.26367L94 9.26367ZM100 15.2637H94V74.2637H100H106V15.2637H100ZM100 74.2637H94H94L94 80.2637L94 86.2637C100.627 86.2637 106 80.8911 106 74.2637H100ZM94 80.2637V74.2637H6V80.2637V86.2637H94V80.2637ZM6 80.2637L6 74.2637H6H0H-6C-6 80.8911 -0.627417 86.2637 6 86.2637L6 80.2637ZM0 74.2637H6V15.2637H0H-6V74.2637H0ZM0 15.2637L6 15.2641C6 15.2974 5.99963 15.3237 5.99933 15.3401C5.99917 15.3484 5.99903 15.3549 5.99893 15.359C5.99883 15.363 5.99877 15.3654 5.99877 15.3652C5.99878 15.3647 5.99883 15.3632 5.99897 15.3585C5.999 15.3574 5.99903 15.3562 5.99907 15.3548C5.99911 15.3535 5.99916 15.352 5.99921 15.3504C5.9993 15.3472 5.99942 15.3433 5.99954 15.339C5.99978 15.3306 6.0001 15.3194 6.00044 15.3067C6.00078 15.294 6.00116 15.2787 6.00153 15.2616L0.00292969 15.1318L-5.99567 15.0021C-5.99542 14.9909 -5.99522 14.9845 -5.9954 14.9904C-5.9955 14.9939 -5.99556 14.9961 -5.99579 15.0039C-5.99598 15.0102 -5.99626 15.0196 -5.99655 15.0302C-5.99763 15.0686 -5.99999 15.1567 -6 15.2633L0 15.2637ZM0.00292969 15.1318L6.00154 15.0025C6.00116 14.9853 6.00078 14.9699 6.00044 14.9571C6.00011 14.9443 5.99979 14.933 5.99954 14.9246C5.99942 14.9203 5.9993 14.9164 5.9992 14.9132C5.99916 14.9116 5.99911 14.91 5.99907 14.9087C5.99903 14.9073 5.999 14.9061 5.99896 14.905C5.99882 14.9003 5.99878 14.8988 5.99877 14.8983C5.99876 14.8981 5.99883 14.9004 5.99892 14.9045C5.99902 14.9086 5.99917 14.9151 5.99933 14.9235C5.99963 14.94 6 14.9665 6 15L0 15L-6 15C-6 15.1069 -5.99762 15.1953 -5.99655 15.2337C-5.99625 15.2442 -5.99597 15.2537 -5.99579 15.2599C-5.99556 15.2677 -5.99549 15.2699 -5.99539 15.2733C-5.99522 15.2791 -5.99543 15.2726 -5.99568 15.2612L0.00292969 15.1318ZM0 15H6V6H0H-6V15H0ZM0 6H6V0V-6C-0.627417 -6 -6 -0.627417 -6 6H0ZM6 0V6H35.9834V0V-6H6V0Z" fill="black" mask="url(#path-2-inside-1_5600_15398)"/>
</g>
<defs>
<clipPath id="clip0_5600_15398">
<rect width="100" height="80" rx="6" fill="white"/>
</clipPath>
</defs>
</svg>
