<svg width="90" height="90" viewBox="0 0 90 90" fill="none" xmlns="http://www.w3.org/2000/svg">
<g clip-path="url(#clip0_5600_23776)">
<circle cx="26" cy="77" r="10" stroke="black" stroke-width="6"/>
<circle cx="60" cy="45" r="10" stroke="black" stroke-width="6"/>
<circle cx="34" cy="13" r="10" stroke="black" stroke-width="6"/>
<path d="M13.3486 74C13.1211 74.9631 13 75.9674 13 77C13 78.0326 13.1211 79.0369 13.3486 80H3L2.8457 79.9961C1.26056 79.9158 0 78.6051 0 77C0 75.3949 1.26056 74.0842 2.8457 74.0039L3 74H13.3486ZM87 74C88.6569 74 90 75.3431 90 77C90 78.6569 88.6569 80 87 80H38.6514C38.8789 79.0369 39 78.0326 39 77C39 75.9674 38.8789 74.9631 38.6514 74H87Z" fill="black"/>
<path d="M47.3486 42C47.1211 42.9631 47 43.9674 47 45C47 46.0326 47.1211 47.0369 47.3486 48H3L2.8457 47.9961C1.26056 47.9158 0 46.6051 0 45C0 43.3949 1.26056 42.0842 2.8457 42.0039L3 42H47.3486ZM87 42C88.6569 42 90 43.3431 90 45C90 46.6569 88.6569 48 87 48H72.6514C72.8789 47.0369 73 46.0326 73 45C73 43.9674 72.8789 42.9631 72.6514 42H87Z" fill="black"/>
<path d="M21.3486 10C21.1211 10.9631 21 11.9674 21 13C21 14.0326 21.1211 15.0369 21.3486 16H3L2.8457 15.9961C1.26056 15.9158 0 14.6051 0 13C0 11.3949 1.26056 10.0842 2.8457 10.0039L3 10H21.3486ZM87 10C88.6569 10 90 11.3431 90 13C90 14.6569 88.6569 16 87 16H46.6514C46.8789 15.0369 47 14.0326 47 13C47 11.9674 46.8789 10.9631 46.6514 10H87Z" fill="black"/>
</g>
<defs>
<clipPath id="clip0_5600_23776">
<rect width="90" height="90" fill="white"/>
</clipPath>
</defs>
</svg>
