<svg width="90" height="90" viewBox="0 0 90 90" fill="none" xmlns="http://www.w3.org/2000/svg">
<mask id="path-1-inside-1_5610_41764" fill="white">
<path d="M82.6787 0.75C87.7213 0.750179 90.5143 6.59316 87.3477 10.5176L56 49.3672V76.3086C55.9999 78.3039 55.0082 80.1691 53.3535 81.2842L42.3535 88.6973C38.3684 91.3829 33.0003 88.5272 33 83.7217V49C33 48.7271 33.0194 48.4586 33.0547 48.1953L2.65234 10.5176C-0.514146 6.5932 2.27881 0.750295 7.32129 0.75H82.6787Z"/>
</mask>
<path d="M82.6787 0.75L82.6789 -5.25H82.6787V0.75ZM87.3477 10.5176L82.6782 6.7498L82.6782 6.7498L87.3477 10.5176ZM56 49.3672L51.3305 45.5994L50 47.2484V49.3672H56ZM56 76.3086L62 76.309V76.3086H56ZM53.3535 81.2842L56.7066 86.2598L56.7067 86.2598L53.3535 81.2842ZM42.3535 88.6973L45.7066 93.6729L45.7066 93.6729L42.3535 88.6973ZM33 83.7217L27 83.7217L27 83.7221L33 83.7217ZM33 49L27 49V49H33ZM33.0547 48.1953L39.0015 48.9926L39.3443 46.4354L37.7241 44.4275L33.0547 48.1953ZM2.65234 10.5176L-2.01717 14.2853L-2.0171 14.2854L2.65234 10.5176ZM7.32129 0.75L7.32129 -5.25L7.32094 -5.25L7.32129 0.75ZM82.6787 0.75L82.6785 6.75C82.7034 6.75 82.7171 6.75176 82.7214 6.75238C82.7256 6.75301 82.7238 6.75302 82.7175 6.7511C82.7112 6.74921 82.7033 6.74626 82.6946 6.74215C82.686 6.7381 82.6784 6.73375 82.6722 6.72967C82.6599 6.72149 82.6569 6.71698 82.6602 6.72089C82.6619 6.72283 82.6647 6.72636 82.6681 6.73158C82.6715 6.73681 82.675 6.74296 82.6783 6.7498C82.6816 6.75663 82.6841 6.76323 82.6861 6.76917C82.688 6.7751 82.689 6.7795 82.6895 6.78203C82.6904 6.78713 82.6888 6.78199 82.6902 6.76724C82.6909 6.7599 82.6922 6.75131 82.6945 6.74208C82.6967 6.73273 82.6994 6.72471 82.7019 6.71868C82.7044 6.71255 82.7055 6.7112 82.7033 6.71492C82.7011 6.71859 82.6938 6.73042 82.6782 6.7498L87.3477 10.5176L92.0171 14.2854C98.3501 6.43679 92.7645 -5.24964 82.6789 -5.25L82.6787 0.75ZM87.3477 10.5176L82.6782 6.7498L51.3305 45.5994L56 49.3672L60.6695 53.135L92.0171 14.2854L87.3477 10.5176ZM56 49.3672H50V76.3086H56H62V49.3672H56ZM56 76.3086L50 76.3082L50.0004 76.3086L53.3535 81.2842L56.7067 86.2598C60.017 84.0288 61.9997 80.2984 62 76.309L56 76.3086ZM53.3535 81.2842L50.0004 76.3086L39.0004 83.7217L42.3535 88.6973L45.7066 93.6729L56.7066 86.2598L53.3535 81.2842ZM42.3535 88.6973L39.0004 83.7217C38.9833 83.7332 38.9732 83.7383 38.9701 83.7398C38.967 83.7413 38.9683 83.7405 38.9735 83.7388C38.9787 83.7371 38.9855 83.7354 38.9934 83.734C39.0011 83.7327 39.0083 83.732 39.0143 83.7318C39.0265 83.7314 39.0307 83.733 39.0265 83.732C39.0244 83.7315 39.0209 83.7305 39.016 83.7287C39.0112 83.7268 39.0059 83.7245 39.0003 83.7215C38.9948 83.7186 38.9898 83.7155 38.9856 83.7125C38.9814 83.7095 38.9786 83.7071 38.977 83.7056C38.9738 83.7027 38.9774 83.7052 38.9839 83.7155C38.9871 83.7207 38.9905 83.727 38.9937 83.7341C38.997 83.7413 38.9993 83.7479 39.0008 83.7531C39.0024 83.7584 39.0024 83.7599 39.0019 83.7565C39.0014 83.7531 39 83.7418 39 83.7212L33 83.7217L27 83.7221C27.0007 93.3327 37.736 99.0444 45.7066 93.6729L42.3535 88.6973ZM33 83.7217H39V49H33H27V83.7217H33ZM33 49L39 49C39 49.0117 38.9991 49.01 39.0015 48.9926L33.0547 48.1953L27.1079 47.3981C27.0396 47.9071 27 48.4424 27 49L33 49ZM33.0547 48.1953L37.7241 44.4275L7.32179 6.74978L2.65234 10.5176L-2.0171 14.2854L28.3852 51.9631L33.0547 48.1953ZM2.65234 10.5176L7.32185 6.74986C7.30622 6.73049 7.29894 6.71867 7.29678 6.715C7.2946 6.71129 7.29571 6.71265 7.2982 6.71877C7.30064 6.72481 7.30334 6.73284 7.30561 6.74219C7.30785 6.75142 7.30921 6.76001 7.30991 6.76735C7.31132 6.7821 7.30969 6.78723 7.31062 6.78213C7.31108 6.7796 7.31208 6.77519 7.314 6.76926C7.31593 6.76331 7.31853 6.75671 7.3218 6.74987C7.32507 6.74303 7.32858 6.73687 7.33199 6.73163C7.33539 6.72641 7.3382 6.72287 7.33988 6.72092C7.34325 6.717 7.34027 6.7215 7.3279 6.72968C7.32173 6.73376 7.31418 6.7381 7.30558 6.74215C7.29687 6.74626 7.28891 6.74921 7.28267 6.7511C7.27633 6.75302 7.27456 6.753 7.2788 6.75238C7.28301 6.75176 7.29676 6.75 7.32164 6.75L7.32129 0.75L7.32094 -5.25C-2.76428 -5.24941 -8.35001 6.4367 -2.01717 14.2853L2.65234 10.5176ZM7.32129 0.75V6.75H82.6787V0.75V-5.25H7.32129V0.75Z" fill="black" mask="url(#path-1-inside-1_5610_41764)"/>
</svg>
