<svg width="80" height="100" viewBox="0 0 80 100" fill="none" xmlns="http://www.w3.org/2000/svg">
<path d="M28.4756 40.7726C29.6531 39.7086 31.4714 39.7434 32.6064 40.8781C33.7414 42.013 33.7768 43.8313 32.7129 45.0089L32.6064 45.1213L29.3135 48.4142H48C55.1797 48.4142 61 54.2345 61 61.4142C60.9999 68.5938 55.1796 74.4142 48 74.4142H44C42.3432 74.4142 41.0001 73.071 41 71.4142C41 69.7574 42.3431 68.4142 44 68.4142H48C51.8659 68.4142 54.9999 65.2801 55 61.4142C55 57.5482 51.866 54.4142 48 54.4142H22.6377C21.674 54.6231 20.628 54.3556 19.8789 53.6066C19.2868 53.0145 18.9946 52.2362 19.001 51.4601C19.0007 51.4448 19 51.4295 19 51.4142C19 50.3892 19.5145 49.4847 20.2988 48.9435L28.3643 40.8781L28.4756 40.7726Z" fill="black"/>
<path d="M22 51.4141L30.4853 59.8993" stroke="black" stroke-width="6" stroke-linecap="round"/>
<path d="M32.5947 0C32.5951 0.277105 32.5749 0.554074 32.5371 0.829102C32.5771 0.555041 32.6026 0.278401 32.6045 0H74L74.3086 0.0078125C77.4789 0.16843 80 2.78979 80 6V94L79.9922 94.3086C79.8367 97.3767 77.3767 99.8367 74.3086 99.9922L74 100H6L5.69141 99.9922C2.62332 99.8367 0.16325 97.3767 0.0078125 94.3086L0 94V32.6016C0.205961 32.6002 0.410557 32.5828 0.614258 32.5596C0.410037 32.5801 0.205106 32.5911 0 32.5908V26.5938L0.00585938 26.5908C0.0072811 26.5922 0.010297 26.5922 0.0117188 26.5908L26.5938 0.00878906V0.00488281L26.5957 0H32.5947ZM31 26C31 28.7614 28.7614 31 26 31H6V94H74V6H31V26ZM10.0879 25H25V10.0879L10.0879 25ZM31.0498 4.02734L31 4.0791V4.08496C31.0577 4.02131 31.114 3.95654 31.1689 3.89062L31.1943 3.85938C31.1476 3.91621 31.0995 3.97231 31.0498 4.02734Z" fill="black"/>
</svg>
