<svg width="80" height="100" viewBox="0 0 80 100" fill="none" xmlns="http://www.w3.org/2000/svg">
<g clip-path="url(#clip0_5580_4450)">
<path d="M29.6035 0C29.6038 0.279538 29.5844 0.559526 29.5459 0.836914C29.5866 0.560494 29.6114 0.280858 29.6133 0H65L65.3086 0.0078125C68.4787 0.168421 70.9998 2.79 71 6V11H74L74.3086 11.0078C77.4787 11.1684 79.9998 13.79 80 17V93.75L79.9922 94.0586C79.8368 97.1267 77.3767 99.5867 74.3086 99.7422L74 99.75H15L14.6914 99.7422C11.6233 99.5867 9.16325 97.1267 9.00781 94.0586L9 93.75V88.75H6L5.69141 88.7422C2.62333 88.5867 0.16325 86.1267 0.0078125 83.0586L0 82.75V29.6084C0.274744 29.6066 0.547808 29.5829 0.818359 29.5439C0.546849 29.5807 0.273521 29.599 0 29.5986V23.6016L0.00585938 23.5986C0.0072811 23.6001 0.010297 23.6001 0.0117188 23.5986L23.6025 0.0078125V0.00390625L23.6045 0H29.6035ZM71 82.75L70.9922 83.0586C70.8368 86.1267 68.3767 88.5867 65.3086 88.7422L65 88.75H15V93.75H74V17H71V82.75ZM27.9844 6.13574V23.2686C27.9842 26.0297 25.7455 28.2683 22.9844 28.2686H6V82.75H65V6H27.9805C27.9825 6.04497 27.9844 6.09028 27.9844 6.13574ZM51.4102 62.4658C52.2575 61.0422 54.0988 60.5747 55.5225 61.4219C56.9461 62.2693 57.4136 64.1105 56.5664 65.5342L51.1699 74.5986C51.1668 74.6039 51.1633 74.609 51.1602 74.6143L51.1514 74.6309C51.1084 74.703 51.0615 74.7717 51.0137 74.8389C51.007 74.8482 51.0009 74.8579 50.9941 74.8672C50.945 74.9345 50.8936 74.9994 50.8398 75.0615C50.8281 75.0751 50.8158 75.0882 50.8037 75.1016C50.7937 75.1127 50.7836 75.1238 50.7734 75.1348C50.7183 75.1941 50.6613 75.2529 50.6006 75.3086C50.596 75.3128 50.5906 75.3161 50.5859 75.3203C50.5788 75.3268 50.5717 75.3334 50.5645 75.3398C50.4977 75.3991 50.4288 75.4546 50.3584 75.5068C50.35 75.5131 50.3415 75.5192 50.333 75.5254C50.2642 75.5753 50.1938 75.6217 50.1221 75.665C50.0345 75.7177 49.9455 75.7673 49.8535 75.8105C49.6025 75.9291 49.3385 76.0079 49.0703 76.0527C49.0553 76.0553 49.0405 76.0592 49.0254 76.0615C48.9527 76.0725 48.8797 76.0793 48.8066 76.085C48.7841 76.0867 48.7618 76.0905 48.7393 76.0918C48.6937 76.0943 48.6481 76.0923 48.6025 76.0928C48.3181 76.0958 48.0323 76.0587 47.752 75.9785C47.6979 75.9632 47.6431 75.9501 47.5898 75.9316C47.5114 75.9043 47.4343 75.8721 47.3574 75.8379C47.3466 75.8331 47.335 75.8301 47.3242 75.8252L47.1738 75.75C47.153 75.739 47.133 75.7264 47.1123 75.7148C47.0866 75.7005 47.0605 75.687 47.0352 75.6719C46.9708 75.6334 46.909 75.5922 46.8486 75.5498C46.7973 75.5136 46.7457 75.4772 46.6963 75.4375L46.6641 75.4111C46.6558 75.4044 46.6478 75.3975 46.6396 75.3906C46.5427 75.3087 46.4493 75.22 46.3613 75.124L42.7881 71.2246L42.6865 71.1084C41.675 69.8857 41.7888 68.0708 42.9717 66.9863C44.1548 65.9018 45.9732 65.9457 47.1035 67.0596L47.2109 67.1709L48.0586 68.0957L51.4102 62.4658ZM36 70C37.6569 70 39 71.3431 39 73C39 74.6569 37.6569 76 36 76H18C16.3431 76 15 74.6569 15 73C15 71.3431 16.3431 70 18 70H36ZM51.4102 45.4658C52.2575 44.0422 54.0988 43.5747 55.5225 44.4219C56.9461 45.2693 57.4136 47.1105 56.5664 48.5342L51.1699 57.5986C51.1668 57.6039 51.1633 57.609 51.1602 57.6143L51.1514 57.6309C51.1084 57.703 51.0615 57.7717 51.0137 57.8389C51.007 57.8482 51.0009 57.8579 50.9941 57.8672C50.945 57.9345 50.8936 57.9994 50.8398 58.0615C50.8281 58.0751 50.8158 58.0882 50.8037 58.1016C50.7937 58.1127 50.7836 58.1238 50.7734 58.1348C50.7183 58.1941 50.6613 58.2529 50.6006 58.3086C50.596 58.3128 50.5906 58.3161 50.5859 58.3203C50.5788 58.3268 50.5717 58.3334 50.5645 58.3398C50.4977 58.3991 50.4288 58.4546 50.3584 58.5068C50.35 58.5131 50.3415 58.5192 50.333 58.5254C50.2642 58.5753 50.1938 58.6217 50.1221 58.665C50.0345 58.7177 49.9455 58.7673 49.8535 58.8105C49.6025 58.9291 49.3385 59.0079 49.0703 59.0527C49.0553 59.0553 49.0405 59.0592 49.0254 59.0615C48.9527 59.0725 48.8797 59.0793 48.8066 59.085C48.7841 59.0867 48.7618 59.0905 48.7393 59.0918C48.6937 59.0943 48.6481 59.0923 48.6025 59.0928C48.3181 59.0958 48.0323 59.0587 47.752 58.9785C47.6979 58.9632 47.6431 58.9501 47.5898 58.9316C47.5114 58.9043 47.4343 58.8721 47.3574 58.8379C47.3466 58.8331 47.335 58.8301 47.3242 58.8252L47.1738 58.75C47.153 58.739 47.133 58.7264 47.1123 58.7148C47.0866 58.7005 47.0605 58.687 47.0352 58.6719C46.9708 58.6334 46.909 58.5922 46.8486 58.5498C46.7973 58.5136 46.7457 58.4772 46.6963 58.4375L46.6641 58.4111C46.6558 58.4044 46.6478 58.3975 46.6396 58.3906C46.5427 58.3087 46.4493 58.22 46.3613 58.124L42.7881 54.2246L42.6865 54.1084C41.675 52.8857 41.7888 51.0708 42.9717 49.9863C44.1548 48.9018 45.9732 48.9457 47.1035 50.0596L47.2109 50.1709L48.0586 51.0957L51.4102 45.4658ZM36 53C37.6569 53 39 54.3431 39 56C39 57.6569 37.6569 59 36 59H18C16.3431 59 15 57.6569 15 56C15 54.3431 16.3431 53 18 53H36ZM51.4102 28.4658C52.2575 27.0422 54.0988 26.5747 55.5225 27.4219C56.9461 28.2693 57.4136 30.1105 56.5664 31.5342L51.1699 40.5986C51.1668 40.6039 51.1633 40.609 51.1602 40.6143L51.1514 40.6309C51.1084 40.703 51.0615 40.7717 51.0137 40.8389C51.007 40.8482 51.0009 40.8579 50.9941 40.8672C50.945 40.9345 50.8936 40.9994 50.8398 41.0615C50.8281 41.0751 50.8158 41.0882 50.8037 41.1016C50.7937 41.1127 50.7836 41.1238 50.7734 41.1348C50.7183 41.1941 50.6613 41.2529 50.6006 41.3086C50.596 41.3128 50.5906 41.3161 50.5859 41.3203C50.5788 41.3268 50.5717 41.3334 50.5645 41.3398C50.4977 41.3991 50.4288 41.4546 50.3584 41.5068C50.35 41.5131 50.3415 41.5192 50.333 41.5254C50.2642 41.5753 50.1938 41.6217 50.1221 41.665C50.0345 41.7177 49.9455 41.7673 49.8535 41.8105C49.6025 41.9291 49.3385 42.0079 49.0703 42.0527C49.0553 42.0553 49.0405 42.0592 49.0254 42.0615C48.9527 42.0725 48.8797 42.0793 48.8066 42.085C48.7841 42.0867 48.7618 42.0905 48.7393 42.0918C48.6937 42.0943 48.6481 42.0923 48.6025 42.0928C48.3181 42.0958 48.0323 42.0587 47.752 41.9785C47.6979 41.9632 47.6431 41.9501 47.5898 41.9316C47.5114 41.9043 47.4343 41.8721 47.3574 41.8379C47.3466 41.8331 47.335 41.8301 47.3242 41.8252L47.1738 41.75C47.153 41.739 47.133 41.7264 47.1123 41.7148C47.0866 41.7005 47.0605 41.687 47.0352 41.6719C46.9708 41.6334 46.909 41.5922 46.8486 41.5498C46.7973 41.5136 46.7457 41.4772 46.6963 41.4375L46.6641 41.4111C46.6558 41.4044 46.6478 41.3975 46.6396 41.3906C46.5427 41.3087 46.4493 41.22 46.3613 41.124L42.7881 37.2246L42.6865 37.1084C41.675 35.8857 41.7888 34.0708 42.9717 32.9863C44.1548 31.9018 45.9732 31.9457 47.1035 33.0596L47.2109 33.1709L48.0586 34.0957L51.4102 28.4658ZM36 36C37.6569 36 39 37.3431 39 39C39 40.6569 37.6569 42 36 42H18C16.3431 42 15 40.6569 15 39C15 37.3431 16.3431 36 18 36H36ZM9.82715 22.2686H21.9844V10.1113L9.82715 22.2686ZM28.3652 3.6543C28.2681 3.78078 28.1672 3.90619 28.0586 4.02637L27.8457 4.25L27.626 4.46875C27.8985 4.22008 28.1445 3.9462 28.3652 3.6543Z" fill="white"/>
</g>
<defs>
<clipPath id="clip0_5580_4450">
<rect width="80" height="100" fill="white"/>
</clipPath>
</defs>
</svg>
