<svg width="90" height="100" viewBox="0 0 90 100" fill="none" xmlns="http://www.w3.org/2000/svg">
<g clip-path="url(#clip0_5580_4562)">
<path d="M74 0C77.3137 0 80 2.68629 80 6V35C80 36.6569 78.6569 38 77 38C75.3431 38 74 36.6569 74 35V9C74 7.34315 72.6569 6 71 6H9C7.34315 6 6 7.34315 6 9V91C6 92.6569 7.34315 94 9 94H39C40.6569 94 42 95.3431 42 97C42 98.6569 40.6569 100 39 100H6L5.69141 99.9922C2.62332 99.8367 0.163251 97.3767 0.0078125 94.3086L0 94V6C1.28855e-07 2.68629 2.68629 1.28851e-07 6 0H74ZM79.8369 41.918C84.1595 41.1729 88.2787 44.047 89.0703 48.3613L89.3682 49.9863C89.8606 52.6721 88.9488 55.4228 86.9502 57.2822L82.5127 61.4102L77.25 66.4531C77.0164 66.6769 76.8392 66.955 76.7363 67.2617L74.8535 72.875L76.7559 75.46C77.488 76.4549 77.9802 77.6058 78.1934 78.8223L78.708 81.7598C79.1411 84.2317 78.3881 86.7629 76.6758 88.5967L69.3398 96.4531C69.2711 96.5268 69.1991 96.596 69.125 96.6611C69.0032 96.8432 68.8722 97.0191 68.7285 97.1865L68.5449 97.3906C64.58 101.567 54.539 98.9625 45.8965 91.4541L45.0869 90.7324C37.8522 84.1141 34.1597 76.0851 35.918 71.3115C35.8295 70.4738 36.0909 69.6042 36.7129 68.9424L44.3008 60.8691C45.8745 59.1946 48.0931 58.2773 50.3906 58.3525L53.6504 58.46C54.8298 58.4987 55.9866 58.7979 57.0371 59.3359L60.4385 61.0781L64.6445 58.5176C64.9013 58.3612 65.1199 58.1489 65.2832 57.8965L69.3965 51.5381L72.2441 46.3057C73.4128 44.1591 75.5 42.6643 77.9092 42.249L79.8369 41.918ZM45.0508 73.7354C42.8331 73.1786 41.8394 73.4133 41.5088 73.5371C41.4351 73.8828 41.3462 74.9053 42.2178 77.0342C43.413 79.9534 45.9726 83.5721 49.8047 86.9014C53.6366 90.2305 57.5676 92.2511 60.6123 93.0156C62.8312 93.5727 63.8243 93.3347 64.1543 93.2109C64.2279 92.8632 64.3152 91.8405 63.4453 89.7158C62.2502 86.7967 59.6903 83.1788 55.8584 79.8496C52.0265 76.5206 48.0955 74.4999 45.0508 73.7354ZM50.1973 64.3486C49.623 64.3299 49.0682 64.559 48.6748 64.9775L46.0332 67.7871C50.2701 68.7456 55.2126 71.3405 59.7666 75.2969L60.5752 76.0176C64.7056 79.796 67.681 84.0352 69.1475 87.8652L72.2891 84.502C72.7172 84.0435 72.9061 83.41 72.7979 82.792L72.2832 79.8545C72.2299 79.5505 72.1058 79.2623 71.9229 79.0137L69.2402 75.3682L64.7021 70.9229C64.6133 70.8358 64.5166 70.7566 64.4131 70.6875L59.0488 67.1064L54.3037 64.6748C54.0412 64.5404 53.7517 64.4648 53.457 64.4551L50.1973 64.3486ZM27 75C28.6569 75 30 76.3431 30 78C30 79.6569 28.6569 81 27 81H16C14.3431 81 13 79.6569 13 78C13 76.3431 14.3431 75 16 75H27ZM83.168 49.4414C82.9701 48.3629 81.9409 47.6441 80.8604 47.8301L78.9316 48.1621C78.3293 48.2659 77.8068 48.6401 77.5146 49.1768L74.6123 54.5088L74.5586 54.6084L74.4971 54.7041L70.3232 61.1562C69.6698 62.1664 68.7962 63.0168 67.7686 63.6426L66.1436 64.6309L67.7432 65.6992C68.1573 65.9758 68.5457 66.2911 68.9014 66.6396L70.1904 67.9033L71.0479 65.3516C71.4592 64.125 72.1616 63.0162 73.0957 62.1211L78.3594 57.0781L78.375 57.0625L78.3916 57.0469L82.8623 52.8887C83.3614 52.4239 83.5897 51.7365 83.4668 51.0654L83.168 49.4414ZM31 61C32.6569 61 34 62.3431 34 64C34 65.6569 32.6569 67 31 67H16C14.3431 67 13 65.6569 13 64C13 62.3431 14.3431 61 16 61H31ZM39.5 12C50.8218 12 60 21.1782 60 32.5C60 43.8218 50.8218 53 39.5 53C28.1782 53 19 43.8218 19 32.5C19 21.1782 28.1782 12 39.5 12ZM39.5 18C31.4919 18 25 24.4919 25 32.5C25 40.5081 31.4919 47 39.5 47C47.5081 47 54 40.5081 54 32.5C54 24.4919 47.5081 18 39.5 18ZM42.4219 25.4658C43.2693 24.0422 45.1105 23.5747 46.5342 24.4219C47.9578 25.2693 48.4253 27.1105 47.5781 28.5342L40.9697 39.6348C40.9667 39.6401 40.9631 39.6451 40.96 39.6504L40.9512 39.667C40.9109 39.7346 40.8669 39.799 40.8223 39.8623C40.7856 39.9141 40.7483 39.9658 40.708 40.0156C40.661 40.0741 40.6112 40.1295 40.5605 40.1836C40.5092 40.2382 40.4565 40.2923 40.4004 40.3438C40.3984 40.3456 40.3956 40.3468 40.3936 40.3486C40.3789 40.362 40.3636 40.3746 40.3486 40.3877C40.2865 40.4422 40.2235 40.4945 40.1582 40.543C40.1486 40.5501 40.1386 40.5565 40.1289 40.5635C40.062 40.6119 39.9935 40.657 39.9238 40.6992C39.8789 40.7263 39.8323 40.7498 39.7861 40.7744C39.5068 40.9241 39.211 41.0263 38.9072 41.0811C38.8795 41.0861 38.8521 41.0934 38.8242 41.0977C38.7889 41.103 38.7532 41.1053 38.7178 41.1094C38.5636 41.1273 38.4081 41.1351 38.252 41.1289C38.1824 41.1261 38.1132 41.1189 38.0439 41.1113C38.0157 41.1082 37.9872 41.1074 37.959 41.1035C37.9269 41.0991 37.8953 41.0914 37.8633 41.0859C37.7583 41.0678 37.6544 41.0433 37.5508 41.0137C37.4966 40.9983 37.442 40.9843 37.3887 40.9658C37.315 40.9401 37.2423 40.9107 37.1699 40.8789C37.1422 40.8668 37.1144 40.8548 37.0869 40.8418C37.0216 40.8107 36.9574 40.7765 36.8936 40.7402C36.8786 40.7317 36.8635 40.7236 36.8486 40.7148C36.8456 40.7131 36.8419 40.7118 36.8389 40.71C36.7765 40.6728 36.7168 40.6326 36.6582 40.5918C36.5962 40.5485 36.5348 40.5036 36.4756 40.4551C36.4605 40.4428 36.4455 40.4305 36.4307 40.418C36.4088 40.3993 36.3867 40.3807 36.3652 40.3613C36.3546 40.3518 36.3445 40.3417 36.334 40.332C36.2749 40.2771 36.2166 40.2197 36.1611 40.1592L31.7881 35.3877L31.6865 35.2715C30.6751 34.0488 30.7888 32.2339 31.9717 31.1494C33.1548 30.0649 34.9732 30.1088 36.1035 31.2227L36.2109 31.334L37.8584 33.1309L42.4219 25.4658Z" fill="black"/>
</g>
<defs>
<clipPath id="clip0_5580_4562">
<rect width="90" height="100" fill="white"/>
</clipPath>
</defs>
</svg>
