<svg width="90" height="100" viewBox="0 0 90 100" fill="none" xmlns="http://www.w3.org/2000/svg">
<g clip-path="url(#clip0_5582_4629)">
<path d="M75.3086 0.0078125C78.4787 0.168421 80.9998 2.79 81 6V8C81 9.605 82.2607 10.9156 83.8457 10.9961L84.3086 11.0078C87.4787 11.1684 89.9998 13.79 90 17V93.75L89.9922 94.0586C89.8367 97.1267 87.3767 99.5867 84.3086 99.7422L84 99.75H25L24.6914 99.7422C21.6235 99.5866 19.1632 97.1266 19.0078 94.0586L19 93.75V91.75C19 90.1448 17.7396 88.8341 16.1543 88.7539L15.6914 88.7422C12.6235 88.5866 10.1632 86.1266 10.0078 83.0586L10 82.75V72.9199C10 72.3943 10.4744 72.0002 11 72H15C15.5258 72 16 72.3942 16 72.9199V79.75C16 81.4067 17.3433 82.7498 19 82.75H72C73.6569 82.75 75 81.4069 75 79.75V9C75 7.34315 73.6569 6 72 6H19C17.3433 6.00017 16 7.34325 16 9V23.0791C16 23.6048 15.5257 24 15 24H11C10.4744 23.9998 10 23.6047 10 23.0791V6C10.0002 2.7901 12.5214 0.168579 15.6914 0.0078125L16 0H75L75.3086 0.0078125ZM82.5 17C81.6717 17.0002 81 17.6717 81 18.5V82.75L80.9922 83.0586C80.8367 86.1267 78.3767 88.5867 75.3086 88.7422L75 88.75H27.5C26.1194 88.7502 25 89.8694 25 91.25C25 92.6306 26.1194 93.7498 27.5 93.75H81C82.6569 93.75 84 92.4069 84 90.75V18.5C84 17.6716 83.3284 17 82.5 17ZM64 66C65.6569 66 67 67.3431 67 69C67 70.6569 65.6569 72 64 72H29C27.3433 71.9998 26 70.6568 26 69C26 67.3432 27.3433 66.0002 29 66H64ZM29.208 24C38.2585 24 45.5957 31.3783 45.5957 40.4795L45.5908 40.9043C45.3666 49.809 38.1172 56.958 29.208 56.958L28.7852 56.9531C25.4488 56.868 22.3604 55.7796 19.8066 53.9775C19.8021 53.9822 19.7976 53.9876 19.793 53.9922L5.10059 68.6846L4.98828 68.791C3.81102 69.8543 1.99862 69.8138 0.870117 68.6729C-0.258314 67.5316 -0.288845 65.7082 0.775391 64.5303L0.881836 64.418L15.5742 49.7256C15.588 49.7118 15.6032 49.699 15.6172 49.6855C13.853 47.0568 12.8214 43.8895 12.8213 40.4795L12.8262 40.0537C13.047 31.2906 20.0709 24.2281 28.7852 24.0059L29.208 24ZM64 49C65.6569 49 67 50.3431 67 52C67 53.6569 65.6569 55 64 55H50C48.3433 54.9998 47 53.6568 47 52C47 50.3432 48.3433 49.0002 50 49H64ZM29.208 30C23.503 30.0003 18.8213 34.6606 18.8213 40.4795C18.8214 46.2983 23.5031 50.9577 29.208 50.958C34.9132 50.958 39.5955 46.2985 39.5957 40.4795C39.5957 34.6604 34.9133 30 29.208 30ZM64 32C65.6569 32 67 33.3431 67 35C67 36.6569 65.6569 38 64 38H53C51.3433 37.9998 50 36.6568 50 35C50 33.3432 51.3433 32.0002 53 32H64ZM64 14C65.6569 14 67 15.3431 67 17C67 18.6569 65.6569 20 64 20H36C34.3433 19.9998 33 18.6568 33 17C33 15.3432 34.3433 14.0002 36 14H64Z" fill="white"/>
</g>
<defs>
<clipPath id="clip0_5582_4629">
<rect width="90" height="100" fill="white"/>
</clipPath>
</defs>
</svg>
