<svg width="100" height="100" viewBox="0 0 100 100" fill="none" xmlns="http://www.w3.org/2000/svg">
<path d="M44.4883 6.00391L42.9873 12.0225C22.448 12.6837 6.00012 29.5403 6 50.2402C6.0002 71.3594 23.1211 88.4795 44.2402 88.4795C51.1054 88.4794 57.5469 86.6685 63.1162 83.501L71.002 85.4668C63.5709 91.121 54.2984 94.4794 44.2402 94.4795L43.0977 94.4648C19.572 93.8686 0.610743 74.9075 0.0146484 51.3818L0 50.2402C0.000124457 25.8073 19.8073 6 44.2402 6L44.4883 6.00391Z" fill="black"/>
<path d="M42.4033 4.82227C43.1799 1.7075 46.2611 -0.226186 49.376 0.384766L49.6768 0.452148L78.4092 7.61523C78.3609 7.81471 78.3291 8.01711 78.3027 8.21973C78.3319 8.0173 78.3704 7.81639 78.4199 7.61816L84.2383 9.06836L84.2412 9.06934L84.2402 9.07129L84.2412 9.07324L84.2402 9.0752L99.3311 34.1914C99.3318 34.1923 99.3338 34.1927 99.335 34.1924L99.3398 34.1953L97.8887 40.0146C97.623 39.9487 97.3612 39.8643 97.1064 39.7627C97.3598 39.8661 97.6203 39.9551 97.8867 40.0234L86.9502 83.8857L86.8682 84.1836C85.9749 87.1224 82.9927 88.9144 79.9785 88.3232L79.6768 88.2559L30.8223 76.0752L30.5244 75.9932C27.5855 75.1001 25.7939 72.1177 26.3848 69.1035L26.4521 68.8018L29.8936 55H36.0762L32.2734 70.2529L81.1279 82.4346L92.4385 37.0732L78.9131 33.7002C76.2337 33.0321 74.6035 30.319 75.2715 27.6396L78.7031 13.8721L48.2256 6.27344L43.5566 25H37.373L42.4033 4.82227ZM94.2334 37.3594C94.3578 37.5555 94.4926 37.7446 94.6377 37.9248C94.4961 37.7463 94.3638 37.5571 94.2402 37.3594C94.2382 37.3595 94.2355 37.3592 94.2334 37.3594ZM81.335 28.1211L89.9795 30.2764L83.4902 19.4766L81.335 28.1211ZM78.7295 11.4434C78.8687 11.7731 79.0364 12.0916 79.2334 12.3936L79.2344 12.3916L79.0977 12.166L78.9453 11.8975C78.8657 11.7484 78.7953 11.5961 78.7295 11.4434Z" fill="black"/>
<path d="M41 56H18" stroke="black" stroke-width="6" stroke-linecap="round"/>
<path d="M50 28L29 28" stroke="black" stroke-width="6" stroke-linecap="round"/>
<path d="M63 37L19 37" stroke="black" stroke-width="6" stroke-linecap="round"/>
<path d="M46 47H26" stroke="black" stroke-width="6" stroke-linecap="round"/>
</svg>
