<svg width="80" height="100" viewBox="0 0 80 100" fill="none" xmlns="http://www.w3.org/2000/svg">
<g clip-path="url(#clip0_5580_4534)">
<path d="M39.4746 0C43.6741 0 47.325 2.19983 49.1865 5.43555H55C56.5562 5.43555 57.9738 6.0283 59.04 7H74L74.3086 7.00781C77.4789 7.16843 80 9.78979 80 13V94L79.9922 94.3086C79.8367 97.3767 77.3767 99.8367 74.3086 99.9922L74 100H6L5.69141 99.9922C2.62332 99.8367 0.16325 97.3767 0.0078125 94.3086L0 94V13C0 9.78979 2.52111 7.16843 5.69141 7.00781L6 7H20.96C22.0262 6.0283 23.4438 5.43555 25 5.43555H29.7637C31.6252 2.19998 35.2753 0.000136161 39.4746 0ZM6 94H74V13H61V16H64L64.3086 16.0078C67.3765 16.1632 69.8365 18.6235 69.9922 21.6914L70 22V65.0469C69.605 65.0501 69.2122 65.0929 68.8271 65.1719C69.2144 65.0956 69.6071 65.058 70 65.0586V71.0547L69.9951 71.0566C69.9941 71.0559 69.9922 71.0559 69.9912 71.0566L50.0537 90.9941V90.9961L50.0498 91H44.0537C44.0536 90.7975 44.0646 90.5952 44.085 90.3936C44.0619 90.5947 44.0444 90.7967 44.043 91H16L15.6914 90.9922C12.5211 90.8316 10 88.2102 10 85V22L10.0078 21.6914C10.1635 18.6235 12.6235 16.1632 15.6914 16.0078L16 16H19V13H6V94ZM50.0527 91H50.0498L50.0527 90.998V91ZM45.9873 86.5742C45.7275 86.8168 45.4912 87.081 45.2793 87.3633C45.3801 87.231 45.4853 87.1 45.5986 86.9746L45.8115 86.751L45.9883 86.5762L45.9873 86.5742ZM16 85H45.8867V71.6475C45.887 68.8862 48.1255 66.6475 50.8867 66.6475H64V22H60.1953C59.1578 23.7929 57.2205 25 55 25H25C22.7795 25 20.8422 23.7929 19.8047 22H16V85ZM51.8867 80.6758L59.915 72.6475H51.8867V80.6758ZM36 67C37.6569 67 39 68.3431 39 70C39 71.6569 37.6569 73 36 73H25C23.3431 73 22 71.6569 22 70C22 68.3431 23.3431 67 25 67H36ZM66.2715 66.3506C66.1115 66.475 65.9577 66.6075 65.8105 66.748C65.8125 66.7486 65.8144 66.7495 65.8164 66.75C65.9631 66.608 66.1146 66.4744 66.2715 66.3506ZM55 51C56.6569 51 58 52.3431 58 54C58 55.6569 56.6569 57 55 57H25C23.3431 57 22 55.6569 22 54C22 52.3431 23.3431 51 25 51H55ZM55 34C56.6569 34 58 35.3431 58 37C58 38.6569 56.6569 40 55 40H25C23.3431 40 22 38.6569 22 37C22 35.3431 23.3431 34 25 34H55ZM39.4746 6C37.374 6.00014 35.7319 7.09453 34.9648 8.42773L33.2334 11.4355H25V19H55V11.4355H45.7158L43.9854 8.42773C43.2184 7.09476 41.5759 6 39.4746 6Z" fill="black"/>
</g>
<defs>
<clipPath id="clip0_5580_4534">
<rect width="80" height="100" rx="6" fill="white"/>
</clipPath>
</defs>
</svg>
