<svg width="80" height="100" viewBox="0 0 80 100" fill="none" xmlns="http://www.w3.org/2000/svg">
<path d="M32.5947 0C32.5951 0.277105 32.5749 0.554074 32.5371 0.829102C32.5771 0.555041 32.6026 0.278401 32.6045 0H74L74.3086 0.0078125C77.4789 0.16843 80 2.78979 80 6V94L79.9922 94.3086C79.8367 97.3767 77.3767 99.8367 74.3086 99.9922L74 100H6L5.69141 99.9922C2.62332 99.8367 0.16325 97.3767 0.0078125 94.3086L0 94V32.6016C0.205961 32.6002 0.410557 32.5828 0.614258 32.5596C0.410037 32.5801 0.205106 32.5911 0 32.5908V26.5938L0.00585938 26.5908C0.0072811 26.5922 0.010297 26.5922 0.0117188 26.5908L26.5938 0.00878906V0.00488281L26.5957 0H32.5947ZM31 26C31 28.7614 28.7614 31 26 31H6V94H74V6H31V26ZM52.3262 39.4658C53.1736 38.0422 55.0148 37.5747 56.4385 38.4219C57.8621 39.2693 58.3296 41.1105 57.4824 42.5342L39.501 72.7412C39.4815 72.7756 39.4604 72.809 39.4395 72.8428C39.4125 72.8864 39.3843 72.9289 39.3555 72.9707C39.2304 73.1511 39.0866 73.323 38.918 73.4775C38.4928 73.8672 37.9847 74.107 37.457 74.208C36.7722 74.3405 36.0402 74.2382 35.3906 73.8633C35.3862 73.8607 35.3813 73.859 35.377 73.8564C35.3695 73.8521 35.3619 73.8482 35.3545 73.8438C35.1587 73.7272 34.9829 73.5899 34.8242 73.4395C34.7748 73.3924 34.7255 73.3441 34.6787 73.293L34.6572 73.2715C34.652 73.2656 34.6478 73.2588 34.6426 73.2529L22.7891 60.3223C21.6695 59.1009 21.7523 57.2026 22.9736 56.083C24.1949 54.9637 26.0924 55.0465 27.2119 56.2676L36.375 66.2627L52.3262 39.4658ZM10.0879 25H25V10.0879L10.0879 25ZM31.0498 4.02734L31 4.0791V4.08496C31.0577 4.02131 31.114 3.95654 31.1689 3.89062L31.1943 3.85938C31.1476 3.91621 31.0995 3.97231 31.0498 4.02734Z" fill="black"/>
</svg>
