<svg width="80" height="100" viewBox="0 0 80 100" fill="none" xmlns="http://www.w3.org/2000/svg">
<g clip-path="url(#clip0_5577_18118)">
<path d="M32.5947 0.276367C32.5951 0.553472 32.5749 0.830441 32.5371 1.10547C32.5771 0.831408 32.6026 0.554768 32.6045 0.276367H58.959L54.7578 6.27637H31V26.2764C31 29.0378 28.7614 31.2764 26 31.2764H6V94.2764H74V30.0811L80 21.5117V94.2764L79.9922 94.585C79.8367 97.653 77.3767 100.113 74.3086 100.269L74 100.276H6L5.69141 100.269C2.62332 100.113 0.16325 97.653 0.0078125 94.585L0 94.2764V32.8779C0.205961 32.8765 0.410557 32.8591 0.614258 32.8359C0.410037 32.8564 0.205106 32.8675 0 32.8672V26.8701L0.00585938 26.8672C0.0072811 26.8686 0.010297 26.8686 0.0117188 26.8672L26.5938 0.285156V0.28125L26.5957 0.276367H32.5947ZM64.2559 2.30664C65.523 0.49702 68.0175 0.0571091 69.8271 1.32422L78.0186 7.05957C79.8279 8.32675 80.268 10.8214 79.001 12.6309L46.6133 58.8848C46.4655 59.208 46.2588 59.5096 45.9932 59.7705L45.8857 59.917C45.3854 60.5597 44.6798 60.9596 43.9277 61.0908L34.7363 66.4971C31.8741 68.1802 28.3796 65.8486 28.7295 62.6367L28.7754 62.3232L30.7119 51.835C30.5703 51.0352 30.7338 50.1809 31.2363 49.4629L31.2412 49.4551C31.3979 49.108 31.6152 48.8044 31.875 48.5508L64.2559 2.30664ZM36.7754 52.0137L36.7568 52.1387L35.4697 59.1045L41.5752 55.5146L41.6934 55.4502L66.6758 19.7715L61.7607 16.3301L36.7754 52.0137ZM45.7441 55.252C45.7371 55.2463 45.7298 55.2399 45.7227 55.2344L45.5996 55.1436C45.6492 55.1783 45.6974 55.2151 45.7441 55.252ZM10.0879 25.2764H25V10.3643L10.0879 25.2764ZM65.2021 11.415L70.1172 14.8564L72.9385 10.8271L68.0234 7.38574L65.2021 11.415ZM31.0498 4.30371L31 4.35547V4.36133C31.0577 4.29768 31.114 4.23291 31.1689 4.16699L31.1943 4.13574C31.1476 4.19258 31.0995 4.24868 31.0498 4.30371Z" fill="black"/>
</g>
<defs>
<clipPath id="clip0_5577_18118">
<rect width="80" height="100" fill="white"/>
</clipPath>
</defs>
</svg>
