<svg width="80" height="100" viewBox="0 0 80 100" fill="none" xmlns="http://www.w3.org/2000/svg">
<g clip-path="url(#clip0_5688_1556)">
<path d="M50.3867 0C50.3886 0.280858 50.4134 0.560494 50.4541 0.836914C50.4156 0.559526 50.3962 0.279538 50.3965 0H56.3955L56.3975 0.00390625V0.0078125L79.9883 23.5986C79.9897 23.6001 79.9927 23.6001 79.9941 23.5986L80 23.6016V29.5986C79.7265 29.599 79.4532 29.5807 79.1816 29.5439C79.4522 29.5829 79.7253 29.6066 80 29.6084V82.75L79.9922 83.0586C79.8367 86.1267 77.3767 88.5867 74.3086 88.7422L74 88.75H71V93.75L70.9922 94.0586C70.8368 97.1267 68.3767 99.5867 65.3086 99.7422L65 99.75H6L5.69141 99.7422C2.62333 99.5867 0.163246 97.1267 0.0078125 94.0586L0 93.75V17C0.000236511 13.79 2.52126 11.1684 5.69141 11.0078L6 11H9V6C9.00024 2.79 11.5213 0.168421 14.6914 0.0078125L15 0H50.3867ZM6 93.75H65V88.75H15L14.6914 88.7422C11.6233 88.5867 9.16325 86.1267 9.00781 83.0586L9 82.75V17H6V93.75ZM15 82.75H74V28.2686H57.0156C54.2545 28.2683 52.0158 26.0297 52.0156 23.2686V6.13574C52.0156 6.09028 52.0175 6.04497 52.0195 6H15V82.75ZM45 41C46.6569 41 48 42.3431 48 44V51H55C56.6569 51 58 52.3431 58 54C58 55.6569 56.6569 57 55 57H48V64C48 65.6569 46.6569 67 45 67C43.3431 67 42 65.6569 42 64V57H35C33.3431 57 32 55.6569 32 54C32 52.3431 33.3431 51 35 51H42V44C42 42.3431 43.3431 41 45 41ZM58.0156 22.2686H70.1729L58.0156 10.1113V22.2686ZM51.6348 3.6543C51.8555 3.9462 52.1015 4.22008 52.374 4.46875L52.1543 4.25L51.9414 4.02637C51.8328 3.90619 51.7319 3.78078 51.6348 3.6543Z" fill="black"/>
</g>
<defs>
<clipPath id="clip0_5688_1556">
<rect width="80" height="100" fill="white"/>
</clipPath>
</defs>
</svg>
