<svg width="100" height="80" viewBox="0 0 100 80" fill="none" xmlns="http://www.w3.org/2000/svg">
<g clip-path="url(#clip0_5615_62776)">
<path d="M79.5684 18C81.4713 18 83.2622 18.9025 84.3936 20.4326L93.8242 33.1895C94.5876 34.222 95 35.4727 95 36.7568V55.084C97.8376 55.5601 100 58.0271 100 61V66C100 69.3137 97.3137 72 94 72H91.958C91.9852 71.6702 92 71.3368 92 71C92 64.3726 86.6274 59 80 59C73.3726 59 68 64.3726 68 71C68 71.3368 68.0148 71.6702 68.042 72H33.958C33.9852 71.6702 34 71.3368 34 71C34 64.3726 28.6274 59 22 59C15.3726 59 10 64.3726 10 71C10 71.3368 10.0148 71.6702 10.042 72H6L5.69141 71.9922C5.42218 71.9785 5.15813 71.9445 4.89941 71.8965C4.61018 71.963 4.30941 72 4 72C1.85996 72 0.112115 70.3194 0.00488281 68.2061L0 68V40C0 37.7909 1.79086 36 4 36C6.20914 36 8 37.7909 8 40V49H61V24C61 20.6863 63.6863 18 67 18H79.5684ZM70 25C68.8954 25 68 25.8954 68 27V34C68 35.1046 68.8954 36 70 36H85C86.1046 36 87 35.1046 87 34V33.2285C87 32.7581 86.8337 32.3027 86.5312 31.9424L81.3018 25.7139C80.9218 25.2614 80.3614 25 79.7705 25H70Z" fill="black"/>
<circle cx="80" cy="71" r="6" stroke="black" stroke-width="6"/>
<circle cx="22" cy="71" r="6" stroke="black" stroke-width="6"/>
<path d="M21.7724 31.1946C20.7081 30.0169 20.7438 28.1988 21.8788 27.0637C23.0139 25.9287 24.8321 25.893 26.0097 26.9573L26.121 27.0637L32.2167 33.1594V2.99927L32.2206 2.84497C32.3009 1.2598 33.6116 -0.000732422 35.2167 -0.000732422C36.8219 -0.000732422 38.1325 1.2598 38.2128 2.84497L38.2167 2.99927V33.7073L44.8613 27.0637L44.9726 26.9573C46.1502 25.893 47.9684 25.9287 49.1035 27.0637C50.2384 28.1988 50.2742 30.017 49.2099 31.1946L49.1035 31.3059L38.0976 42.3118C37.9781 42.5044 37.837 42.6876 37.6699 42.8547C37.0689 43.4557 36.2768 43.7473 35.4892 43.7317C35.4524 43.7324 35.4156 43.7324 35.3788 43.7317C35.3252 43.7345 35.2711 43.7356 35.2167 43.7356C33.9597 43.7356 32.8837 42.9622 32.4374 41.8655L21.8788 31.3059L21.7724 31.1946Z" fill="black"/>
</g>
<defs>
<clipPath id="clip0_5615_62776">
<rect width="100" height="80" fill="white"/>
</clipPath>
</defs>
</svg>
