<svg width="100" height="80" viewBox="0 0 100 80" fill="none" xmlns="http://www.w3.org/2000/svg">
<g clip-path="url(#clip0_5615_62757)">
<path d="M71 32V37H81V36.6553L77.2598 32H71Z" fill="#D9D9D9" stroke="black" stroke-width="6"/>
<circle cx="25" cy="67" r="10" stroke="black" stroke-width="6"/>
<circle cx="77" cy="67" r="10" stroke="black" stroke-width="6"/>
<path d="M79.9912 18C81.7537 18 83.4274 18.775 84.5674 20.1191L95.5762 33.1006C96.4955 34.1846 97 35.5601 97 36.9814V55.8037C98.7932 56.8412 100 58.7793 100 61V66C100 69.3137 97.3137 72 94 72H88.9082C89.6072 70.4775 90 68.785 90 67C90 66.6632 89.9852 66.3298 89.958 66H94V61.001C93.9989 60.9999 93.998 60.9988 93.9971 60.998L93.9951 60.9971L91 59.2637V36.9814L79.9912 24H64V52H9V41H6V65.998L6.07422 66H14.4355C14.1529 66.9471 14 67.9547 14 69C14 70.0453 14.1529 71.0529 14.4355 72H6L5.69141 71.9922C2.52111 71.8316 0 69.2102 0 66V41C4.50994e-07 37.6863 2.68629 35 6 35H9C12.3137 35 15 37.6863 15 41V46H58V24C58 20.6863 60.6863 18 64 18H79.9912ZM66.042 66C66.0148 66.3298 66 66.6632 66 67C66 68.785 66.3928 70.4775 67.0918 72H32.5645C32.8471 71.0529 33 70.0453 33 69C33 67.9547 32.8471 66.9471 32.5645 66H66.042Z" fill="black"/>
<path d="M21.7724 31.1946C20.7081 30.0169 20.7438 28.1988 21.8788 27.0637C23.0139 25.9287 24.8321 25.893 26.0097 26.9573L26.121 27.0637L32.2167 33.1594V2.99927L32.2206 2.84497C32.3009 1.2598 33.6116 -0.000732422 35.2167 -0.000732422C36.8219 -0.000732422 38.1325 1.2598 38.2128 2.84497L38.2167 2.99927V33.7073L44.8613 27.0637L44.9726 26.9573C46.1502 25.893 47.9684 25.9287 49.1035 27.0637C50.2384 28.1988 50.2742 30.017 49.2099 31.1946L49.1035 31.3059L38.0976 42.3118C37.9781 42.5044 37.837 42.6876 37.6699 42.8547C37.0689 43.4557 36.2768 43.7473 35.4892 43.7317C35.4524 43.7324 35.4156 43.7324 35.3788 43.7317C35.3252 43.7345 35.2711 43.7356 35.2167 43.7356C33.9597 43.7356 32.8837 42.9622 32.4374 41.8655L21.8788 31.3059L21.7724 31.1946Z" fill="black"/>
<circle cx="77" cy="67" r="3" fill="black"/>
<line x1="61" y1="50" x2="61" y2="70" stroke="black" stroke-width="6"/>
<circle cx="25" cy="67" r="3" fill="black"/>
</g>
<defs>
<clipPath id="clip0_5615_62757">
<rect width="100" height="80" fill="white"/>
</clipPath>
</defs>
</svg>
