<svg width="90" height="90" viewBox="0 0 90 90" fill="none" xmlns="http://www.w3.org/2000/svg">
<path d="M65.1733 67.336V69H49.7493V67.336L53.2693 66.952C53.9519 66.8667 54.3573 66.696 54.4853 66.44C54.6133 66.184 54.6772 65.3093 54.6772 63.816V48.072H35.3493V63.816C35.3493 65.3093 35.4133 66.184 35.5413 66.44C35.6693 66.696 36.0746 66.8667 36.7573 66.952L40.2773 67.336V69H24.8533V67.336L28.3733 66.952C29.0559 66.8667 29.4613 66.696 29.5893 66.44C29.7173 66.184 29.7812 65.3093 29.7812 63.816V30.664C29.7812 29.1707 29.7173 28.296 29.5893 28.04C29.4613 27.784 29.0559 27.6133 28.3733 27.528L24.8533 27.208V25.48H40.2773V27.208L36.7573 27.528C36.0746 27.6133 35.6693 27.784 35.5413 28.04C35.4133 28.296 35.3493 29.1707 35.3493 30.664V46.024H54.6772V30.664C54.6772 29.1707 54.6133 28.296 54.4853 28.04C54.3573 27.784 53.9519 27.6133 53.2693 27.528L49.7493 27.208V25.48H65.1733V27.208L61.6533 27.528C60.9706 27.6133 60.5653 27.784 60.4373 28.04C60.3093 28.296 60.2453 29.1707 60.2453 30.664V63.816C60.2453 65.3093 60.3093 66.184 60.4373 66.44C60.5653 66.696 60.9706 66.8667 61.6533 66.952L65.1733 67.336Z" fill="black"/>
</svg>
