<svg width="90" height="90" viewBox="0 0 90 90" fill="none" xmlns="http://www.w3.org/2000/svg">
<mask id="path-2-inside-1_5613_59330" fill="white">
<path d="M39.4229 3.4248C42.5281 0.405086 47.473 0.404896 50.5781 3.4248L87.1709 39.0146C92.3185 44.0212 88.7734 52.7497 81.5928 52.75H79.001C77.8964 52.75 77.001 53.6454 77.001 54.75V84C77.0008 87.3133 74.3142 89.9996 71.001 90H54.001C52.8964 90 52.001 89.1046 52.001 88V69C52.0008 65.6864 49.3146 63 46.001 63H44.001C40.6873 63 38.0011 65.6864 38.001 69V88C38.001 89.1046 37.1055 90 36.001 90H19.001C15.6874 90 13.0012 87.3136 13.001 84V54.75C13.001 53.6454 12.1055 52.75 11.001 52.75H8.4082C1.22743 52.7498 -2.31657 44.0213 2.83105 39.0146L39.4229 3.4248Z"/>
</mask>
<path d="M39.4229 3.4248L35.2399 -0.87665L35.2395 -0.876314L39.4229 3.4248ZM50.5781 3.4248L54.7614 -0.87637L54.7613 -0.876441L50.5781 3.4248ZM87.1709 39.0146L91.3542 34.7135L91.3542 34.7135L87.1709 39.0146ZM81.5928 52.75L81.5928 58.75L81.5931 58.75L81.5928 52.75ZM77.001 84L83.001 84.0003V84H77.001ZM71.001 90L71.001 96L71.0018 96L71.001 90ZM52.001 69L58.001 69L58.001 68.9998L52.001 69ZM44.001 63L44.001 57L44.001 63ZM38.001 69L32.001 68.9998V69H38.001ZM13.001 84L7.00098 84L7.00098 84.0003L13.001 84ZM8.4082 52.75L8.40806 58.75H8.4082V52.75ZM2.83105 39.0146L7.01439 43.3158L7.0144 43.3158L2.83105 39.0146ZM39.4229 3.4248L43.6059 7.72626C44.3824 6.97106 45.6189 6.97135 46.3949 7.72605L50.5781 3.4248L54.7613 -0.876441C49.3271 -6.16156 40.6737 -6.16089 35.2399 -0.87665L39.4229 3.4248ZM50.5781 3.4248L46.3948 7.72598L82.9876 43.3158L87.1709 39.0146L91.3542 34.7135L54.7614 -0.87637L50.5781 3.4248ZM87.1709 39.0146L82.9876 43.3158C84.2738 44.5668 83.3885 46.7499 81.5925 46.75L81.5928 52.75L81.5931 58.75C94.1583 58.7494 100.363 43.4757 91.3542 34.7135L87.1709 39.0146ZM81.5928 52.75V46.75H79.001V52.75V58.75H81.5928V52.75ZM77.001 54.75H71.001V84H77.001H83.001V54.75H77.001ZM77.001 84L71.001 83.9997L71.0002 84L71.001 90L71.0018 96C77.6276 95.9991 83.0006 90.6275 83.001 84.0003L77.001 84ZM71.001 90V84H54.001V90V96H71.001V90ZM52.001 88H58.001V69H52.001H46.001V88H52.001ZM52.001 69L58.001 68.9998C58.0007 62.3729 52.6286 57 46.001 57V63V69L46.001 69.0002L52.001 69ZM46.001 63V57H44.001V63V69H46.001V63ZM44.001 63L44.001 57C37.3734 57 32.0012 62.3729 32.001 68.9998L38.001 69L44.001 69.0002L44.001 69L44.001 63ZM38.001 69H32.001V88H38.001H44.001V69H38.001ZM36.001 90V84H19.001V90V96H36.001V90ZM19.001 90V84L19.001 83.9997L13.001 84L7.00098 84.0003C7.00133 90.627 12.3733 96 19.001 96V90ZM13.001 84H19.001V54.75H13.001H7.00098V84H13.001ZM11.001 52.75V46.75H8.4082V52.75V58.75H11.001V52.75ZM8.4082 52.75L8.40834 46.75C6.61419 46.75 5.72676 44.5681 7.01439 43.3158L2.83105 39.0146L-1.35228 34.7135C-10.3599 43.4744 -4.15933 58.7497 8.40806 58.75L8.4082 52.75ZM2.83105 39.0146L7.0144 43.3158L43.6062 7.72592L39.4229 3.4248L35.2395 -0.876314L-1.35229 34.7135L2.83105 39.0146ZM13.001 54.75H19.001C19.001 50.3317 15.4193 46.75 11.001 46.75V52.75V58.75C8.79184 58.75 7.00098 56.9591 7.00098 54.75H13.001ZM38.001 88H32.001C32.001 85.7909 33.7918 84 36.001 84V90V96C40.4193 96 44.001 92.4183 44.001 88H38.001ZM54.001 90V84C56.2101 84 58.001 85.7909 58.001 88H52.001H46.001C46.001 92.4183 49.5827 96 54.001 96V90ZM79.001 52.75V46.75C74.5827 46.75 71.001 50.3317 71.001 54.75H77.001H83.001C83.001 56.9591 81.2101 58.75 79.001 58.75V52.75Z" fill="black" mask="url(#path-2-inside-1_5613_59330)"/>
</svg>
