<svg width="90" height="90" viewBox="0 0 90 90" fill="none" xmlns="http://www.w3.org/2000/svg">
<g clip-path="url(#clip0_5694_1687)">
<path d="M31 17H70C79.3888 17 87 24.6112 87 34V51C87 52.6569 85.6569 54 84 54H17C15.3431 54 14 52.6569 14 51V34C14 24.6112 21.6112 17 31 17Z" stroke="white" stroke-width="6"/>
<mask id="path-2-inside-1_5694_1687" fill="white">
<path d="M70 14C81.0457 14 90 22.9543 90 34V51C90 54.3137 87.3137 57 84 57H30C33.3137 57 36 54.3137 36 51V37C36 27.2808 29.0671 19.1813 19.877 17.376C23.0573 15.2438 26.8834 14 31 14H70Z"/>
</mask>
<path d="M90 34L96 34V34L90 34ZM90 51L96 51V51H90ZM84 57L84 63L84 63L84 57ZM19.877 17.376L16.5358 12.3923L4.49001 20.4681L18.7204 23.2635L19.877 17.376ZM31 14L31 8L31 14ZM70 14V20C77.732 20 84 26.268 84 34L90 34L96 34C96 19.6406 84.3594 8 70 8V14ZM90 34H84V51H90H96V34H90ZM90 51L84 51L84 51L84 57L84 63C90.6274 63 96 57.6274 96 51L90 51ZM84 57V51H30V57V63H84V57ZM30 57L30 63C36.6274 63 42 57.6274 42 51H36H30H30L30 57ZM36 51H42V37H36H30V51H36ZM36 37H42C42 24.358 32.9834 13.8359 21.0335 11.4885L19.877 17.376L18.7204 23.2635C25.1508 24.5266 30 30.2035 30 37H36ZM19.877 17.376L23.2181 22.3596C25.4411 20.8693 28.11 20 31 20L31 14L31 8C25.6568 8 20.6735 9.61831 16.5358 12.3923L19.877 17.376ZM31 14V20H70V14V8H31V14Z" fill="white" mask="url(#path-2-inside-1_5694_1687)"/>
<path d="M36.5918 54L26.0547 70.8828C23.68 74.6878 19.5116 76.9999 15.0264 77H11.0293C5.53326 77 2.18093 70.9564 5.09082 66.2939L12.7637 54H36.5918Z" stroke="white" stroke-width="6"/>
<rect x="55" y="2" width="7" height="34" rx="3.5" fill="white"/>
<rect x="55" width="16" height="10" rx="5" fill="white"/>
<path d="M50 88C50 89.1046 49.1046 90 48 90H46C44.8954 90 44 89.1046 44 88V53C44 51.8954 44.8954 51 46 51H57C58.1046 51 59 51.8954 59 53V88C59 89.1046 58.1046 90 57 90H55C53.8954 90 53 89.1046 53 88V58.5C53 57.6716 52.3284 57 51.5 57V57C50.6716 57 50 57.6716 50 58.5V88Z" fill="white"/>
</g>
<defs>
<clipPath id="clip0_5694_1687">
<rect width="90" height="90" fill="white"/>
</clipPath>
</defs>
</svg>
