<svg width="90" height="90" viewBox="0 0 90 90" fill="none" xmlns="http://www.w3.org/2000/svg">
<g clip-path="url(#clip0_5694_1701)">
<path d="M36.5918 54L26.0547 70.8828C23.68 74.6878 19.5116 76.9999 15.0264 77H11.0293C5.53326 77 2.18093 70.9564 5.09082 66.2939L12.7637 54H36.5918Z" fill="black" stroke="black" stroke-width="6"/>
<path d="M70.5166 14.0068C81.3235 14.2808 90 23.127 90 34V51L89.9922 51.3086C89.8367 54.3767 87.3767 56.8367 84.3086 56.9922L84 57H17L16.6914 56.9922C13.6233 56.8367 11.1633 54.3767 11.0078 51.3086L11 51V34C11 23.127 19.6765 14.2808 30.4834 14.0068L31 14H52V20H31C23.268 20 17 26.268 17 34V51H84V34C84 26.268 77.732 20 70 20H65V14H70L70.5166 14.0068Z" fill="black"/>
<path d="M70 14C81.0457 14 90 22.9543 90 34V51C90 54.3137 87.3137 57 84 57H30C33.3137 57 36 54.3137 36 51V37C36 27.2808 29.0671 19.1813 19.877 17.376C23.0573 15.2438 26.8834 14 31 14H52V32C52 35.3137 54.6863 38 58 38H59C62.3137 38 65 35.3137 65 32V14H70Z" fill="black"/>
<path d="M55 88C55 89.1046 54.1046 90 53 90H46C44.8954 90 44 89.1046 44 88V53C44 51.8954 44.8954 51 46 51H53C54.1046 51 55 51.8954 55 53V88Z" fill="black"/>
<rect x="55" y="2" width="7" height="34" rx="3.5" fill="black"/>
<rect x="55" width="16" height="10" rx="5" fill="black"/>
</g>
<defs>
<clipPath id="clip0_5694_1701">
<rect width="90" height="90" fill="white"/>
</clipPath>
</defs>
</svg>
