<svg width="100" height="100" viewBox="0 0 100 100" fill="none" xmlns="http://www.w3.org/2000/svg">
<circle cx="50" cy="50" r="47" stroke="black" stroke-width="6"/>
<path d="M50.2327 29.37C48.7927 29.37 47.5927 28.92 46.6327 28.02C45.7327 27.06 45.2827 25.83 45.2827 24.33C45.2827 22.89 45.7327 21.72 46.6327 20.82C47.5927 19.92 48.7927 19.47 50.2327 19.47C51.6727 19.47 52.8427 19.92 53.7427 20.82C54.7027 21.72 55.1827 22.89 55.1827 24.33C55.1827 25.83 54.7027 27.06 53.7427 28.02C52.8427 28.92 51.6727 29.37 50.2327 29.37ZM39.7027 41.88V39.45H54.0127V76.71C54.0127 78.81 54.1027 80.04 54.2827 80.4C54.4627 80.76 55.0327 81 55.9927 81.12L60.9427 81.66V84H39.7027V81.66L44.6527 81.12C45.6127 81 46.1827 80.76 46.3627 80.4C46.5427 80.04 46.6327 78.81 46.6327 76.71V46.74C46.6327 44.64 46.5427 43.41 46.3627 43.05C46.1827 42.69 45.6127 42.45 44.6527 42.33L39.7027 41.88Z" fill="black"/>
</svg>
