<svg width="80" height="100" viewBox="0 0 80 100" fill="none" xmlns="http://www.w3.org/2000/svg">
<g clip-path="url(#clip0_5594_15206)">
<path d="M39.5 3C50.2077 3 59 11.8918 59 23C59 34.1082 50.2077 43 39.5 43C28.7923 43 20 34.1082 20 23C20 11.8918 28.7923 3 39.5 3Z" stroke="black" stroke-width="6"/>
<path d="M50 49C66.5685 49 80 62.4315 80 79V92.2393H74V79C74 65.7452 63.2548 55 50 55H30C16.7452 55 6 65.7452 6 79V100H0V79C1.17334e-06 62.4315 13.4315 49 30 49H50Z" fill="black"/>
<path d="M74.5117 77.834C77.5688 77.9888 80 80.5167 80 83.6123V94.2148L79.9922 94.5117C79.8423 97.4703 77.4703 99.8424 74.5117 99.9922L74.2139 100H37.0869L36.5166 99.9854C30.8474 99.6981 26.302 95.1525 26.0146 89.4834L26 88.9131C26 82.9812 30.6585 78.1377 36.5166 77.8408L37.0869 77.8262H44.4668C44.1644 78.8313 44 79.8964 44 81C44 81.9772 44.129 82.9242 44.3682 83.8262H37.0869C34.2775 83.8262 32 86.1037 32 88.9131C32.0001 91.7225 34.2775 94 37.0869 94H74V77.8262H74.2139L74.5117 77.834Z" fill="black"/>
<path d="M23 73C23 71.3431 21.6569 70 20 70C18.3431 70 17 71.3431 17 73H23ZM20 73H17V100H20H23V73H20Z" fill="black"/>
<path d="M55.0498 55.6768C55.667 54.1413 57.4108 53.3952 58.9473 54.0098L62.1143 55.2764C63.2532 55.732 64 56.8358 64 58.0625V94C64 95.6569 62.6569 97 61 97H42.8779C40.7536 96.9997 39.3024 94.852 40.0947 92.8809L55.0498 55.6768Z" stroke="black" stroke-width="6"/>
<line x1="54.1142" y1="9.78543" x2="19.1142" y2="23.7854" stroke="black" stroke-width="6"/>
<path d="M38.6261 16.6669C40.099 17.4257 41.9081 16.8468 42.6669 15.3739C43.4257 13.901 42.8468 12.0919 41.3739 11.3331L38.6261 16.6669ZM40 14L41.3739 11.3331L28.5995 4.75227L27.2256 7.41919L25.8517 10.0861L38.6261 16.6669L40 14Z" fill="black"/>
</g>
<defs>
<clipPath id="clip0_5594_15206">
<rect width="80" height="100" fill="white"/>
</clipPath>
</defs>
</svg>
