<svg width="90" height="90" viewBox="0 0 90 90" fill="none" xmlns="http://www.w3.org/2000/svg">
<g clip-path="url(#clip0_5615_70185)">
<path d="M27.0967 0.00341797C27.1381 0.00475808 27.1794 0.00721001 27.2207 0.0102539C27.2738 0.0141729 27.3268 0.0190714 27.3799 0.0258789C27.429 0.0321236 27.4776 0.0406551 27.5264 0.0493164C27.5813 0.0591619 27.6367 0.0675363 27.6914 0.0805664C27.7029 0.0832668 27.7142 0.0865197 27.7256 0.0893555C27.8024 0.108611 27.8789 0.131064 27.9551 0.156738C27.9766 0.163962 27.9981 0.171475 28.0195 0.179199C28.0786 0.200629 28.1378 0.22312 28.1963 0.248535L71.3232 18.9995H86C88.209 18.9995 89.9998 20.7906 90 22.9995C90 25.2087 88.2091 26.9995 86 26.9995H84V34.9995L83.9961 35.1538C83.9895 35.2848 83.9712 35.4135 83.9482 35.5396C84.0048 36.2067 83.7437 36.9641 83.1553 37.5317L80.6973 39.9009C80.018 40.5561 80.0188 41.6442 80.6982 42.2993C81.3437 42.9217 82.3654 42.9218 83.0107 42.2993L85.3584 40.0356C86.7234 38.7191 88.9996 39.1032 89 40.9995L88.9902 41.3599C88.8026 45.0583 85.7449 47.9994 82 47.9995L81.6396 47.9907C78.0605 47.8093 75.1903 44.9391 75.0088 41.3599L75 40.9995C75.0002 38.6156 76.1924 36.5105 78.0127 35.2466C78.0102 35.2159 78.0055 35.1848 78.0039 35.1538L78 34.9995V26.9995H36V83.9995H40L40.1543 84.0034C41.7393 84.0837 42.9998 85.3946 43 86.9995C43 88.6046 41.7394 89.9153 40.1543 89.9956L40 89.9995H14C12.3431 89.9995 11 88.6564 11 86.9995C11.0002 85.3429 12.3433 83.9995 14 83.9995H18V26.9995H10V30.9995C12.209 30.9995 13.9998 32.7906 14 34.9995V40.9995C14 43.1395 12.3194 44.8874 10.2061 44.9946L10 44.9995H4L3.79395 44.9946C1.74881 44.8908 0.108652 43.2507 0.00488281 41.2056L0 40.9995V34.9995C0.000238098 32.7906 1.79101 30.9995 4 30.9995V26.9995L3.79395 26.9946C1.68057 26.8874 0 25.1395 0 22.9995C0.000238098 20.7906 1.79101 18.9995 4 18.9995H4.94043L24.9824 0.779785C25.0327 0.734082 25.0843 0.69058 25.1367 0.648926C25.1471 0.640719 25.1575 0.632574 25.168 0.624512C25.2367 0.571374 25.307 0.521407 25.3789 0.475098C25.3851 0.471151 25.3913 0.46728 25.3975 0.463379C25.4513 0.429255 25.5071 0.398985 25.5625 0.368652C25.601 0.347647 25.6394 0.326418 25.6787 0.307129C25.7276 0.283136 25.7774 0.261881 25.8271 0.240723C25.8679 0.223409 25.9087 0.206422 25.9502 0.190918C25.9955 0.174017 26.0411 0.15867 26.0869 0.144043C26.1335 0.129124 26.1802 0.114694 26.2275 0.102051C26.2783 0.0885559 26.3296 0.0776687 26.3809 0.0668945C26.4208 0.058434 26.4607 0.050295 26.501 0.043457C26.5504 0.0351687 26.5998 0.0277752 26.6494 0.0219727C26.7026 0.0156594 26.7559 0.0107806 26.8096 0.00732422C26.8483 0.00488493 26.887 0.00436113 26.9258 0.00341797C26.9827 0.00197218 27.0395 0.00159119 27.0967 0.00341797ZM53 37.9995C54.6567 37.9995 55.9998 39.3429 56 40.9995V51.9995H64V47.9995C64.0002 46.3429 65.3433 44.9995 67 44.9995C68.6567 44.9995 69.9998 46.3429 70 47.9995V61.9995H84V57.9995C84.0002 56.3429 85.3433 54.9995 87 54.9995C88.6567 54.9995 89.9998 56.3429 90 57.9995V86.9995L89.9961 87.1548C89.9871 87.332 89.9603 87.5046 89.9219 87.6724C89.9119 87.7161 89.9006 87.7593 89.8887 87.8022C89.8747 87.8527 89.8593 87.9023 89.8428 87.9517C89.8282 87.9952 89.8124 88.038 89.7959 88.0806C89.7779 88.127 89.7594 88.173 89.7393 88.2183C89.7186 88.2647 89.6958 88.3098 89.6729 88.355C89.6537 88.3927 89.635 88.4305 89.6143 88.4673C89.5858 88.5178 89.5556 88.5671 89.5244 88.6157C89.5053 88.6455 89.4869 88.6756 89.4668 88.7046C89.436 88.749 89.4032 88.7918 89.3701 88.8345C89.3423 88.8704 89.3146 88.9063 89.2852 88.9409C89.2536 88.978 89.2198 89.0128 89.1865 89.0483C89.1567 89.0801 89.1278 89.1126 89.0967 89.1431C89.0568 89.1821 89.0147 89.2186 88.9727 89.2554C88.9443 89.2802 88.9169 89.3059 88.8877 89.3296C88.8489 89.3611 88.808 89.3899 88.7676 89.4194C88.7273 89.4489 88.6873 89.4788 88.6455 89.5063C88.6136 89.5273 88.5805 89.5462 88.5479 89.5659C88.5023 89.5935 88.4573 89.6218 88.4102 89.647C88.3663 89.6704 88.3206 89.6901 88.2754 89.7114C88.2322 89.7318 88.1898 89.7537 88.1455 89.772C88.0979 89.7917 88.0488 89.8074 88 89.8247C87.9609 89.8385 87.9226 89.8545 87.8828 89.8667C87.8159 89.8873 87.7475 89.9035 87.6787 89.9194C87.6504 89.926 87.6224 89.9342 87.5938 89.9399C87.5847 89.9418 87.5755 89.9431 87.5664 89.9448C87.4787 89.9616 87.39 89.9759 87.2998 89.9849C87.2946 89.9854 87.2894 89.9854 87.2842 89.9858C87.1906 89.9946 87.0959 89.9995 87 89.9995H77L76.8457 89.9956C76.7291 89.9897 76.6146 89.9754 76.502 89.9565C76.3387 89.9841 76.1711 89.9995 76 89.9995C74.3431 89.9995 73 88.6564 73 86.9995V82.4995C72.9998 81.119 71.8806 79.9995 70.5 79.9995C69.1194 79.9995 68.0002 81.119 68 82.4995V86.9995C68 88.6564 66.6569 89.9995 65 89.9995H53L52.8457 89.9956C52.8244 89.9945 52.8034 89.9903 52.7822 89.9888C52.7294 89.985 52.677 89.9806 52.625 89.9741C52.5771 89.9681 52.5296 89.9609 52.4824 89.9526C52.4318 89.9438 52.3818 89.9337 52.332 89.9224C52.2913 89.9131 52.251 89.903 52.2109 89.8921C52.1625 89.8789 52.1148 89.8646 52.0674 89.8491C52.0163 89.8324 51.9658 89.8147 51.916 89.7954C51.8815 89.782 51.8474 89.768 51.8135 89.7534C51.7649 89.7325 51.7171 89.7104 51.6699 89.687C51.6262 89.6653 51.5835 89.6424 51.541 89.6187C51.5023 89.597 51.4644 89.5745 51.4268 89.5513C51.387 89.5267 51.348 89.5014 51.3096 89.4751C51.2733 89.4503 51.2373 89.4253 51.2021 89.3989C51.1582 89.3659 51.1153 89.3317 51.0732 89.2964C51.0448 89.2725 51.0168 89.2481 50.9893 89.2231C50.951 89.1885 50.9134 89.1533 50.877 89.1167C50.8456 89.0852 50.8151 89.0529 50.7852 89.02C50.7509 88.9825 50.7179 88.944 50.6855 88.9048C50.6609 88.8749 50.6367 88.8448 50.6133 88.814C50.5808 88.7713 50.5498 88.7276 50.5195 88.6831C50.4956 88.6479 50.4716 88.6129 50.4492 88.5767C50.4237 88.5354 50.3996 88.4933 50.376 88.4507C50.3539 88.4108 50.3328 88.3705 50.3125 88.3296C50.2918 88.2877 50.2717 88.2456 50.2529 88.2026C50.2331 88.1574 50.2149 88.1114 50.1973 88.0649C50.1812 88.0227 50.1656 87.9802 50.1514 87.937C50.1367 87.8925 50.1229 87.8477 50.1104 87.8022C50.0966 87.7526 50.0845 87.7025 50.0732 87.6519C50.0637 87.6089 50.0555 87.5656 50.0479 87.522C50.039 87.4716 50.0317 87.4209 50.0254 87.3696C50.0195 87.3221 50.0143 87.2743 50.0107 87.2261C50.009 87.2022 50.0051 87.1779 50.0039 87.1538L50 86.9995V40.9995C50.0002 39.3429 51.3433 37.9995 53 37.9995ZM24 83.9995H30V80.2349C29.9972 80.2324 29.994 80.2305 29.9912 80.228L29.8789 80.1216L24 74.2427V83.9995ZM56 83.9995H62V79.9995C62.0002 76.686 64.6864 73.9995 68 73.9995H73C76.3136 73.9995 78.9998 76.686 79 79.9995V83.9995H84V67.9995H56V83.9995ZM24.1211 62.1216L24.0088 62.228C24.006 62.2305 24.0028 62.2324 24 62.2349V65.7573L30 71.7573V56.2427L24.1211 62.1216ZM56 61.9995H64V57.9995H56V61.9995ZM24 53.7573L30 47.7573V45.2427L24 39.2427V53.7573ZM6 38.9995H8V36.9995H6V38.9995ZM24 30.7632C24.0413 30.8001 24.0814 30.8388 24.1211 30.8784L30 36.7573V26.9995H24V30.7632ZM35.5781 18.9995H56.2744L30.833 7.93701L35.5781 18.9995ZM24.9502 18.9995H29.0498L27 14.2202L24.9502 18.9995ZM13.8604 18.9995H18.4219L21.3379 12.2007L13.8604 18.9995Z" fill="white"/>
</g>
<defs>
<clipPath id="clip0_5615_70185">
<rect width="90" height="90" fill="white"/>
</clipPath>
</defs>
</svg>
