<svg width="90" height="90" viewBox="0 0 90 90" fill="none" xmlns="http://www.w3.org/2000/svg">
<g clip-path="url(#clip0_5630_1499)">
<mask id="path-1-inside-1_5630_1499" fill="white">
<path d="M61.5 0C77.2401 0 90 12.7599 90 28.5C90 44.2401 77.2401 57 61.5 57C59.4183 57 57.389 56.7759 55.4343 56.3519C54.7415 56.2016 54.0135 56.3947 53.5122 56.896L46.994 63.4142C46.6189 63.7893 46.1102 64 45.5798 64H40C39.4477 64 39 64.4477 39 65V69C39 70.1046 38.1046 71 37 71H33C32.4477 71 32 71.4477 32 72V77.9237C32 78.2339 31.8768 78.5314 31.6574 78.7508C31.4332 78.975 31.1276 79.0986 30.8107 79.0932L26.249 79.0166C25.6968 79.0073 25.2417 79.4478 25.2324 80L25.1572 84.4563C25.1484 84.9748 24.9386 85.4697 24.572 85.8364L22.7607 87.6484C21.664 89.0774 19.9405 90 18 90H6C2.68629 90 0 87.3137 0 84V72C0 70.6045 0.477301 69.3209 1.27637 68.3018C1.45848 68.0519 1.66218 67.8124 1.8877 67.5869L33.0819 36.3918C33.5814 35.8923 33.7749 35.1674 33.6275 34.4765C33.2163 32.5493 33 30.5499 33 28.5C33 12.7599 45.7599 0 61.5 0ZM68 19C66.3431 19 65 20.3431 65 22C65 23.6569 66.3431 25 68 25C69.6569 25 71 23.6569 71 22C71 20.3431 69.6569 19 68 19Z"/>
</mask>
<path d="M40 64V58V64ZM33 71V65V71ZM26.249 79.0166L26.1481 85.0158H26.1482L26.249 79.0166ZM25.2324 80L31.2316 80.1013L31.2316 80.1009L25.2324 80ZM22.7607 87.6484L18.5172 83.4067L18.2399 83.6841L18.001 83.9953L22.7607 87.6484ZM1.27637 68.3018L5.99815 72.0037L6.06326 71.9207L6.1254 71.8354L1.27637 68.3018ZM1.8877 67.5869L6.13034 71.8296L6.1304 71.8295L1.8877 67.5869ZM33.0819 36.3918L28.8391 32.1492L33.0819 36.3918ZM33.6275 34.4765L39.4954 33.2245L33.6275 34.4765ZM30.8107 79.0932L30.9114 73.0941L30.8107 79.0932ZM25.1572 84.4563L31.1563 84.5575L25.1572 84.4563ZM24.572 85.8364L28.8155 90.0782L24.572 85.8364ZM55.4343 56.3519L56.7062 50.4883L55.4343 56.3519ZM61.5 0V6C73.9264 6 84 16.0736 84 28.5H90H96C96 9.44618 80.5538 -6 61.5 -6V0ZM90 28.5H84C84 40.9264 73.9264 51 61.5 51V57V63C80.5538 63 96 47.5538 96 28.5H90ZM61.5 57V51C59.8501 51 58.2471 50.8225 56.7062 50.4883L55.4343 56.3519L54.1623 62.2155C56.5309 62.7293 58.9865 63 61.5 63V57ZM53.5122 56.896L49.2696 52.6533L42.7514 59.1716L46.994 63.4142L51.2366 67.6569L57.7549 61.1386L53.5122 56.896ZM45.5798 64V58H40V64V70H45.5798V64ZM40 64V58C36.134 58 33 61.134 33 65H39H45C45 67.7614 42.7614 70 40 70V64ZM39 65H33V69H39H45V65H39ZM37 71V65H33V71V77H37V71ZM33 71V65C29.134 65 26 68.134 26 72H32H38C38 74.7614 35.7614 77 33 77V71ZM32 72H26V77.9237H32H38V72H32ZM30.8107 79.0932L30.9114 73.0941L26.3498 73.0174L26.249 79.0166L26.1482 85.0158L30.7099 85.0924L30.8107 79.0932ZM26.249 79.0166L26.3499 73.0174C22.4811 72.9524 19.2982 76.037 19.2333 79.8991L25.2324 80L31.2316 80.1009C31.1852 82.8586 28.9125 85.0622 26.1481 85.0158L26.249 79.0166ZM25.2324 80L19.2333 79.8987L19.1581 84.355L25.1572 84.4563L31.1563 84.5575L31.2316 80.1013L25.2324 80ZM24.572 85.8364L20.3285 81.5947L18.5172 83.4067L22.7607 87.6484L27.0043 91.8902L28.8155 90.0782L24.572 85.8364ZM22.7607 87.6484L18.001 83.9953C17.9989 83.9981 17.9963 84.0008 17.9938 84.0028C17.9915 84.0048 17.9907 84.005 17.9923 84.0041C17.9944 84.0031 17.9981 84.0016 18.0027 84.0005C18.0048 84 18.0061 83.9998 18.0063 83.9998C18.0066 83.9997 18.0046 84 18 84V90V96C21.8896 96 25.3402 94.1422 27.5204 91.3016L22.7607 87.6484ZM18 90V84H6V90V96H18V90ZM6 90V84H0H-6C-6 90.6274 -0.627417 96 6 96V90ZM0 84H6V72H0H-6V84H0ZM0 72H6C6 71.9938 6.00048 71.9924 6.00011 71.9945C5.99977 71.9965 5.9991 71.9992 5.99812 72.002C5.99617 72.0076 5.99508 72.0077 5.99815 72.0037L1.27637 68.3018L-3.44542 64.5998C-5.04099 66.6349 -6 69.2119 -6 72H0ZM1.27637 68.3018L6.1254 71.8354C6.12749 71.8326 6.12909 71.8308 6.13034 71.8296L1.8877 67.5869L-2.35495 63.3443C-2.80474 63.7941 -3.21053 64.2711 -3.57267 64.7681L1.27637 68.3018ZM1.8877 67.5869L6.1304 71.8295L37.3246 40.6344L33.0819 36.3918L28.8391 32.1492L-2.35501 63.3443L1.8877 67.5869ZM33.6275 34.4765L39.4954 33.2245C39.1715 31.7064 39 30.1267 39 28.5H33H27C27 30.9731 27.2611 33.3921 27.7596 35.7285L33.6275 34.4765ZM33 28.5H39C39 16.0736 49.0736 6 61.5 6V0V-6C42.4462 -6 27 9.44618 27 28.5H33ZM68 19V13C63.0294 13 59 17.0294 59 22H65H71C71 23.6569 69.6569 25 68 25V19ZM65 22H59C59 26.9706 63.0294 31 68 31V25V19C69.6569 19 71 20.3431 71 22H65ZM68 25V31C72.9706 31 77 26.9706 77 22H71H65C65 20.3431 66.3431 19 68 19V25ZM71 22H77C77 17.0294 72.9706 13 68 13V19V25C66.3431 25 65 23.6569 65 22H71ZM33.0819 36.3918L37.3246 40.6344C39.3545 38.6044 40.0391 35.7723 39.4954 33.2245L33.6275 34.4765L27.7596 35.7285C27.5108 34.5624 27.8082 33.1802 28.8391 32.1492L33.0819 36.3918ZM31.6574 78.7508L27.4148 74.5082C28.3405 73.5824 29.6024 73.0721 30.9114 73.0941L30.8107 79.0932L30.7099 85.0924C32.6529 85.125 34.5259 84.3676 35.9 82.9934L31.6574 78.7508ZM32 77.9237H26C26 76.6426 26.5089 75.414 27.4148 74.5082L31.6574 78.7508L35.9 82.9934C37.2446 81.6489 38 79.8252 38 77.9237H32ZM39 69H33C33 66.7909 34.7909 65 37 65V71V77C41.4183 77 45 73.4183 45 69H39ZM46.994 63.4142L42.7514 59.1716C43.5015 58.4214 44.5189 58 45.5798 58V64V70C47.7015 70 49.7363 69.1571 51.2366 67.6569L46.994 63.4142ZM25.1572 84.4563L19.1581 84.355C19.1756 83.318 19.5952 82.3282 20.3285 81.5947L24.572 85.8364L28.8155 90.0782C30.282 88.6111 31.1213 86.6317 31.1563 84.5575L25.1572 84.4563ZM55.4343 56.3519L56.7062 50.4883C54.1509 49.934 51.3066 50.6164 49.2696 52.6533L53.5122 56.896L57.7549 61.1386C56.7204 62.1731 55.3321 62.4693 54.1623 62.2155L55.4343 56.3519Z" fill="black" mask="url(#path-1-inside-1_5630_1499)"/>
</g>
<defs>
<clipPath id="clip0_5630_1499">
<rect width="90" height="90" fill="white"/>
</clipPath>
</defs>
</svg>
