<svg width="100" height="80" viewBox="0 0 100 80" fill="none" xmlns="http://www.w3.org/2000/svg">
<g clip-path="url(#clip0_5610_41771)">
<mask id="path-1-inside-1_5610_41771" fill="white">
<path d="M52 0C43.7157 0 37 6.71573 37 15V29.6182C37 37.9024 43.7157 44.6182 52 44.6182H69.6673C69.8971 44.6182 70.1198 44.6973 70.298 44.8421L84.8818 56.6953C89.122 60.1414 95.3865 56.5873 94.6045 51.1797L93.4738 43.3573C93.4148 42.9493 93.6141 42.5496 93.9632 42.3304C98.1897 39.6775 101 34.9765 101 29.6182V15C101 6.71573 94.2843 0 86 0H52Z"/>
</mask>
<path d="M37 29.6182L31 29.6182V29.6182H37ZM84.8818 56.6953L81.0976 61.3515L81.0975 61.3514L84.8818 56.6953ZM94.6045 51.1797L88.6663 52.0384L88.6662 52.0381L94.6045 51.1797ZM101 29.6182L107 29.6182L107 29.6182L101 29.6182ZM93.9632 42.3304L97.1531 47.4123L93.9632 42.3304ZM70.298 44.8421L66.5138 49.4982L70.298 44.8421ZM52 0V6C47.0294 6 43 10.0294 43 15H37H31C31 3.40202 40.402 -6 52 -6V0ZM37 15H43V29.6182H37H31V15H37ZM37 29.6182L43 29.6181C43 34.5887 47.0295 38.6182 52 38.6182V44.6182V50.6182C40.402 50.6182 31 41.2161 31 29.6182L37 29.6182ZM52 44.6182V38.6182H69.6673V44.6182V50.6182H52V44.6182ZM70.298 44.8421L74.0823 40.1861L88.6661 52.0392L84.8818 56.6953L81.0975 61.3514L66.5138 49.4982L70.298 44.8421ZM84.8818 56.6953L88.666 52.0391C88.6922 52.0604 88.7084 52.0703 88.7136 52.0734C88.7188 52.0764 88.7171 52.0749 88.7088 52.0717C88.7005 52.0685 88.6895 52.0651 88.6766 52.0623C88.6639 52.0596 88.6521 52.0581 88.642 52.0575C88.6217 52.0564 88.6149 52.0591 88.622 52.0573C88.6256 52.0565 88.6316 52.0548 88.6397 52.0516C88.6478 52.0484 88.6567 52.0442 88.6659 52.039C88.675 52.0338 88.6832 52.0282 88.6901 52.0229C88.697 52.0176 88.7017 52.0133 88.7042 52.0107C88.7094 52.0054 88.7036 52.0098 88.6943 52.0277C88.6896 52.0366 88.6848 52.0475 88.6806 52.0598C88.6764 52.0722 88.6737 52.0834 88.6723 52.092C88.6707 52.1008 88.6711 52.103 88.6712 52.0969C88.6713 52.0909 88.6711 52.0719 88.6663 52.0384L94.6045 51.1797L100.543 50.3209C102.107 61.1351 89.5788 68.2444 81.0976 61.3515L84.8818 56.6953ZM94.6045 51.1797L88.6662 52.0381L87.5355 44.2157L93.4738 43.3573L99.4121 42.499L100.543 50.3213L94.6045 51.1797ZM93.9632 42.3304L90.7734 37.2486C93.3256 35.6466 95 32.8255 95 29.6181L101 29.6182L107 29.6182C107 37.1275 103.054 43.7084 97.1531 47.4123L93.9632 42.3304ZM101 29.6182H95V15H101H107V29.6182H101ZM101 15H95C95 10.0294 90.9706 6 86 6V0V-6C97.598 -6 107 3.40202 107 15H101ZM86 0V6H52V0V-6H86V0ZM93.4738 43.3573L87.5355 44.2157C87.1148 41.3053 88.5479 38.6456 90.7734 37.2486L93.9632 42.3304L97.1531 47.4123C98.6802 46.4536 99.7148 44.5933 99.4121 42.499L93.4738 43.3573ZM69.6673 44.6182V38.6182C71.2754 38.6182 72.8345 39.1718 74.0823 40.1861L70.298 44.8421L66.5138 49.4982C67.4051 50.2227 68.5187 50.6182 69.6673 50.6182V44.6182Z" fill="black" mask="url(#path-1-inside-1_5610_41771)"/>
<path d="M41.3359 57H32.4219V54.6211L34.5273 53.8691L33.8574 51.8184H27.6367L26.9395 53.8418L29.127 54.6211V57H20.6641V54.6211L22.7148 53.8418L28.8672 37.3398L33.3516 37.2578L39.3672 53.8418L41.3359 54.6211V57ZM30.8359 42.1934L28.6211 48.8242H32.9277L30.8359 42.1934Z" fill="black"/>
<path d="M33 32H15L14.5371 32.0117C9.78171 32.2526 6.00003 36.1847 6 41V53.0654C6 56.4226 7.83711 59.3608 10.5869 60.9121L10.8555 61.0576L10.8574 61.0586C13.6547 62.5155 15.3877 65.8579 14.3828 69.2852L14.3818 69.2861L13.1025 73.6465V73.6475H13.1035L26.8945 63.4395L26.8955 63.4375L27.124 63.2764C28.2794 62.4911 29.6491 62.0654 31.0586 62.0654H47C51.9706 62.0654 56 58.036 56 53.0654V48.6182H62V53.0654C62 61.3497 55.2843 68.0654 47 68.0654H31.0586C30.8445 68.0654 30.636 68.1344 30.4639 68.2617L16.6729 78.4697C12.0494 81.892 5.72534 77.4764 7.3457 71.957L8.625 67.5967C8.7656 67.1172 8.52912 66.6107 8.08594 66.3799C3.28158 63.8798 0 58.8559 0 53.0654V41C3.09242e-05 32.7158 6.71575 26 15 26H33V32Z" fill="black"/>
<mask id="path-5-inside-2_5610_41771" fill="white">
<path d="M52 0C43.7157 0 37 6.71573 37 15V29.6182C37 37.9024 43.7157 44.6182 52 44.6182H69.6673C69.8971 44.6182 70.1198 44.6973 70.298 44.8421L84.8818 56.6953C89.122 60.1414 95.3865 56.5873 94.6045 51.1797L93.4738 43.3573C93.4148 42.9493 93.6141 42.5496 93.9632 42.3304C98.1897 39.6775 101 34.9765 101 29.6182V15C101 6.71573 94.2843 0 86 0H52Z"/>
</mask>
<path d="M37 29.6182L31 29.6182V29.6182H37ZM84.8818 56.6953L81.0976 61.3515L81.0975 61.3514L84.8818 56.6953ZM94.6045 51.1797L88.6663 52.0384L88.6662 52.0381L94.6045 51.1797ZM101 29.6182L107 29.6182L107 29.6182L101 29.6182ZM93.9632 42.3304L97.1531 47.4123L93.9632 42.3304ZM70.298 44.8421L66.5138 49.4982L70.298 44.8421ZM52 0V6C47.0294 6 43 10.0294 43 15H37H31C31 3.40202 40.402 -6 52 -6V0ZM37 15H43V29.6182H37H31V15H37ZM37 29.6182L43 29.6181C43 34.5887 47.0295 38.6182 52 38.6182V44.6182V50.6182C40.402 50.6182 31 41.2161 31 29.6182L37 29.6182ZM52 44.6182V38.6182H69.6673V44.6182V50.6182H52V44.6182ZM70.298 44.8421L74.0823 40.1861L88.6661 52.0392L84.8818 56.6953L81.0975 61.3514L66.5138 49.4982L70.298 44.8421ZM84.8818 56.6953L88.666 52.0391C88.6922 52.0604 88.7084 52.0703 88.7136 52.0734C88.7188 52.0764 88.7171 52.0749 88.7088 52.0717C88.7005 52.0685 88.6895 52.0651 88.6766 52.0623C88.6639 52.0596 88.6521 52.0581 88.642 52.0575C88.6217 52.0564 88.6149 52.0591 88.622 52.0573C88.6256 52.0565 88.6316 52.0548 88.6397 52.0516C88.6478 52.0484 88.6567 52.0442 88.6659 52.039C88.675 52.0338 88.6832 52.0282 88.6901 52.0229C88.697 52.0176 88.7017 52.0133 88.7042 52.0107C88.7094 52.0054 88.7036 52.0098 88.6943 52.0277C88.6896 52.0366 88.6848 52.0475 88.6806 52.0598C88.6764 52.0722 88.6737 52.0834 88.6723 52.092C88.6707 52.1008 88.6711 52.103 88.6712 52.0969C88.6713 52.0909 88.6711 52.0719 88.6663 52.0384L94.6045 51.1797L100.543 50.3209C102.107 61.1351 89.5788 68.2444 81.0976 61.3515L84.8818 56.6953ZM94.6045 51.1797L88.6662 52.0381L87.5355 44.2157L93.4738 43.3573L99.4121 42.499L100.543 50.3213L94.6045 51.1797ZM93.9632 42.3304L90.7734 37.2486C93.3256 35.6466 95 32.8255 95 29.6181L101 29.6182L107 29.6182C107 37.1275 103.054 43.7084 97.1531 47.4123L93.9632 42.3304ZM101 29.6182H95V15H101H107V29.6182H101ZM101 15H95C95 10.0294 90.9706 6 86 6V0V-6C97.598 -6 107 3.40202 107 15H101ZM86 0V6H52V0V-6H86V0ZM93.4738 43.3573L87.5355 44.2157C87.1148 41.3053 88.5479 38.6456 90.7734 37.2486L93.9632 42.3304L97.1531 47.4123C98.6802 46.4536 99.7148 44.5933 99.4121 42.499L93.4738 43.3573ZM69.6673 44.6182V38.6182C71.2754 38.6182 72.8345 39.1718 74.0823 40.1861L70.298 44.8421L66.5138 49.4982C67.4051 50.2227 68.5187 50.6182 69.6673 50.6182V44.6182Z" fill="black" mask="url(#path-5-inside-2_5610_41771)"/>
<path d="M69.032 20.92C70.056 23.432 71.648 25.496 73.808 27.112C75.968 28.728 78.736 29.832 82.112 30.424C81.904 30.632 81.68 30.888 81.44 31.192C81.2 31.512 80.976 31.84 80.768 32.176C80.56 32.512 80.392 32.808 80.264 33.064C77.912 32.536 75.856 31.768 74.096 30.76C72.352 29.752 70.864 28.488 69.632 26.968C68.4 25.448 67.368 23.672 66.536 21.64L69.032 20.92ZM76.4 19.456H76.952L77.48 19.336L79.448 20.176C78.968 21.984 78.32 23.584 77.504 24.976C76.688 26.368 75.72 27.584 74.6 28.624C73.48 29.664 72.24 30.552 70.88 31.288C69.536 32.024 68.08 32.632 66.512 33.112C66.352 32.744 66.112 32.32 65.792 31.84C65.488 31.36 65.184 30.976 64.88 30.688C66.288 30.32 67.6 29.824 68.816 29.2C70.048 28.576 71.168 27.816 72.176 26.92C73.184 26.024 74.048 25 74.768 23.848C75.488 22.68 76.032 21.392 76.4 19.984V19.456ZM60.512 14.176H81.464V16.984H60.512V14.176ZM67.328 19.456H76.688V22.24H66.488L67.328 19.456ZM66.512 10.6H69.512C69.496 11.144 69.464 11.832 69.416 12.664C69.368 13.48 69.288 14.408 69.176 15.448C69.064 16.488 68.896 17.592 68.672 18.76C68.464 19.912 68.184 21.096 67.832 22.312C67.48 23.512 67.04 24.704 66.512 25.888C66 27.072 65.376 28.208 64.64 29.296C63.904 30.384 63.04 31.376 62.048 32.272C61.76 31.904 61.4 31.544 60.968 31.192C60.536 30.84 60.072 30.52 59.576 30.232C60.552 29.416 61.392 28.52 62.096 27.544C62.816 26.552 63.424 25.504 63.92 24.4C64.416 23.296 64.824 22.192 65.144 21.088C65.464 19.968 65.712 18.872 65.888 17.8C66.064 16.728 66.192 15.728 66.272 14.8C66.352 13.856 66.408 13.024 66.44 12.304C66.472 11.584 66.496 11.016 66.512 10.6Z" fill="black"/>
</g>
<defs>
<clipPath id="clip0_5610_41771">
<rect width="100" height="80" fill="white"/>
</clipPath>
</defs>
</svg>
