<svg width="90" height="90" viewBox="0 0 90 90" fill="none" xmlns="http://www.w3.org/2000/svg">
<path d="M6 75C9.31371 75 12 77.6863 12 81C12 84.3137 9.31371 87 6 87C2.68629 87 0 84.3137 0 81C0 77.6863 2.68629 75 6 75ZM87 78C88.6569 78 90 79.3431 90 81C90 82.6569 88.6569 84 87 84H24C22.3431 84 21 82.6569 21 81C21 79.3431 22.3431 78 24 78H87ZM6 51C9.31371 51 12 53.6863 12 57C12 60.3137 9.31371 63 6 63C2.68629 63 0 60.3137 0 57C0 53.6863 2.68629 51 6 51ZM87 54C88.6569 54 90 55.3431 90 57C90 58.6569 88.6569 60 87 60H24C22.3431 60 21 58.6569 21 57C21 55.3431 22.3431 54 24 54H87ZM6 27C9.31371 27 12 29.6863 12 33C12 36.3137 9.31371 39 6 39C2.68629 39 0 36.3137 0 33C0 29.6863 2.68629 27 6 27ZM87 30C88.6569 30 90 31.3431 90 33C90 34.6569 88.6569 36 87 36H24C22.3431 36 21 34.6569 21 33C21 31.3431 22.3431 30 24 30H87ZM6 3C9.31371 3 12 5.68629 12 9C12 12.3137 9.31371 15 6 15C2.68629 15 0 12.3137 0 9C0 5.68629 2.68629 3 6 3ZM87 6C88.6569 6 90 7.34315 90 9C90 10.6569 88.6569 12 87 12H24C22.3431 12 21 10.6569 21 9C21 7.34315 22.3431 6 24 6H87Z" fill="black"/>
</svg>
