<svg width="206" height="132" viewBox="0 0 206 132" fill="none" xmlns="http://www.w3.org/2000/svg">
<mask id="path-1-inside-1_1709_28765" fill="white">
<path fill-rule="evenodd" clip-rule="evenodd" d="M176.43 71.1609C188.227 86.8253 192.412 100.142 186.404 108.017C174.141 124.089 123.677 111.912 69.7785 80.9798C70.1016 81.2021 70.4254 81.4242 70.7498 81.6462C128.268 120.988 185.739 139.75 199.115 123.554C207.089 113.898 197.59 93.9963 176.43 71.1609Z"/>
</mask>
<path fill-rule="evenodd" clip-rule="evenodd" d="M176.43 71.1609C188.227 86.8253 192.412 100.142 186.404 108.017C174.141 124.089 123.677 111.912 69.7785 80.9798C70.1016 81.2021 70.4254 81.4242 70.7498 81.6462C128.268 120.988 185.739 139.75 199.115 123.554C207.089 113.898 197.59 93.9963 176.43 71.1609Z" fill="#384C6B"/>
<path d="M176.43 71.1609L177.18 70.4743L175.618 71.7734L176.43 71.1609ZM186.404 108.017L185.61 107.433L186.404 108.017ZM69.7785 80.9798L70.303 80.114L69.1876 81.8039L69.7785 80.9798ZM70.7498 81.6462L70.1611 82.4717L70.1611 82.4717L70.7498 81.6462ZM199.115 123.554L198.346 122.939L199.115 123.554ZM175.618 71.7734C181.481 79.5585 185.401 86.6956 187.126 92.8074C188.852 98.922 188.343 103.851 185.61 107.433L187.198 108.6C190.473 104.307 190.876 98.6409 189.062 92.2124C187.247 85.7811 183.176 78.4278 177.242 70.5485L175.618 71.7734ZM185.61 107.433C182.804 111.111 177.704 113.306 170.532 113.931C163.382 114.553 154.355 113.594 143.966 111.156C123.199 106.281 97.197 95.5481 70.303 80.114L69.254 81.8457C96.2583 97.3432 122.438 108.165 143.443 113.094C153.94 115.558 163.197 116.562 170.642 115.914C178.065 115.268 183.872 112.959 187.198 108.6L185.61 107.433ZM71.3386 80.8206C71.0148 80.5991 70.6918 80.3775 70.3694 80.1557L69.1876 81.8039C69.5114 82.0267 69.8359 82.2493 70.1611 82.4717L71.3386 80.8206ZM198.346 122.939C195.31 126.616 189.618 128.471 181.549 128.376C173.523 128.281 163.394 126.256 151.828 122.48C128.707 114.932 100.042 100.453 71.3386 80.8206L70.1611 82.4717C98.9755 102.18 127.805 116.754 151.143 124.373C162.807 128.181 173.149 130.269 181.458 130.367C189.723 130.464 196.232 128.591 199.883 124.169L198.346 122.939ZM175.68 71.8476C186.227 83.2289 193.814 93.8251 197.777 102.727C201.77 111.698 201.939 118.589 198.346 122.939L199.883 124.169C204.266 118.863 203.671 110.976 199.619 101.873C195.536 92.7008 187.794 81.9284 177.18 70.4743L175.68 71.8476Z" fill="white" mask="url(#path-1-inside-1_1709_28765)"/>
<mask id="path-3-inside-2_1709_28765" fill="white">
<path fill-rule="evenodd" clip-rule="evenodd" d="M44.4392 49.4502C33.0183 37.2945 28.1547 26.5275 32.4083 19.719C41.0452 5.89443 84.1573 13.3747 130.588 36.2179C127.74 34.4833 124.822 32.7649 121.84 31.0688C73.895 3.79514 27.5846 -7.38416 18.4031 6.09912C12.5192 14.7396 23.3107 31.4114 44.4392 49.4502Z"/>
</mask>
<path fill-rule="evenodd" clip-rule="evenodd" d="M44.4392 49.4502C33.0183 37.2945 28.1547 26.5275 32.4083 19.719C41.0452 5.89443 84.1573 13.3747 130.588 36.2179C127.74 34.4833 124.822 32.7649 121.84 31.0688C73.895 3.79514 27.5846 -7.38416 18.4031 6.09912C12.5192 14.7396 23.3107 31.4114 44.4392 49.4502Z" fill="#384C6B"/>
<path d="M44.4392 49.4502L43.7863 50.2123L45.1708 48.7631L44.4392 49.4502ZM32.4083 19.719L31.5609 19.194L32.4083 19.719ZM130.588 36.2179L130.141 37.1155L131.113 35.3632L130.588 36.2179ZM121.84 31.0688L121.341 31.9385L121.84 31.0688ZM18.4031 6.09912L19.2287 6.65745L19.2287 6.65745L18.4031 6.09912ZM45.1708 48.7631C39.5005 42.728 35.517 37.0972 33.4695 32.189C31.4191 27.2739 31.3731 23.2573 33.2557 20.244L31.5609 19.194C29.1899 22.9891 29.4489 27.7603 31.6221 32.9698C33.7982 38.1861 37.957 44.0167 43.7077 50.1373L45.1708 48.7631ZM33.2557 20.244C35.1842 17.1573 39.139 15.1097 45.0028 14.2413C50.8404 13.3768 58.3749 13.7142 67.151 15.2037C84.6931 18.1808 106.986 25.7236 130.141 37.1155L131.035 35.3204C107.759 23.8691 85.2807 16.2501 67.4999 13.2324C58.6145 11.7244 50.8498 11.3563 44.7237 12.2635C38.6239 13.1669 33.9509 15.3684 31.5609 19.194L33.2557 20.244ZM121.341 31.9385C124.314 33.6297 127.223 35.3431 130.063 37.0726L131.113 35.3632C128.256 33.6234 125.33 31.9 122.34 30.1991L121.341 31.9385ZM19.2287 6.65745C21.2572 3.67863 25.4708 1.88996 31.7551 1.47454C37.9964 1.06196 46.0347 2.02476 55.3438 4.27196C73.9504 8.7636 97.4273 18.3353 121.341 31.9385L122.34 30.1991C98.308 16.5286 74.657 6.87386 55.8268 2.32826C46.4174 0.0568301 38.16 -0.951673 31.6375 -0.520501C25.1581 -0.0921744 20.1397 1.77798 17.5774 5.5408L19.2287 6.65745ZM45.0921 48.6881C34.5662 39.7014 26.6723 31.1014 22.1453 23.7232C17.5654 16.2587 16.6547 10.4374 19.2287 6.65745L17.5774 5.5408C14.2676 10.4013 15.8108 17.2362 20.4377 24.7774C25.1176 32.4048 33.1838 41.1602 43.7863 50.2123L45.0921 48.6881Z" fill="white" mask="url(#path-3-inside-2_1709_28765)"/>
<mask id="path-5-inside-3_1709_28765" fill="white">
<path fill-rule="evenodd" clip-rule="evenodd" d="M42.1202 46.4123C35.5662 37.1029 33.4466 29.1349 37.0045 23.8352C46.5487 9.61849 93.3347 19.9863 141.504 46.9924C146.501 49.7941 151.317 52.6648 155.924 55.5759C148.211 49.7558 139.68 43.9536 130.505 38.3642C83.4823 9.71841 37.3244 -2.49019 27.4087 11.0955C22.1275 18.3315 28.1925 31.4252 42.1202 46.4123Z"/>
</mask>
<path fill-rule="evenodd" clip-rule="evenodd" d="M42.1202 46.4123C35.5662 37.1029 33.4466 29.1349 37.0045 23.8352C46.5487 9.61849 93.3347 19.9863 141.504 46.9924C146.501 49.7941 151.317 52.6648 155.924 55.5759C148.211 49.7558 139.68 43.9536 130.505 38.3642C83.4823 9.71841 37.3244 -2.49019 27.4087 11.0955C22.1275 18.3315 28.1925 31.4252 42.1202 46.4123Z" fill="#AEC0D7"/>
<path d="M42.1202 46.4123L41.3824 47.0967L42.9415 45.831L42.1202 46.4123ZM37.0045 23.8352L37.8338 24.3841L37.0045 23.8352ZM141.504 46.9924L142.002 46.1199L141.504 46.9924ZM155.924 55.5759L155.381 56.4221L156.534 54.7762L155.924 55.5759ZM130.505 38.3642L131.034 37.5096L130.505 38.3642ZM27.4087 11.0955L28.2152 11.6772L27.4087 11.0955ZM42.9415 45.831C39.7035 41.2316 37.6092 37.0288 36.7446 33.3786C35.8827 29.7402 36.2572 26.7326 37.8338 24.3841L36.1752 23.2863C34.1939 26.2376 33.8492 29.8638 34.7962 33.8616C35.7404 37.8476 37.9829 42.2835 41.2988 46.9936L42.9415 45.831ZM37.8338 24.3841C39.9645 21.2103 44.294 19.2479 50.6659 18.6528C57.0032 18.061 65.1388 18.8472 74.5411 20.9307C93.3351 25.0955 116.983 34.3968 141.005 47.865L142.002 46.1199C117.856 32.582 94.0258 23.1963 74.9985 18.9798C65.4902 16.8727 57.1291 16.0447 50.5044 16.6634C43.9144 17.2788 38.8166 19.3517 36.1752 23.2863L37.8338 24.3841ZM141.005 47.865C145.988 50.6584 150.789 53.5203 155.381 56.4221L156.467 54.7298C151.845 51.8094 147.014 48.9299 142.002 46.1199L141.005 47.865ZM129.976 39.2188C139.124 44.792 147.628 50.576 155.314 56.3757L156.534 54.7762C148.793 48.9357 140.236 43.1153 131.034 37.5096L129.976 39.2188ZM28.2152 11.6772C30.4207 8.65529 34.7733 6.90753 41.1249 6.59434C47.4387 6.28303 55.4971 7.4053 64.774 9.85902C83.3171 14.7636 106.524 24.9323 129.976 39.2188L131.034 37.5096C107.463 23.1503 84.08 12.8918 65.3095 7.92708C55.9297 5.44614 47.6504 4.27323 41.0514 4.59861C34.4902 4.92212 29.3546 6.74294 26.6023 10.5139L28.2152 11.6772ZM42.858 45.7279C35.9308 38.2738 31.0161 31.3488 28.4819 25.4441C25.9343 19.5079 25.8908 14.8617 28.2152 11.6772L26.6023 10.5139C23.6454 14.5653 23.9938 20.084 26.6403 26.2504C29.3002 32.4483 34.3819 39.5637 41.3824 47.0967L42.858 45.7279Z" fill="white" mask="url(#path-5-inside-3_1709_28765)"/>
<mask id="path-7-inside-4_1709_28765" fill="white">
<path fill-rule="evenodd" clip-rule="evenodd" d="M179.361 74.0696C191.559 89.292 196.125 102.403 190.411 110.428C178.714 126.856 127.996 116.274 73.1639 87.0812C73.3343 87.1905 73.505 87.2997 73.6758 87.4089C132.521 125.014 190.622 142.032 203.447 125.42C211.05 115.572 201.036 96.1156 179.361 74.0696Z"/>
</mask>
<path fill-rule="evenodd" clip-rule="evenodd" d="M179.361 74.0696C191.559 89.292 196.125 102.403 190.411 110.428C178.714 126.856 127.996 116.274 73.1639 87.0812C73.3343 87.1905 73.505 87.2997 73.6758 87.4089C132.521 125.014 190.622 142.032 203.447 125.42C211.05 115.572 201.036 96.1156 179.361 74.0696Z" fill="#AEC0D7"/>
<path d="M179.361 74.0696L180.087 73.3621L178.57 74.7045L179.361 74.0696ZM190.411 110.428L189.598 109.868L190.411 110.428ZM73.1639 87.0812L73.6565 86.199L72.6037 87.9239L73.1639 87.0812ZM73.6758 87.4089L73.1169 88.2523L73.1169 88.2523L73.6758 87.4089ZM203.447 125.42L204.236 126.013L204.236 126.013L203.447 125.42ZM178.57 74.7045C184.631 82.2693 188.744 89.2464 190.645 95.2712C192.548 101.298 192.198 106.216 189.598 109.868L191.224 110.989C194.338 106.615 194.562 100.966 192.56 94.6248C190.558 88.282 186.288 81.0923 180.152 73.4346L178.57 74.7045ZM189.598 109.868C186.921 113.628 181.907 115.979 174.776 116.826C167.667 117.67 158.632 116.994 148.189 114.885C127.313 110.668 101.016 100.765 73.6565 86.199L72.6712 87.9634C100.144 102.59 126.622 112.575 147.737 116.84C158.29 118.972 167.555 119.685 174.958 118.806C182.34 117.929 188.053 115.442 191.224 110.989L189.598 109.868ZM74.2348 86.5655C74.0643 86.4565 73.894 86.3475 73.724 86.2385L72.6037 87.9239C72.7746 88.0334 72.9457 88.1429 73.1169 88.2523L74.2348 86.5655ZM202.658 124.827C199.746 128.599 194.116 130.629 186.044 130.78C178.016 130.931 167.82 129.214 156.127 125.789C132.753 118.942 103.601 105.332 74.2348 86.5655L73.1169 88.2523C102.596 107.091 131.917 120.793 155.51 127.703C167.302 131.157 177.714 132.93 186.025 132.774C194.293 132.619 200.736 130.546 204.236 126.013L202.658 124.827ZM178.634 74.777C189.437 85.7644 197.279 96.0536 201.477 104.77C205.706 113.553 206.084 120.39 202.658 124.827L204.236 126.013C208.414 120.602 207.585 112.786 203.29 103.867C198.963 94.8825 190.96 84.4207 180.087 73.3621L178.634 74.777Z" fill="white" mask="url(#path-7-inside-4_1709_28765)"/>
<g filter="url(#filter0_d_1709_28765)">
<path d="M4.71423 48.64C4.71423 46.2667 5.40757 44.36 6.79423 42.92C8.1809 41.48 10.0742 40.76 12.4742 40.76C14.9009 40.76 17.3809 41 19.9142 41.48L19.1142 47.88C16.4742 47.2667 14.6609 46.96 13.6742 46.96C12.4209 46.96 11.7942 47.4667 11.7942 48.48C11.7942 48.88 12.0876 49.2667 12.6742 49.64C13.2876 50.0133 14.0209 50.4133 14.8742 50.84C15.7276 51.24 16.5809 51.7333 17.4342 52.32C18.2876 52.88 19.0076 53.6933 19.5942 54.76C20.2076 55.8267 20.5142 57.0533 20.5142 58.44C20.5142 60.9733 19.8342 62.9333 18.4742 64.32C17.1142 65.7067 15.1809 66.4 12.6742 66.4C10.1942 66.4 7.76757 66.0133 5.39423 65.24L5.83423 59.28C8.68757 60.1067 10.6742 60.52 11.7942 60.52C12.9142 60.52 13.4742 60.0267 13.4742 59.04C13.4742 58.5333 13.1676 58.0667 12.5542 57.64C11.9676 57.2133 11.2476 56.7867 10.3942 56.36C9.5409 55.9333 8.67423 55.44 7.79423 54.88C6.9409 54.32 6.20757 53.5067 5.59423 52.44C5.00757 51.3733 4.71423 50.1067 4.71423 48.64ZM37.3445 47.2H32.7045V66H25.8645V47.2H20.9445L21.3445 41.16H37.7445L37.3445 47.2ZM56.3108 49.04C56.3108 50.5333 56.0841 51.7733 55.6308 52.76C55.1775 53.7467 54.4708 54.64 53.5108 55.44L56.8308 66H49.4308L46.9508 57.04H46.0308V66H39.3108V41.16H48.5908C51.2575 41.16 53.2041 41.7867 54.4308 43.04C55.6841 44.2933 56.3108 46.2933 56.3108 49.04ZM47.0708 52.84C47.7641 52.84 48.2575 52.64 48.5508 52.24C48.8441 51.84 48.9908 51.12 48.9908 50.08C48.9908 49.0133 48.8441 48.28 48.5508 47.88C48.2575 47.4533 47.7775 47.24 47.1108 47.24H46.0308V52.84H47.0708ZM72.5164 66H59.0764V41.16H72.9164L72.5164 47.28H65.9164V51H71.6364V56.28H65.9164V60.4H72.9164L72.5164 66ZM93.0883 66H86.4083L85.6483 62.08H80.9283L80.1683 66H73.8083L78.3683 41.16H88.5283L93.0883 66ZM84.8883 57.4L83.4883 48.52H83.2083L81.8083 57.4H84.8883ZM119.21 66H112.93V53.04H112.57L110.21 66H103.77L101.53 53.04H101.13V66H94.9302L95.7702 41.16H104.77L107.01 54.6H107.33L109.49 41.16H118.37L119.21 66ZM135.115 66H122.475V41.16H129.315V60.44H135.515L135.115 66ZM144.167 66H137.367V41.16H144.167V66ZM166.22 66H159.66L154.5 54.44H154.18V66H148.1V41.16H154.86L159.78 53.08H160.1V41.16H166.22V66ZM183.18 66H169.74V41.16H183.58L183.18 47.28H176.58V51H182.3V56.28H176.58V60.4H183.58L183.18 66Z" fill="url(#paint0_linear_1709_28765)"/>
</g>
<g filter="url(#filter1_d_1709_28765)">
<path d="M41.8539 84.88H40.0139V93H33.2939V68.16H41.4139C44.2672 68.16 46.3872 68.8133 47.7739 70.12C49.1606 71.4267 49.8539 73.5733 49.8539 76.56C49.8539 79.5467 49.2006 81.68 47.8939 82.96C46.5872 84.24 44.5739 84.88 41.8539 84.88ZM42.6139 79.48C42.8539 79.0267 42.9739 78.2133 42.9739 77.04C42.9739 75.8667 42.8406 75.04 42.5739 74.56C42.3072 74.08 41.7739 73.84 40.9739 73.84H40.0139V80.16H41.1339C41.8806 80.16 42.3739 79.9333 42.6139 79.48ZM68.8486 76.04C68.8486 77.5333 68.6219 78.7733 68.1686 79.76C67.7153 80.7467 67.0086 81.64 66.0486 82.44L69.3686 93H61.9686L59.4886 84.04H58.5686V93H51.8486V68.16H61.1286C63.7953 68.16 65.7419 68.7867 66.9686 70.04C68.2219 71.2933 68.8486 73.2933 68.8486 76.04ZM59.6086 79.84C60.3019 79.84 60.7953 79.64 61.0886 79.24C61.3819 78.84 61.5286 78.12 61.5286 77.08C61.5286 76.0133 61.3819 75.28 61.0886 74.88C60.7953 74.4533 60.3153 74.24 59.6486 74.24H58.5686V79.84H59.6086ZM85.0542 93H71.6142V68.16H85.4542L85.0542 74.28H78.4542V78H84.1742V83.28H78.4542V87.4H85.4542L85.0542 93ZM93.9461 80.84C93.9461 83.1867 94.1728 84.8667 94.6261 85.88C95.1061 86.8667 95.8794 87.36 96.9461 87.36C98.0128 87.36 99.5194 87.1067 101.466 86.6L102.506 92.24C100.399 93.0133 98.2794 93.4 96.1461 93.4C92.9461 93.4 90.6128 92.3467 89.1461 90.24C87.7061 88.1067 86.9861 84.9467 86.9861 80.76C86.9861 76.5467 87.7461 73.3333 89.2661 71.12C90.7861 68.88 93.2661 67.76 96.7061 67.76C98.7328 67.76 100.666 68.1867 102.506 69.04L101.426 75.24C99.3461 74.5467 97.8928 74.2 97.0661 74.2C95.8928 74.2 95.0794 74.72 94.6261 75.76C94.1728 76.7733 93.9461 78.4667 93.9461 80.84ZM111.392 93H104.592V68.16H111.392V93ZM114.205 75.64C114.205 73.2667 114.898 71.36 116.285 69.92C117.672 68.48 119.565 67.76 121.965 67.76C124.392 67.76 126.872 68 129.405 68.48L128.605 74.88C125.965 74.2667 124.152 73.96 123.165 73.96C121.912 73.96 121.285 74.4667 121.285 75.48C121.285 75.88 121.578 76.2667 122.165 76.64C122.778 77.0133 123.512 77.4133 124.365 77.84C125.218 78.24 126.072 78.7333 126.925 79.32C127.778 79.88 128.498 80.6933 129.085 81.76C129.698 82.8267 130.005 84.0533 130.005 85.44C130.005 87.9733 129.325 89.9333 127.965 91.32C126.605 92.7067 124.672 93.4 122.165 93.4C119.685 93.4 117.258 93.0133 114.885 92.24L115.325 86.28C118.178 87.1067 120.165 87.52 121.285 87.52C122.405 87.52 122.965 87.0267 122.965 86.04C122.965 85.5333 122.658 85.0667 122.045 84.64C121.458 84.2133 120.738 83.7867 119.885 83.36C119.032 82.9333 118.165 82.44 117.285 81.88C116.432 81.32 115.698 80.5067 115.085 79.44C114.498 78.3733 114.205 77.1067 114.205 75.64ZM139.595 93H132.795V68.16H139.595V93ZM145.008 70.76C146.555 68.76 149.075 67.76 152.568 67.76C156.062 67.76 158.555 68.7467 160.048 70.72C161.568 72.6933 162.328 75.9067 162.328 80.36C162.328 84.7867 161.555 88.0667 160.008 90.2C158.462 92.3333 155.955 93.4 152.488 93.4C149.022 93.4 146.528 92.3467 145.008 90.24C143.488 88.1333 142.728 84.8667 142.728 80.44C142.728 75.9867 143.488 72.76 145.008 70.76ZM155.448 80.36C155.448 77.9067 155.248 76.2533 154.848 75.4C154.475 74.52 153.688 74.08 152.488 74.08C151.315 74.08 150.555 74.52 150.208 75.4C149.862 76.2533 149.688 77.8933 149.688 80.32V81.28C149.688 83.8667 149.875 85.5733 150.248 86.4C150.648 87.2 151.435 87.6 152.608 87.6C153.808 87.6 154.582 87.2133 154.928 86.44C155.275 85.6667 155.448 84.0667 155.448 81.64V80.36ZM183.172 93H176.612L171.452 81.44H171.132V93H165.052V68.16H171.812L176.732 80.08H177.052V68.16H183.172V93Z" fill="url(#paint1_linear_1709_28765)"/>
</g>
<defs>
<filter id="filter0_d_1709_28765" x="0.713867" y="40.7598" width="186.866" height="33.6401" filterUnits="userSpaceOnUse" color-interpolation-filters="sRGB">
<feFlood flood-opacity="0" result="BackgroundImageFix"/>
<feColorMatrix in="SourceAlpha" type="matrix" values="0 0 0 0 0 0 0 0 0 0 0 0 0 0 0 0 0 0 127 0" result="hardAlpha"/>
<feOffset dy="4"/>
<feGaussianBlur stdDeviation="2"/>
<feComposite in2="hardAlpha" operator="out"/>
<feColorMatrix type="matrix" values="0 0 0 0 0 0 0 0 0 0 0 0 0 0 0 0 0 0 0.25 0"/>
<feBlend mode="normal" in2="BackgroundImageFix" result="effect1_dropShadow_1709_28765"/>
<feBlend mode="normal" in="SourceGraphic" in2="effect1_dropShadow_1709_28765" result="shape"/>
</filter>
<filter id="filter1_d_1709_28765" x="29.2939" y="67.7598" width="157.878" height="33.6401" filterUnits="userSpaceOnUse" color-interpolation-filters="sRGB">
<feFlood flood-opacity="0" result="BackgroundImageFix"/>
<feColorMatrix in="SourceAlpha" type="matrix" values="0 0 0 0 0 0 0 0 0 0 0 0 0 0 0 0 0 0 127 0" result="hardAlpha"/>
<feOffset dy="4"/>
<feGaussianBlur stdDeviation="2"/>
<feComposite in2="hardAlpha" operator="out"/>
<feColorMatrix type="matrix" values="0 0 0 0 0 0 0 0 0 0 0 0 0 0 0 0 0 0 0.25 0"/>
<feBlend mode="normal" in2="BackgroundImageFix" result="effect1_dropShadow_1709_28765"/>
<feBlend mode="normal" in="SourceGraphic" in2="effect1_dropShadow_1709_28765" result="shape"/>
</filter>
<linearGradient id="paint0_linear_1709_28765" x1="94.1133" y1="33" x2="94.1133" y2="77.1748" gradientUnits="userSpaceOnUse">
<stop stop-color="#131A27"/>
<stop offset="0.5" stop-color="#162A4E"/>
<stop offset="1" stop-color="#44546D"/>
</linearGradient>
<linearGradient id="paint1_linear_1709_28765" x1="108.233" y1="60" x2="108.233" y2="99.1262" gradientUnits="userSpaceOnUse">
<stop stop-color="#131A27"/>
<stop offset="0.5" stop-color="#162A4E"/>
<stop offset="1" stop-color="#44546D"/>
</linearGradient>
</defs>
</svg>
