<svg width="100" height="100" viewBox="0 0 100 100" fill="none" xmlns="http://www.w3.org/2000/svg">
<g clip-path="url(#clip0_5639_4499)">
<path d="M54 0C57.3136 1.28853e-07 59.9999 2.6864 60 6V10.4834C60 10.9397 60.3095 11.3366 60.749 11.459C64.0873 12.3883 67.2493 13.7417 70.1748 15.4541C70.5238 15.6583 70.9559 15.6382 71.2773 15.4111L71.4072 15.3018L74.4678 12.2422C76.8108 9.89927 80.61 9.89941 82.9531 12.2422L88.6104 17.8994C90.9533 20.2425 90.9533 24.0417 88.6104 26.3848L85.3135 29.6816C84.995 30.0001 84.9292 30.4912 85.1445 30.8867C86.5747 33.5108 87.7212 36.3128 88.5391 39.251C88.6461 39.6357 88.9632 39.9212 89.3467 39.9863L89.5146 40H94C97.3136 40 99.9999 42.6864 100 46V54C99.9999 57.3136 97.3136 60 94 60H89.5146L89.3467 60.0137C88.9632 60.0788 88.6462 60.3643 88.5391 60.749V60.749C88.163 62.0996 86.4838 62.4779 85.4925 61.4866L83.7168 59.711C83.1842 59.1784 82.975 58.3791 83.33 57.7148C84.5121 55.5025 86.8369 54 89.5146 54H92C93.1046 54 94 53.1046 94 52V48C94 46.8954 93.1046 46 92 46H89.5146C86.3953 46 83.7547 43.9609 82.8418 41.1357L82.7588 40.8604C82.1517 38.6793 81.3313 36.5851 80.3213 34.6016L79.877 33.7588C78.4202 31.086 78.8232 27.6861 81.0713 25.4385L84.3665 22.1433C84.3669 22.1428 84.3672 22.1422 84.3672 22.1416V22.1416C84.3672 22.141 84.3669 22.1404 84.3665 22.1399L78.7114 16.4849C78.7112 16.4847 78.7109 16.4848 78.7109 16.4851V16.4851C78.7109 16.4852 78.7108 16.4854 78.7107 16.4854H78.7102C78.7101 16.4854 78.7099 16.4854 78.7098 16.4856L75.6494 19.5449C73.4156 21.7779 70.0544 22.1841 67.3984 20.7744L67.1436 20.6318C64.8116 19.2668 62.306 18.1725 59.6689 17.3916L59.1396 17.2393C56.1725 16.4132 54 13.7032 54 10.4834V8C54 6.89543 53.1046 6 52 6H48C46.8954 6 46 6.89543 46 8V10.4834C46 13.7034 43.8273 16.4132 40.8604 17.2393C38.3652 17.9339 35.9837 18.9092 33.75 20.1279L33.3047 20.375C30.705 21.844 27.3824 21.5322 25.1074 19.4414L24.8906 19.2334L22.1431 16.4849C22.1429 16.4847 22.1426 16.4848 22.1426 16.4851V16.4851C22.1426 16.4852 22.1425 16.4854 22.1423 16.4854H22.1419C22.1417 16.4854 22.1415 16.4853 22.1414 16.4851L22.1413 16.4851C22.1409 16.4847 22.1403 16.4847 22.1399 16.4851L16.4851 22.1399C16.4847 22.1403 16.4847 22.1409 16.4851 22.1413L16.4851 22.1414C16.4853 22.1415 16.4854 22.1417 16.4854 22.1419V22.1423C16.4854 22.1425 16.4852 22.1426 16.4851 22.1426V22.1426C16.4848 22.1426 16.4847 22.1429 16.4849 22.1431L19.2344 24.8916L19.4424 25.1084C21.5332 27.3834 21.8449 30.706 20.376 33.3057C19.1252 35.5192 18.1156 37.8831 17.3838 40.3633L17.2412 40.8604C16.4152 43.8274 13.7053 46 10.4854 46H8C6.89543 46 6 46.8954 6 48V52C6 53.1046 6.89543 54 8 54H10.4854C13.6045 54 16.2452 56.0389 17.1582 58.8643L17.2412 59.1396L17.3936 59.6689C18.1745 62.3071 19.2678 64.8128 20.6318 67.1436L20.7744 67.3984C22.1386 69.9687 21.802 73.1993 19.7549 75.4297L19.5449 75.6494L16.4856 78.7098C16.4854 78.7099 16.4854 78.7101 16.4854 78.7102V78.7107C16.4854 78.7108 16.4852 78.7109 16.4851 78.7109V78.7109C16.4848 78.7109 16.4847 78.7112 16.4849 78.7114L22.1399 84.3665C22.1404 84.3669 22.141 84.3672 22.1416 84.3672V84.3672C22.1422 84.3672 22.1428 84.3669 22.1433 84.3665L25.4385 81.0713L25.6523 80.8652C27.8252 78.866 30.9594 78.4885 33.5059 79.7451L33.7588 79.877L34.6016 80.3213C36.5851 81.3313 38.6793 82.1516 40.8604 82.7588L41.1357 82.8418C43.9609 83.7547 46 86.3953 46 89.5146V92C46 93.1046 46.8954 94 48 94H52C53.1046 94 54 93.1046 54 92V89.5146C54 86.837 55.5026 84.5122 57.7147 83.33C58.3791 82.975 59.1784 83.1842 59.711 83.7169L61.4866 85.4925C62.4779 86.4838 62.0996 88.163 60.749 88.5391V88.5391C60.3095 88.6615 60 89.0584 60 89.5146V94C59.9999 97.3136 57.3136 100 54 100H46C42.6864 100 40.0001 97.3136 40 94V89.5146C40 89.1152 39.7631 88.7608 39.4092 88.5967L39.251 88.5391C36.3128 87.7212 33.5108 86.5748 30.8867 85.1445C30.4912 84.9292 30.0001 84.995 29.6816 85.3135L26.3848 88.6104C24.0417 90.9532 20.2425 90.9533 17.8994 88.6104L12.2422 82.9531C9.89944 80.61 9.89937 76.8108 12.2422 74.4678L15.3018 71.4072C15.5873 71.1213 15.6678 70.6977 15.5273 70.3291L15.4541 70.1748C13.742 67.2494 12.39 64.0871 11.4609 60.749C11.3539 60.3643 11.0368 60.0788 10.6533 60.0137L10.4854 60H6C2.68637 60 0.000132071 57.3136 0 54V46C0.00013194 42.6864 2.68637 40 6 40H10.4854L10.6533 39.9863C10.9822 39.9305 11.2626 39.7126 11.4033 39.4092L11.4609 39.251C12.28 36.3089 13.4282 33.504 14.8613 30.877L15.1523 30.3535C15.3486 30.0059 15.3257 29.5798 15.1006 29.2627L14.9922 29.1348L12.2422 26.3848C9.89938 24.0417 9.89943 20.2425 12.2422 17.8994L17.8994 12.2422C20.2425 9.89931 24.0417 9.89934 26.3848 12.2422L29.1338 14.9912C29.416 15.2731 29.8333 15.3555 30.1992 15.2217L30.3525 15.1514C32.9558 13.6802 35.7402 12.4908 38.6641 11.6279L39.251 11.459C39.6357 11.3519 39.9212 11.0348 39.9863 10.6514L40 10.4834V6C40.0001 2.6864 42.6864 1.28853e-07 46 0H54Z" fill="black"/>
<mask id="path-2-inside-1_5639_4499" fill="white">
<path d="M44.1987 23.0957C51.6543 22.4394 59.5789 25.1441 65.5512 31.1162C71.1318 36.6973 73.8582 43.9831 73.6557 50.9981C73.5521 54.5856 74.3767 58.2932 76.9145 60.8311L100.373 84.2891V93.9727C100.373 97.2864 97.6862 99.9727 94.3725 99.9727H84.8334L61.7172 76.8555C59.0978 74.236 55.2422 73.4467 51.5424 73.6338C44.3616 73.997 36.8421 71.2752 31.1166 65.5498C25.2141 59.6468 22.5033 51.8369 23.0747 44.4571C23.5601 38.188 31.105 37.2436 35.5512 41.6895L43.9858 50.1241C45.6485 51.7868 48.3445 51.7868 50.0073 50.1241C51.6701 48.4613 51.67 45.7654 50.0073 44.1026L41.4868 35.5821C37.0621 31.1573 37.9653 23.6446 44.1987 23.0957Z"/>
</mask>
<path d="M44.1987 23.0957L43.6725 17.1189L43.6724 17.1189L44.1987 23.0957ZM65.5512 31.1162L69.7941 26.8738L69.7938 26.8735L65.5512 31.1162ZM73.6557 50.9981L79.6532 51.1713L79.6532 51.1712L73.6557 50.9981ZM76.9145 60.8311L72.6718 65.0737L72.6719 65.0737L76.9145 60.8311ZM100.373 84.2891H106.373V81.8038L104.615 80.0465L100.373 84.2891ZM84.8334 99.9727L80.5907 104.215L82.3481 105.973H84.8334V99.9727ZM61.7172 76.8555L65.96 72.6129L65.9599 72.6129L61.7172 76.8555ZM51.5424 73.6338L51.8455 79.6262L51.8455 79.6262L51.5424 73.6338ZM31.1166 65.5498L26.8739 69.7923L26.874 69.7925L31.1166 65.5498ZM23.0747 44.4571L17.0926 43.9938L17.0926 43.9939L23.0747 44.4571ZM35.5512 41.6895L39.7939 37.4468L39.7937 37.4467L35.5512 41.6895ZM43.9858 50.1241L48.2285 45.8815L48.2284 45.8814L43.9858 50.1241ZM50.0073 50.1241L54.2498 54.3668L54.2499 54.3667L50.0073 50.1241ZM50.0073 44.1026L54.25 39.86L54.2499 39.8599L50.0073 44.1026ZM41.4868 35.5821L37.2441 39.8247L37.2441 39.8247L41.4868 35.5821ZM44.1987 23.0957L44.7249 29.0726C50.3919 28.5737 56.5764 30.6269 61.3086 35.359L65.5512 31.1162L69.7938 26.8735C62.5814 19.6614 52.9167 16.305 43.6725 17.1189L44.1987 23.0957ZM65.5512 31.1162L61.3084 35.3587C65.7282 39.779 67.8128 45.4702 67.6582 50.8249L73.6557 50.9981L79.6532 51.1712C79.9037 42.4959 76.5353 33.6157 69.7941 26.8738L65.5512 31.1162ZM73.6557 50.9981L67.6582 50.8248C67.5305 55.2471 68.4931 60.8949 72.6718 65.0737L76.9145 60.8311L81.1572 56.5885C80.2603 55.6916 79.5737 53.9241 79.6532 51.1713L73.6557 50.9981ZM76.9145 60.8311L72.6719 65.0737L96.1299 88.5317L100.373 84.2891L104.615 80.0465L81.1571 56.5884L76.9145 60.8311ZM100.373 84.2891H94.3725V93.9727H100.373H106.373V84.2891H100.373ZM100.373 93.9727H94.3725V99.9727V105.973C101 105.973 106.373 100.6 106.373 93.9727H100.373ZM94.3725 99.9727V93.9727H84.8334V99.9727V105.973H94.3725V99.9727ZM84.8334 99.9727L89.0762 95.7301L65.96 72.6129L61.7172 76.8555L57.4745 81.0981L80.5907 104.215L84.8334 99.9727ZM61.7172 76.8555L65.9599 72.6129C61.6459 68.2988 55.7788 67.4119 51.2393 67.6415L51.5424 73.6338L51.8455 79.6262C54.7055 79.4815 56.5497 80.1733 57.4746 81.0981L61.7172 76.8555ZM51.5424 73.6338L51.2393 67.6415C45.7664 67.9183 39.8946 65.8424 35.3593 61.3072L31.1166 65.5498L26.874 69.7925C33.7897 76.708 42.9567 80.0758 51.8455 79.6262L51.5424 73.6338ZM31.1166 65.5498L35.3594 61.3073C30.6828 56.6304 28.6221 50.5342 29.0568 44.9202L23.0747 44.4571L17.0926 43.9939C16.3845 53.1396 19.7453 62.6633 26.8739 69.7923L31.1166 65.5498ZM23.0747 44.4571L29.0567 44.9203C29.0825 44.5878 29.1519 44.676 28.9792 44.8601C28.8371 45.0116 28.7556 44.9854 28.9214 44.9546C29.3467 44.8758 30.3835 45.0071 31.3087 45.9323L35.5512 41.6895L39.7937 37.4467C36.2727 33.9259 31.3139 32.3065 26.7339 33.1557C21.7715 34.0757 17.5615 37.939 17.0926 43.9938L23.0747 44.4571ZM35.5512 41.6895L31.3086 45.9321L39.7431 54.3667L43.9858 50.1241L48.2284 45.8814L39.7939 37.4468L35.5512 41.6895ZM43.9858 50.1241L39.7431 54.3667C43.7491 58.3727 50.244 58.3724 54.2498 54.3668L50.0073 50.1241L45.7647 45.8813C46.4449 45.2011 47.5479 45.2009 48.2285 45.8815L43.9858 50.1241ZM50.0073 50.1241L54.2499 54.3667C58.2559 50.3607 58.2558 43.8659 54.25 39.86L50.0073 44.1026L45.7646 48.3452C45.0843 47.6649 45.0842 46.5618 45.7646 45.8814L50.0073 50.1241ZM50.0073 44.1026L54.2499 39.8599L45.7294 31.3394L41.4868 35.5821L37.2441 39.8247L45.7646 48.3452L50.0073 44.1026ZM41.4868 35.5821L45.7294 31.3395C44.8095 30.4195 44.6722 29.3845 44.7503 28.9527C44.7809 28.7834 44.8093 28.8594 44.6635 28.9984C44.4854 29.1683 44.399 29.1013 44.7249 29.0726L44.1987 23.0957L43.6724 17.1189C37.6468 17.6494 33.8353 21.8747 32.9417 26.8181C32.1159 31.3862 33.7393 36.3199 37.2441 39.8247L41.4868 35.5821Z" fill="black" mask="url(#path-2-inside-1_5639_4499)"/>
</g>
<defs>
<clipPath id="clip0_5639_4499">
<rect width="100" height="100" fill="white"/>
</clipPath>
</defs>
</svg>
