<svg width="100" height="80" viewBox="0 0 100 80" fill="none" xmlns="http://www.w3.org/2000/svg">
<g clip-path="url(#clip0_5607_39487)">
<path d="M52.0703 47.8789C50.9837 48.9152 49.3138 48.98 48.1543 48.0732L47.9297 47.8789L3.15625 5.1709C1.19758 3.30246 2.52058 0 5.22754 0H94.7725C97.4794 0 98.8024 3.30247 96.8438 5.1709L52.0703 47.8789Z" stroke="black" stroke-width="6"/>
<path d="M0.74568 75.0206C-0.347513 76.2656 -0.22443 78.1611 1.0206 79.2543C2.26562 80.3475 4.16113 80.2244 5.25432 78.9794L0.74568 75.0206ZM39 36L36.7457 34.0206L0.74568 75.0206L3 77L5.25432 78.9794L41.2543 37.9794L39 36Z" fill="black"/>
<path d="M100.227 74.9911C101.337 76.2212 101.239 78.1182 100.009 79.2282C98.7793 80.3382 96.8823 80.2409 95.7723 79.0109L100.227 74.9911ZM60.9991 35.9998L63.2263 33.99L100.227 74.9911L97.9995 77.001L95.7723 79.0109L58.7719 38.0097L60.9991 35.9998Z" fill="black"/>
</g>
<rect x="3" y="3" width="94" height="74" rx="3" stroke="black" stroke-width="6"/>
<defs>
<clipPath id="clip0_5607_39487">
<rect width="100" height="80" rx="6" fill="white"/>
</clipPath>
</defs>
</svg>
