<svg width="100" height="80" viewBox="0 0 100 80" fill="none" xmlns="http://www.w3.org/2000/svg">
<g clip-path="url(#clip0_5611_41911)">
<rect x="3" y="3" width="94" height="74" rx="3" stroke="black" stroke-width="6"/>
<line x1="34" y1="4" x2="34" y2="75" stroke="black" stroke-width="6"/>
<line x1="66" y1="4" x2="66" y2="75" stroke="black" stroke-width="6"/>
<path d="M10.6953 55V53.5234C10.6953 51.9883 10.9297 50.6113 11.3984 49.3926C11.8789 48.1621 12.4941 47.0254 13.2441 45.9824C13.9941 44.9277 14.7852 43.8965 15.6172 42.8887C16.4258 41.9043 17.1934 40.8965 17.9199 39.8652C18.6582 38.8223 19.2559 37.6973 19.7129 36.4902C20.1816 35.2715 20.416 33.9062 20.416 32.3945C20.416 31.668 20.3047 31.0469 20.082 30.5312C19.8711 30.0039 19.4258 29.7402 18.7461 29.7402C17.7148 29.7402 17.1992 30.6602 17.1992 32.5V36.2793H10.6953C10.6836 36.0098 10.666 35.7051 10.6426 35.3652C10.6309 35.0254 10.625 34.6973 10.625 34.3809C10.625 32.1543 10.8594 30.2676 11.3281 28.7207C11.7969 27.1621 12.623 25.9785 13.8066 25.1699C15.002 24.3496 16.6777 23.9395 18.834 23.9395C21.4004 23.9395 23.3926 24.6602 24.8105 26.1016C26.2402 27.543 26.9551 29.5996 26.9551 32.2715C26.9551 34.0879 26.7207 35.6816 26.252 37.0527C25.7832 38.4121 25.1621 39.6543 24.3887 40.7793C23.6152 41.8926 22.7656 43.0059 21.8398 44.1191C21.1836 44.9043 20.5449 45.707 19.9238 46.5273C19.3145 47.3477 18.7754 48.2266 18.3066 49.1641H26.7441V55H10.6953Z" fill="black"/>
<path d="M50 29.2812C47.3867 29.2812 45.3652 28.5488 43.9355 27.084C42.5176 25.6191 41.8086 23.5098 41.8086 20.7559V6.79883C41.8086 3.89258 42.4824 1.66602 43.8301 0.119141C45.1895 -1.43945 47.2461 -2.21875 50 -2.21875C52.7656 -2.21875 54.8223 -1.43945 56.1699 0.119141C57.5176 1.66602 58.1914 3.89258 58.1914 6.79883V20.7559C58.1914 23.5098 57.4824 25.6191 56.0645 27.084C54.6465 28.5488 52.625 29.2812 50 29.2812ZM50 23.5859C50.4805 23.5859 50.8555 23.3691 51.125 22.9355C51.3945 22.502 51.5293 22.0156 51.5293 21.4766V6.20117C51.5293 5.47461 51.4473 4.8418 51.2832 4.30273C51.1309 3.75195 50.7031 3.47656 50 3.47656C49.2969 3.47656 48.8633 3.75195 48.6992 4.30273C48.5469 4.8418 48.4707 5.47461 48.4707 6.20117V21.4766C48.4707 22.0156 48.6055 22.502 48.875 22.9355C49.1562 23.3691 49.5312 23.5859 50 23.5859Z" fill="black"/>
<path d="M48.3125 80V56.1641C47.8906 56.668 47.3105 57.0781 46.5723 57.3945C45.834 57.6992 45.1367 57.8516 44.4805 57.8516V52.9121C45.1016 52.8184 45.7695 52.6191 46.4844 52.3145C47.1992 51.998 47.8613 51.5703 48.4707 51.0312C49.0918 50.4805 49.5664 49.8184 49.8945 49.0449H54.8691V80H48.3125Z" fill="black"/>
<path d="M81.4473 29.2812C80.1465 29.2812 78.9336 29.0586 77.8086 28.6133C76.6836 28.1562 75.7754 27.4766 75.084 26.5742C74.3926 25.6719 74.0469 24.5527 74.0469 23.2168V19.877H80.0059V20.5098C80.0059 21.0254 80.0293 21.541 80.0762 22.0566C80.1348 22.5723 80.2695 23 80.4805 23.3398C80.7031 23.6797 81.0605 23.8496 81.5527 23.8496C82.2441 23.8496 82.7246 23.6621 82.9941 23.2871C83.2637 22.9004 83.3984 22.3496 83.3984 21.6348V15.4297C83.1055 15.9688 82.666 16.4082 82.0801 16.748C81.4941 17.0879 80.7793 17.2578 79.9355 17.2578C78.2363 17.2578 76.9238 16.918 75.998 16.2383C75.0723 15.5469 74.4336 14.5215 74.082 13.1621C73.7305 11.8027 73.5547 10.1035 73.5547 8.06445C73.5547 6.00195 73.8066 4.20312 74.3105 2.66797C74.8145 1.12109 75.6523 -0.0800781 76.8242 -0.935547C78.0078 -1.79102 79.6074 -2.21875 81.623 -2.21875C83.7793 -2.21875 85.4609 -1.84961 86.668 -1.11133C87.875 -0.384766 88.7246 0.716797 89.2168 2.19336C89.7207 3.6582 89.9727 5.49805 89.9727 7.71289V16.0801C89.9727 18.2246 89.8789 20.1172 89.6914 21.7578C89.5156 23.3984 89.1406 24.7754 88.5664 25.8887C87.9922 27.002 87.1367 27.8457 86 28.4199C84.8633 28.9941 83.3457 29.2812 81.4473 29.2812ZM81.7637 11.791C82.8535 11.791 83.3984 11.0586 83.3984 9.59375V5.76172C83.3984 4.23828 82.8828 3.47656 81.8516 3.47656C81.125 3.47656 80.6914 3.78711 80.5508 4.4082C80.4102 5.01758 80.3398 5.80273 80.3398 6.76367V9.25977C80.3398 10.9473 80.8145 11.791 81.7637 11.791Z" fill="black"/>
<path d="M82 80.2812C79.3867 80.2812 77.3652 79.5488 75.9355 78.084C74.5176 76.6191 73.8086 74.5098 73.8086 71.7559V57.7988C73.8086 54.8926 74.4824 52.666 75.8301 51.1191C77.1895 49.5605 79.2461 48.7812 82 48.7812C84.7656 48.7812 86.8223 49.5605 88.1699 51.1191C89.5176 52.666 90.1914 54.8926 90.1914 57.7988V71.7559C90.1914 74.5098 89.4824 76.6191 88.0645 78.084C86.6465 79.5488 84.625 80.2812 82 80.2812ZM82 74.5859C82.4805 74.5859 82.8555 74.3691 83.125 73.9355C83.3945 73.502 83.5293 73.0156 83.5293 72.4766V57.2012C83.5293 56.4746 83.4473 55.8418 83.2832 55.3027C83.1309 54.752 82.7031 54.4766 82 54.4766C81.2969 54.4766 80.8633 54.752 80.6992 55.3027C80.5469 55.8418 80.4707 56.4746 80.4707 57.2012V72.4766C80.4707 73.0156 80.6055 73.502 80.875 73.9355C81.1562 74.3691 81.5312 74.5859 82 74.5859Z" fill="black"/>
</g>
<defs>
<clipPath id="clip0_5611_41911">
<rect width="100" height="80" fill="white"/>
</clipPath>
</defs>
</svg>
