<svg width="90" height="90" viewBox="0 0 90 90" fill="none" xmlns="http://www.w3.org/2000/svg">
<g clip-path="url(#clip0_5582_5928)">
<path d="M80 0C79.5577 0 79.1225 0.035699 78.6953 0.0996094C85.0736 0.833335 89.9999 5.64673 90 11.4785V24H70V78.5215C69.9999 84.2571 65.4183 89.0091 59.4326 89.8623C59.9436 89.9516 60.4668 90 61 90H10.167C4.72787 89.9998 0.286121 85.1769 0.0136719 79.1123L0 78.5215V66H20V11.4785C20.0001 5.13926 24.4773 0 30 0H80ZM6 78.4668L6.00879 78.8633C6.17579 82.3827 8.57462 83.9998 10.167 84H45.6582C45.1991 82.5103 44.9233 80.9558 44.8525 79.3818L44.8496 79.3115L44.8477 79.2412L44.835 78.6504L44.834 78.5859V72H6V78.4668ZM30 6C28.5869 6 26.1583 7.54776 26.0078 11.126L26 11.4785V65H51V78.5215C51.0001 81.0758 53.4187 83.9999 57.5 84C61.4539 84 63.8475 81.2557 63.9932 78.7617L64 78.5215V11.4785C64 11.3524 64.0023 11.2267 64.0068 11.1016C64.0427 9.36675 64.3218 7.64519 64.8232 6H30ZM77 6C72.5539 6 70.1524 8.94044 70.0068 11.2568L70 11.4785V18H84V11.4785C83.9999 9.13295 81.5893 6.00008 77 6Z" fill="black"/>
<path d="M56 47H33" stroke="black" stroke-width="6" stroke-linecap="round"/>
<path d="M56 57H33" stroke="black" stroke-width="6" stroke-linecap="round"/>
<path d="M56 37H33" stroke="black" stroke-width="6" stroke-linecap="round"/>
<mask id="path-5-inside-1_5582_5928" fill="white">
<path d="M44.3072 9.92795C44.684 9.64099 45.2085 9.64347 45.5822 9.93456C46.5495 10.6882 47.594 11.4127 48.708 12.0898C50.526 13.1949 52.3686 14.0803 54.1568 14.7437C54.606 14.9104 54.8892 15.363 54.8152 15.8364C53.4407 24.6258 49.5047 30.9726 44.8594 30.9727C40.2016 30.9727 36.2569 24.5919 34.8925 15.7658C34.8187 15.2886 35.1076 14.8337 35.5625 14.6716C37.1163 14.1179 38.7077 13.407 40.2881 12.5371C41.7428 11.7364 43.089 10.8557 44.3072 9.92795Z"/>
</mask>
<path d="M48.708 12.0898L45.5915 17.2169L45.5916 17.217L48.708 12.0898ZM44.8594 30.9727L44.8594 36.9727L44.8595 36.9727L44.8594 30.9727ZM40.2881 12.5371L43.1814 17.7934L43.1814 17.7934L40.2881 12.5371ZM35.5625 14.6716L37.5765 20.3235L35.5625 14.6716ZM54.1568 14.7437L52.0698 20.3691L54.1568 14.7437ZM54.8152 15.8364L60.7432 16.7634L54.8152 15.8364ZM45.5822 9.93456L41.8947 14.6677C43.0425 15.5619 44.2774 16.4182 45.5915 17.2169L48.708 12.0898L51.8246 6.96275C50.9105 6.40714 50.0566 5.81451 49.2697 5.20144L45.5822 9.93456ZM48.708 12.0898L45.5916 17.217C47.7277 18.5154 49.9144 19.5694 52.0698 20.3691L54.1568 14.7437L56.2438 9.1184C54.8229 8.59125 53.3243 7.87431 51.8245 6.96268L48.708 12.0898ZM54.8152 15.8364L48.8872 14.9094C48.2882 18.7403 47.1785 21.6594 46.0255 23.4425C44.7762 25.3745 44.2226 24.9727 44.8593 24.9727L44.8594 30.9727L44.8595 36.9727C50.1414 36.9726 53.8786 33.3974 56.1022 29.9586C58.4222 26.3709 59.9678 21.7219 60.7432 16.7634L54.8152 15.8364ZM44.8594 30.9727V24.9727C45.4977 24.9727 44.9389 25.3756 43.6844 23.4289C42.5275 21.6336 41.417 18.6974 40.8221 14.8492L34.8925 15.7658L28.9629 16.6824C29.7324 21.6603 31.2764 26.3275 33.5974 29.9291C35.8208 33.3793 39.5633 36.9727 44.8594 36.9727V30.9727ZM35.5625 14.6716L37.5765 20.3235C39.4371 19.6605 41.3224 18.8167 43.1814 17.7934L40.2881 12.5371L37.3948 7.2808C36.0931 7.99729 34.7955 8.57538 33.5485 9.01976L35.5625 14.6716ZM40.2881 12.5371L43.1814 17.7934C44.8926 16.8515 46.487 15.8097 47.9423 14.7014L44.3072 9.92795L40.672 5.15454C39.6909 5.90167 38.5929 6.6213 37.3947 7.28083L40.2881 12.5371ZM34.8925 15.7658L40.8221 14.8492C41.2144 17.3871 39.6686 19.578 37.5765 20.3235L35.5625 14.6716L33.5485 9.01976C30.5466 10.0895 28.4231 13.1901 28.9629 16.6824L34.8925 15.7658ZM54.1568 14.7437L52.0698 20.3691C50.0103 19.605 48.4934 17.428 48.8872 14.9094L54.8152 15.8364L60.7432 16.7634C61.2851 13.2981 59.2017 10.2158 56.2438 9.1184L54.1568 14.7437ZM45.5822 9.93456L49.2697 5.20144C46.7436 3.23344 43.2122 3.22006 40.672 5.15454L44.3072 9.92795L47.9423 14.7014C46.1558 16.0619 43.6735 16.0535 41.8947 14.6677L45.5822 9.93456Z" fill="black" mask="url(#path-5-inside-1_5582_5928)"/>
</g>
<defs>
<clipPath id="clip0_5582_5928">
<rect width="90" height="90" fill="white"/>
</clipPath>
</defs>
</svg>
