<svg width="100" height="100" viewBox="0 0 100 100" fill="none" xmlns="http://www.w3.org/2000/svg">
<g clip-path="url(#clip0_5600_23764)">
<path d="M50 3C75.9574 3 97 24.0426 97 50C97 75.9574 75.9574 97 50 97C24.0426 97 3 75.9574 3 50C3 24.0426 24.0426 3 50 3Z" fill="#4FCF62" stroke="black" stroke-width="6"/>
<path d="M51.7491 55.775H48.2991V71H35.6991V24.425H50.9241C56.2741 24.425 60.2491 25.65 62.8491 28.1C65.4491 30.55 66.7491 34.575 66.7491 40.175C66.7491 45.775 65.5241 49.775 63.0741 52.175C60.6241 54.575 56.8491 55.775 51.7491 55.775ZM53.1741 45.65C53.6241 44.8 53.8491 43.275 53.8491 41.075C53.8491 38.875 53.5991 37.325 53.0991 36.425C52.5991 35.525 51.5991 35.075 50.0991 35.075H48.2991V46.925H50.3991C51.7991 46.925 52.7241 46.5 53.1741 45.65Z" fill="black"/>
</g>
<defs>
<clipPath id="clip0_5600_23764">
<rect width="100" height="100" fill="white"/>
</clipPath>
</defs>
</svg>
