<svg width="90" height="90" viewBox="0 0 90 90" fill="none" xmlns="http://www.w3.org/2000/svg">
<g clip-path="url(#clip0_5600_23745)">
<path d="M42.3184 5.04492C43.3904 2.90647 46.3805 2.83973 47.5723 4.84473L47.6816 5.04492L86.46 82.4053C87.4599 84.4001 86.0097 86.7499 83.7783 86.75H6.22168C3.99026 86.7499 2.54009 84.4001 3.54004 82.4053L42.3184 5.04492Z" fill="black" stroke="black" stroke-width="6"/>
<path d="M45 61.5381C44.8496 61.5381 44.7301 61.4894 44.6582 61.4316C44.6182 61.3995 44.5658 61.3451 44.5312 61.2334L44.5039 61.1006L40.71 31.0625C40.6724 30.764 40.9052 30.5001 41.2061 30.5H48.7939C49.0948 30.5001 49.3276 30.764 49.29 31.0625L45.4961 61.1006C45.4702 61.3058 45.3952 61.3887 45.3418 61.4316C45.2699 61.4894 45.1504 61.5381 45 61.5381Z" fill="white" stroke="white" stroke-width="3"/>
<circle cx="45" cy="72" r="3.5" fill="white" stroke="white" stroke-width="3"/>
</g>
<defs>
<clipPath id="clip0_5600_23745">
<rect width="90" height="90" fill="white"/>
</clipPath>
</defs>
</svg>
