<svg width="100" height="100" viewBox="0 0 100 100" fill="none" xmlns="http://www.w3.org/2000/svg">
<g clip-path="url(#clip0_5600_23772)">
<path d="M50 3C75.9574 3 97 24.0426 97 50C97 75.9574 75.9574 97 50 97C24.0426 97 3 75.9574 3 50C3 24.0426 24.0426 3 50 3Z" fill="#FC8F2B" stroke="black" stroke-width="6"/>
<path d="M68.2112 46.7C68.2112 62.9 61.8112 71 49.0112 71H33.5612V24.425H49.3112C56.1612 24.425 61.0112 26.35 63.8612 30.2C66.7612 34 68.2112 39.5 68.2112 46.7ZM48.7862 60.2C51.4362 60.2 53.1362 59.275 53.8862 57.425C54.6862 55.525 55.0862 52.375 55.0862 47.975C55.0862 43.525 54.6612 40.375 53.8112 38.525C53.0112 36.675 51.2612 35.75 48.5612 35.75H46.3112V60.2H48.7862Z" fill="black"/>
</g>
<defs>
<clipPath id="clip0_5600_23772">
<rect width="100" height="100" fill="white"/>
</clipPath>
</defs>
</svg>
