<svg width="100" height="100" viewBox="0 0 100 100" fill="none" xmlns="http://www.w3.org/2000/svg">
<circle cx="50" cy="50" r="48" fill="#384C6B" stroke="black" stroke-width="4"/>
<mask id="path-2-inside-1_2226_5147" fill="white">
<path d="M50.1787 67.4829C65.963 67.4829 79.8818 73.1537 88.1162 81.7817C79.0382 92.9035 65.2651 99.9994 49.8428 99.9995C34.5979 99.9995 20.9649 93.0653 11.8848 82.1636C20.07 73.3219 34.1634 67.483 50.1787 67.4829ZM49.9316 11.9009C64.2512 11.9011 75.8592 23.5779 75.8594 37.9819C75.8594 52.3861 64.2513 64.0628 49.9316 64.063C35.6118 64.063 24.0029 52.3862 24.0029 37.9819C24.0031 23.5777 35.6119 11.9009 49.9316 11.9009Z"/>
</mask>
<path d="M50.1787 67.4829C65.963 67.4829 79.8818 73.1537 88.1162 81.7817C79.0382 92.9035 65.2651 99.9994 49.8428 99.9995C34.5979 99.9995 20.9649 93.0653 11.8848 82.1636C20.07 73.3219 34.1634 67.483 50.1787 67.4829ZM49.9316 11.9009C64.2512 11.9011 75.8592 23.5779 75.8594 37.9819C75.8594 52.3861 64.2513 64.0628 49.9316 64.063C35.6118 64.063 24.0029 52.3862 24.0029 37.9819C24.0031 23.5777 35.6119 11.9009 49.9316 11.9009Z" fill="#D9D9D9"/>
<path d="M50.1787 67.4829L50.1787 63.4829L50.1787 63.4829L50.1787 67.4829ZM88.1162 81.7817L91.215 84.3111L93.4483 81.575L91.0099 79.0201L88.1162 81.7817ZM49.8428 99.9995L49.8428 104L49.8428 104L49.8428 99.9995ZM11.8848 82.1636L8.94947 79.4462L6.56291 82.0242L8.81124 84.7235L11.8848 82.1636ZM49.9316 11.9009L49.9317 7.90088H49.9316V11.9009ZM75.8594 37.9819L79.8594 37.9819L79.8594 37.9819L75.8594 37.9819ZM49.9316 64.063L49.9316 68.063L49.9317 68.063L49.9316 64.063ZM24.0029 37.9819L20.0029 37.9819V37.9819H24.0029ZM50.1787 67.4829V71.4829C65.0922 71.4829 77.8838 76.8539 85.2226 84.5434L88.1162 81.7817L91.0099 79.0201C81.8797 69.4535 66.8338 63.4829 50.1787 63.4829V67.4829ZM88.1162 81.7817L85.0174 79.2524C76.663 89.4876 64.0078 95.9994 49.8427 95.9995L49.8428 99.9995L49.8428 104C66.5223 103.999 81.4133 96.3194 91.215 84.3111L88.1162 81.7817ZM49.8428 99.9995V95.9995C35.8406 95.9995 23.3145 89.6362 14.9583 79.6036L11.8848 82.1636L8.81124 84.7235C18.6153 96.4944 33.3552 104 49.8428 104V99.9995ZM11.8848 82.1636L14.8201 84.8809C22.1022 77.0148 35.043 71.483 50.1787 71.4829L50.1787 67.4829L50.1787 63.4829C33.2839 63.483 18.0377 69.6291 8.94947 79.4462L11.8848 82.1636ZM49.9316 11.9009L49.9316 15.9009C62.0199 15.9011 71.8593 25.7648 71.8594 37.982L75.8594 37.9819L79.8594 37.9819C79.8592 21.391 66.4826 7.90112 49.9317 7.90088L49.9316 11.9009ZM75.8594 37.9819H71.8594C71.8594 50.1992 62.02 60.0628 49.9316 60.063L49.9316 64.063L49.9317 68.063C66.4826 68.0628 79.8594 54.573 79.8594 37.9819H75.8594ZM49.9316 64.063V60.063C37.843 60.063 28.0029 50.1992 28.0029 37.9819H24.0029H20.0029C20.0029 54.5733 33.3807 68.063 49.9316 68.063V64.063ZM24.0029 37.9819L28.0029 37.982C28.003 25.7648 37.8431 15.9009 49.9316 15.9009V11.9009V7.90088C33.3807 7.90088 20.0031 21.3907 20.0029 37.9819L24.0029 37.9819Z" fill="black" mask="url(#path-2-inside-1_2226_5147)"/>
<path d="M79 35L21 35" stroke="black" stroke-width="4" stroke-linecap="round"/>
<mask id="path-5-inside-2_2226_5147" fill="white">
<path d="M54 9C56.5682 9 58.7583 10.6141 59.6143 12.8828C69.1114 16.7334 75.8214 26.0757 75.8545 37H24C24.0333 26.0099 30.824 16.6196 40.4121 12.8125C41.2865 10.5807 43.4583 9 46 9H54Z"/>
</mask>
<path d="M54 9C56.5682 9 58.7583 10.6141 59.6143 12.8828C69.1114 16.7334 75.8214 26.0757 75.8545 37H24C24.0333 26.0099 30.824 16.6196 40.4121 12.8125C41.2865 10.5807 43.4583 9 46 9H54Z" fill="#FC8F2B"/>
<path d="M54 9L54 5H54V9ZM59.6143 12.8828L55.8718 14.2948L56.4895 15.9322L58.1113 16.5897L59.6143 12.8828ZM75.8545 37V41H79.8666L79.8545 36.9879L75.8545 37ZM24 37L20 36.9879L19.9878 41H24V37ZM40.4121 12.8125L41.8883 16.5302L43.5028 15.8891L44.1365 14.2716L40.4121 12.8125ZM46 9L46 5L46 5L46 9ZM54 9L54 13C54.8482 13 55.5835 13.5307 55.8718 14.2948L59.6143 12.8828L63.3567 11.4708C61.9331 7.69749 58.2883 5 54 5L54 9ZM59.6143 12.8828L58.1113 16.5897C66.1443 19.8467 71.8264 27.7562 71.8545 37.0121L75.8545 37L79.8545 36.9879C79.8163 24.3952 72.0785 13.6202 61.1172 9.17591L59.6143 12.8828ZM75.8545 37V33H24V37V41H75.8545V37ZM24 37L28 37.0121C28.0282 27.7001 33.7791 19.75 41.8883 16.5302L40.4121 12.8125L38.936 9.09484C27.8689 13.4892 20.0384 24.3197 20 36.9879L24 37ZM40.4121 12.8125L44.1365 14.2716C44.431 13.5199 45.16 13 46 13L46 9L46 5C41.7566 5 38.1419 7.64155 36.6877 11.3534L40.4121 12.8125ZM46 9V13H54V9V5H46V9Z" fill="black" mask="url(#path-5-inside-2_2226_5147)"/>
<path d="M42 14V23" stroke="black" stroke-width="4" stroke-linecap="round"/>
<path d="M58 14V23" stroke="black" stroke-width="4" stroke-linecap="round"/>
</svg>
