<svg width="100" height="100" viewBox="0 0 100 100" fill="none" xmlns="http://www.w3.org/2000/svg">
<path d="M50 0C77.6142 0 100 22.3858 100 50C100 77.6142 77.6142 100 50 100C49.9476 100 49.8952 100 49.8428 100C49.6961 100 49.5497 99.9974 49.4033 99.9961C49.3835 99.9959 49.3636 99.9954 49.3438 99.9951C42.7271 99.9294 36.4221 98.558 30.6699 96.124C12.6543 88.5649 0 70.7612 0 50C0 22.3858 22.3858 0 50 0ZM50.1787 73.4834C38.1084 73.4835 27.6123 77.1135 20.4619 82.498C24.0652 85.8238 28.2235 88.5426 32.7793 90.501C38.0457 92.7431 43.8383 93.9873 49.9209 93.998C61.3567 93.9777 71.7594 89.5189 79.5225 82.2188C72.3794 76.9861 62.0341 73.4834 50.1787 73.4834ZM50 6C25.6995 6 6 25.6995 6 50C6 60.7258 9.83952 70.5537 16.2168 78.1885C24.5961 71.614 36.7076 67.4835 50.1787 67.4834C63.5343 67.4834 75.5538 71.5435 83.9248 78.0195C90.2177 70.4091 94 60.6465 94 50C94 25.6995 74.3005 6 50 6ZM50.6006 11.9102C64.611 12.2673 75.8592 23.8033 75.8594 37.9824L75.8516 38.6562C75.4961 52.7489 64.0272 64.0633 49.9316 64.0635L49.2617 64.0557C35.474 63.7041 24.3615 52.5252 24.0117 38.6562L24.0029 37.9824C24.0029 37.7576 24.0061 37.533 24.0117 37.3096C24.0173 37.086 24.0259 36.8627 24.0371 36.6406C24.6867 23.7492 34.6417 13.3274 47.2803 12.0361C47.4982 12.0139 47.717 11.9943 47.9365 11.9775C48.3756 11.9439 48.8178 11.9215 49.2627 11.9102C49.485 11.9045 49.708 11.9014 49.9316 11.9014L50.6006 11.9102ZM49.9316 17.9014C48.56 17.9014 47.2198 18.041 45.9248 18.3076C45.601 18.3743 45.2799 18.4489 44.9619 18.5312C43.5316 18.9015 42.1625 19.4282 40.874 20.0918C40.5878 20.2392 40.3054 20.3939 40.0273 20.5547C39.8881 20.6352 39.7494 20.717 39.6123 20.8008C39.3384 20.9681 39.0688 21.1422 38.8037 21.3223C37.8759 21.9525 37.0035 22.6599 36.1953 23.4346C35.9644 23.6559 35.7387 23.8831 35.5186 24.1152C33.8667 25.8571 32.5221 27.8986 31.5742 30.1523C31.4479 30.4526 31.3278 30.7568 31.2158 31.0645C30.4314 33.2192 30.003 35.5493 30.0029 37.9824C30.0032 49.1061 38.9589 58.0635 49.9316 58.0635C60.9042 58.0633 69.8591 49.106 69.8594 37.9824C69.8592 26.8587 60.9043 17.9016 49.9316 17.9014Z" fill="black"/>
</svg>
