<svg width="90" height="90" viewBox="0 0 90 90" fill="none" xmlns="http://www.w3.org/2000/svg">
<g clip-path="url(#clip0_5607_39418)">
<path d="M3 67C4.65685 67 6 68.3431 6 70V81C6 82.6569 7.34315 84 9 84H20.001C21.6578 84 23.001 85.3431 23.001 87C23.001 88.6569 21.6578 90 20.001 90H6L5.69141 89.9922C2.62332 89.8367 0.163251 87.3767 0.0078125 84.3086L0 84V70C0 68.3431 1.34315 67 3 67ZM87 67C88.6569 67 90 68.3431 90 70V84C90 87.2102 87.4789 89.8316 84.3086 89.9922L84 90H70.001C68.3441 90 67.001 88.6569 67.001 87C67.001 85.3431 68.3441 84 70.001 84H81C82.6569 84 84 82.6569 84 81V70C84 68.3431 85.3431 67 87 67ZM37 47C40.3137 47 43 49.6863 43 53V67C43 70.3137 40.3137 73 37 73H23L22.6914 72.9922C19.5211 72.8316 17 70.2102 17 67V53C17 49.6863 19.6863 47 23 47H37ZM55 64C55.5523 64 56 64.4477 56 65V71C56 71.5523 55.5523 72 55 72H49C48.4477 72 48 71.5523 48 71V65C48 64.4477 48.4477 64 49 64H55ZM71 64C71.5523 64 72 64.4477 72 65V71C72 71.5523 71.5523 72 71 72H65C64.4477 72 64 71.5523 64 71V65C64 64.4477 64.4477 64 65 64H71ZM23 67H37V53H23V67ZM63 56C63.5523 56 64 56.4477 64 57V63C64 63.5523 63.5523 64 63 64H57C56.4477 64 56 63.5523 56 63V57C56 56.4477 56.4477 56 57 56H63ZM32 57C32.5523 57 33 57.4477 33 58V62C33 62.5523 32.5523 63 32 63H28C27.4477 63 27 62.5523 27 62V58C27 57.4477 27.4477 57 28 57H32ZM55 48C55.5523 48 56 48.4477 56 49V55C56 55.5523 55.5523 56 55 56H49C48.4477 56 48 55.5523 48 55V49C48 48.4477 48.4477 48 49 48H55ZM71 48C71.5523 48 72 48.4477 72 49V55C72 55.5523 71.5523 56 71 56H65C64.4477 56 64 55.5523 64 55V49C64 48.4477 64.4477 48 65 48H71ZM37 17C40.3137 17 43 19.6863 43 23V37C43 40.3137 40.3137 43 37 43H23L22.6914 42.9922C19.5211 42.8316 17 40.2102 17 37V23C17 19.6863 19.6863 17 23 17H37ZM67 17C70.3137 17 73 19.6863 73 23V37C73 40.3137 70.3137 43 67 43H53L52.6914 42.9922C49.5211 42.8316 47 40.2102 47 37V23C47 19.6863 49.6863 17 53 17H67ZM23 37H37V23H23V37ZM53 37H67V23H53V37ZM32 27C32.5523 27 33 27.4477 33 28V32C33 32.5523 32.5523 33 32 33H28C27.4477 33 27 32.5523 27 32V28C27 27.4477 27.4477 27 28 27H32ZM62 27C62.5523 27 63 27.4477 63 28V32C63 32.5523 62.5523 33 62 33H58C57.4477 33 57 32.5523 57 32V28C57 27.4477 57.4477 27 58 27H62ZM20.001 0C21.6578 0 23.001 1.34315 23.001 3C23.001 4.65685 21.6578 6 20.001 6H9C7.34315 6 6 7.34315 6 9V20C6 21.6569 4.65685 23 3 23C1.34315 23 4.02666e-08 21.6569 0 20V6C0 2.68629 2.68629 1.69117e-07 6 0H20.001ZM84 0C87.3137 0 90 2.68629 90 6V20C90 21.6569 88.6569 23 87 23C85.3431 23 84 21.6569 84 20V9C84 7.34315 82.6569 6 81 6H70.001C68.3441 6 67.001 4.65685 67.001 3C67.001 1.34315 68.3441 0 70.001 0H84Z" fill="black"/>
</g>
<defs>
<clipPath id="clip0_5607_39418">
<rect width="90" height="90" fill="white"/>
</clipPath>
</defs>
</svg>
