<svg width="80" height="100" viewBox="0 0 80 100" fill="none" xmlns="http://www.w3.org/2000/svg">
<g clip-path="url(#clip0_5594_14800)">
<mask id="path-1-inside-1_5594_14800" fill="white">
<path d="M51 0C54.3137 0 57 2.68629 57 6V84.3418C59.3303 85.1655 61 87.3876 61 90V94C61 97.3137 58.3137 100 55 100H6C2.68629 100 0 97.3137 0 94V90C0 87.3876 1.66968 85.1655 4 84.3418V6C4 2.68629 6.68629 4.83192e-08 10 0H51Z"/>
</mask>
<path d="M57 6L63 6L63 6L57 6ZM57 84.3418H51V88.5848L55.0004 89.9988L57 84.3418ZM55 100L55 106H55L55 100ZM6 100L6 106H6V100ZM4 84.3418L5.9996 89.9988L10 88.5848V84.3418H4ZM4 6L-2 6V6H4ZM10 0L10 -6L10 0ZM51 0V6V6L57 6L63 6C63 -0.627417 57.6274 -6 51 -6V0ZM57 6H51V84.3418H57H63V6H57ZM57 84.3418L55.0004 89.9988C54.9956 89.9971 54.9946 89.9959 54.9967 89.9975C54.9978 89.9982 54.9991 89.9994 55.0005 90.0008C55.0019 90.0022 55.0029 90.0035 55.0035 90.0043C55.0046 90.0058 55.003 90.0041 55.0012 89.9987C55.0004 89.9961 54.9999 89.9939 54.9997 89.9927C54.9995 89.9914 55 89.9935 55 90H61H67C67 84.7652 63.6516 80.3292 58.9996 78.6848L57 84.3418ZM61 90H55V94H61H67V90H61ZM61 94H55H55L55 100L55 106C61.6274 106 67 100.627 67 94H61ZM55 100V94H6V100V106H55V100ZM6 100L6 94H6H0H-6C-6 100.627 -0.627417 106 6 106L6 100ZM0 94H6V90H0H-6V94H0ZM0 90H6C6 89.9935 6.00048 89.9914 6.00027 89.9927C6.00009 89.9939 5.99962 89.9961 5.99875 89.9987C5.99698 90.0041 5.99543 90.0058 5.99655 90.0043C5.99714 90.0035 5.99814 90.0022 5.99952 90.0008C6.00091 89.9994 6.00224 89.9982 6.00328 89.9975C6.00537 89.9959 6.0044 89.9971 5.9996 89.9988L4 84.3418L2.0004 78.6848C-2.65157 80.3292 -6 84.7652 -6 90H0ZM4 84.3418H10V6H4H-2V84.3418H4ZM4 6L10 6L10 6L10 0L10 -6C3.37258 -6 -2 -0.627417 -2 6L4 6ZM10 0V6H51V0V-6H10V0Z" fill="black" mask="url(#path-1-inside-1_5594_14800)"/>
<rect x="17" y="13" width="27" height="23" rx="3" stroke="black" stroke-width="6"/>
<path d="M56 34H61" stroke="black" stroke-width="6" stroke-linecap="round"/>
<path d="M66 10L76.048 20.048" stroke="black" stroke-width="6" stroke-linecap="round"/>
<path d="M66 39V80" stroke="black" stroke-width="6" stroke-linecap="round"/>
<path d="M77 23V80" stroke="black" stroke-width="6" stroke-linecap="round"/>
<path d="M61.4121 31.0107C65.5071 31.2275 68.7903 34.657 68.998 38.9336L69 39H62.9844C62.8223 37.6841 61.7961 37 61 37V31L61.4121 31.0107Z" fill="black"/>
<circle cx="72" cy="23" r="5" stroke="black" stroke-width="6"/>
<path d="M79.999 80.0635C79.7712 84.295 76.0536 87.66 71.501 87.6602L71.0625 87.6494C66.7117 87.4415 63.2224 84.1584 63.002 80.0635L63 80H69.04C69.2309 80.7467 70.0117 81.66 71.501 81.6602C72.9903 81.66 73.7712 80.7467 73.9619 80H80.001L79.999 80.0635Z" fill="black"/>
</g>
<defs>
<clipPath id="clip0_5594_14800">
<rect width="80" height="100" fill="white"/>
</clipPath>
</defs>
</svg>
