<svg width="80" height="100" viewBox="0 0 80 100" fill="none" xmlns="http://www.w3.org/2000/svg">
<g clip-path="url(#clip0_5594_14876)">
<path d="M47.3271 0C50.6409 0 53.3271 2.68629 53.3271 6V82.3271C53.3271 83.251 54.0761 84 55 84C56.6569 84 58 85.3431 58 87V97C58 98.6569 56.6569 100 55 100H3C1.34315 100 0 98.6569 0 97V87C0 85.3431 1.34315 84 3 84C3.92335 84 4.67188 83.2515 4.67188 82.3281V6C4.67188 2.68629 7.35817 8.13555e-08 10.6719 0H47.3271ZM16 8C14.3431 8 13 9.34315 13 11V29C13 30.6569 14.3431 32 16 32H42C43.6569 32 45 30.6569 45 29V11C45 9.34315 43.6569 8 42 8H16Z" fill="black"/>
<path d="M52 32H57" stroke="black" stroke-width="6" stroke-linecap="round"/>
<path d="M65 8L75.048 18.048" stroke="black" stroke-width="6" stroke-linecap="round"/>
<path d="M62 37V78" stroke="black" stroke-width="6" stroke-linecap="round"/>
<path d="M76 21V78" stroke="black" stroke-width="6" stroke-linecap="round"/>
<path d="M57.4121 29.0107C61.5071 29.2275 64.7903 32.657 64.998 36.9336L65 37H58.9844C58.8223 35.6841 57.7961 35 57 35V29L57.4121 29.0107Z" fill="black"/>
<circle cx="71" cy="21" r="5" fill="black" stroke="black" stroke-width="6"/>
<path d="M79.0244 78.083C78.7561 83.6065 74.3824 87.999 69.0264 87.999L68.5117 87.9854C63.3928 87.7146 59.2879 83.4285 59.0283 78.083L59.0264 77.999H65.0361C65.2492 80.4459 67.1663 81.9989 69.0264 81.999C70.8865 81.999 72.8036 80.446 73.0166 77.999H79.0264L79.0244 78.083Z" fill="black"/>
</g>
<defs>
<clipPath id="clip0_5594_14876">
<rect width="80" height="100" fill="white"/>
</clipPath>
</defs>
</svg>
