<svg width="90" height="90" viewBox="0 0 90 90" fill="none" xmlns="http://www.w3.org/2000/svg">
<path d="M34.1357 0.0107422C52.1166 0.463966 66.5525 15.1009 66.5527 33.0908L66.542 33.9453C66.3419 41.8003 63.3883 48.9744 58.6064 54.5508L88.0938 83.874L88.2002 83.9854C89.2672 85.1597 89.2319 86.9727 88.0938 88.1045C86.9556 89.2362 85.1321 89.2719 83.9512 88.2109L83.8389 88.1045L54.3057 58.7354C48.5735 63.3894 41.2535 66.1826 33.2764 66.1826L32.418 66.1719C14.7221 65.7263 0.459091 51.5426 0.0107422 33.9453L0 33.0908C0.00019073 14.8153 14.8984 4.92062e-05 33.2764 0L34.1357 0.0107422ZM33.2764 6C18.1805 6.00005 6.00019 18.1605 6 33.0908C6 48.0213 18.1804 60.1826 33.2764 60.1826C48.3724 60.1826 60.5527 48.0213 60.5527 33.0908C60.5525 18.1605 48.3723 6 33.2764 6Z" fill="black"/>
</svg>
