<svg width="90" height="90" viewBox="0 0 90 90" fill="none" xmlns="http://www.w3.org/2000/svg">
<path d="M89.9697 35.1357C89.5165 53.1166 74.8795 67.5525 56.8896 67.5527L56.0352 67.542C48.1802 67.3419 41.0061 64.3883 35.4297 59.6064L6.10645 89.0938L5.99512 89.2002C4.82075 90.2672 3.00775 90.2319 1.87598 89.0938C0.74427 87.9556 0.70856 86.1321 1.76953 84.9512L1.87598 84.8389L31.2451 55.3057C26.5911 49.5735 23.7979 42.2535 23.7979 34.2764L23.8086 33.418C24.2542 15.7221 38.4379 1.45909 56.0352 1.01074L56.8896 1C75.1652 1.00019 89.9804 15.8984 89.9805 34.2764L89.9697 35.1357ZM83.9805 34.2764C83.9804 19.1805 71.82 7.00019 56.8896 7C41.9592 7 29.7979 19.1804 29.7979 34.2764C29.7979 49.3724 41.9591 61.5527 56.8896 61.5527C71.82 61.5525 83.9805 49.3723 83.9805 34.2764Z" fill="black"/>
</svg>
