<svg width="100" height="100" viewBox="0 0 100 100" fill="none" xmlns="http://www.w3.org/2000/svg">
<g clip-path="url(#clip0_5576_16674)">
<mask id="path-1-inside-1_5576_16674" fill="white">
<path d="M54 0C57.3136 0 59.9999 2.6864 60 6V10.4836C60 10.9399 60.3092 11.337 60.7488 11.4594C64.0871 12.3887 67.2492 13.7414 70.1747 15.4538C70.5735 15.6872 71.0809 15.6281 71.4077 15.3014L74.4678 12.2422C76.8108 9.89927 80.61 9.89941 82.9531 12.2422L88.6104 17.8994C90.9533 20.2425 90.9533 24.0417 88.6104 26.3848L85.3131 29.6812C84.9944 29.9998 84.9293 30.4915 85.145 30.8872C86.5752 33.5113 87.7208 36.3129 88.5387 39.2512C88.661 39.6907 89.0582 40 89.5145 40H94C97.3136 40 99.9999 42.6864 100 46V54C99.9999 57.3136 97.3136 60 94 60H89.5145C89.0582 60 88.661 60.3093 88.5387 60.7488C87.6649 63.8869 86.4161 66.8686 84.8469 69.6451C84.6224 70.0424 84.6846 70.542 85.0072 70.8647L88.6104 74.4678C90.9534 76.8109 90.9533 80.61 88.6104 82.9531L82.9531 88.6104C80.61 90.9532 76.8108 90.9533 74.4678 88.6104L70.8647 85.0072C70.542 84.6846 70.0424 84.6224 69.6451 84.8469C66.8686 86.4161 63.887 87.6649 60.7488 88.5387C60.3093 88.661 60 89.0582 60 89.5145V94C59.9999 97.3136 57.3136 100 54 100H46C42.6864 100 40.0001 97.3136 40 94V89.5145C40 89.0582 39.6907 88.661 39.2512 88.5387C36.3129 87.7208 33.5113 86.5752 30.8872 85.145C30.4915 84.9293 29.9998 84.9944 29.6812 85.3131L26.3848 88.6104C24.0417 90.9532 20.2425 90.9533 17.8994 88.6104L12.2422 82.9531C9.89944 80.61 9.89937 76.8108 12.2422 74.4678L15.3014 71.4077C15.6281 71.0809 15.6872 70.5735 15.4538 70.1747C13.7417 67.2493 12.3904 64.087 11.4613 60.7488C11.339 60.3092 10.9418 60 10.4855 60H6C2.68638 60 0.000131942 57.3136 0 54V46C0.00013194 42.6864 2.68638 40 6 40H10.4855C10.9418 40 11.339 39.6907 11.4613 39.2512C12.335 36.1128 13.583 33.1306 15.1521 30.3539C15.3766 29.9566 15.3145 29.457 14.9918 29.1344L12.2422 26.3848C9.89938 24.0417 9.89943 20.2425 12.2422 17.8994L17.8994 12.2422C20.2425 9.89931 24.0417 9.89934 26.3848 12.2422L29.1334 14.9908C29.4561 15.3135 29.9556 15.3756 30.3529 15.1511C33.1299 13.5818 36.1125 12.3332 39.2512 11.4594C39.6907 11.337 40 10.9399 40 10.4836V6C40.0001 2.6864 42.6864 0 46 0H54Z"/>
</mask>
<path d="M54 0C57.3136 0 59.9999 2.6864 60 6V10.4836C60 10.9399 60.3092 11.337 60.7488 11.4594C64.0871 12.3887 67.2492 13.7414 70.1747 15.4538C70.5735 15.6872 71.0809 15.6281 71.4077 15.3014L74.4678 12.2422C76.8108 9.89927 80.61 9.89941 82.9531 12.2422L88.6104 17.8994C90.9533 20.2425 90.9533 24.0417 88.6104 26.3848L85.3131 29.6812C84.9944 29.9998 84.9293 30.4915 85.145 30.8872C86.5752 33.5113 87.7208 36.3129 88.5387 39.2512C88.661 39.6907 89.0582 40 89.5145 40H94C97.3136 40 99.9999 42.6864 100 46V54C99.9999 57.3136 97.3136 60 94 60H89.5145C89.0582 60 88.661 60.3093 88.5387 60.7488C87.6649 63.8869 86.4161 66.8686 84.8469 69.6451C84.6224 70.0424 84.6846 70.542 85.0072 70.8647L88.6104 74.4678C90.9534 76.8109 90.9533 80.61 88.6104 82.9531L82.9531 88.6104C80.61 90.9532 76.8108 90.9533 74.4678 88.6104L70.8647 85.0072C70.542 84.6846 70.0424 84.6224 69.6451 84.8469C66.8686 86.4161 63.887 87.6649 60.7488 88.5387C60.3093 88.661 60 89.0582 60 89.5145V94C59.9999 97.3136 57.3136 100 54 100H46C42.6864 100 40.0001 97.3136 40 94V89.5145C40 89.0582 39.6907 88.661 39.2512 88.5387C36.3129 87.7208 33.5113 86.5752 30.8872 85.145C30.4915 84.9293 29.9998 84.9944 29.6812 85.3131L26.3848 88.6104C24.0417 90.9532 20.2425 90.9533 17.8994 88.6104L12.2422 82.9531C9.89944 80.61 9.89937 76.8108 12.2422 74.4678L15.3014 71.4077C15.6281 71.0809 15.6872 70.5735 15.4538 70.1747C13.7417 67.2493 12.3904 64.087 11.4613 60.7488C11.339 60.3092 10.9418 60 10.4855 60H6C2.68638 60 0.000131942 57.3136 0 54V46C0.00013194 42.6864 2.68638 40 6 40H10.4855C10.9418 40 11.339 39.6907 11.4613 39.2512C12.335 36.1128 13.583 33.1306 15.1521 30.3539C15.3766 29.9566 15.3145 29.457 14.9918 29.1344L12.2422 26.3848C9.89938 24.0417 9.89943 20.2425 12.2422 17.8994L17.8994 12.2422C20.2425 9.89931 24.0417 9.89934 26.3848 12.2422L29.1334 14.9908C29.4561 15.3135 29.9556 15.3756 30.3529 15.1511C33.1299 13.5818 36.1125 12.3332 39.2512 11.4594C39.6907 11.337 40 10.9399 40 10.4836V6C40.0001 2.6864 42.6864 0 46 0H54Z" fill="#9C9C9C"/>
<path d="M60 6H66V5.99976L60 6ZM74.4678 12.2422L78.7098 16.4854L78.7103 16.4849L74.4678 12.2422ZM82.9531 12.2422L87.1958 7.99955L87.1954 7.99923L82.9531 12.2422ZM88.6104 17.8994L92.8532 13.6569L92.853 13.6568L88.6104 17.8994ZM88.6104 26.3848L92.8525 30.6279L92.8531 30.6273L88.6104 26.3848ZM100 46H106V45.9998L100 46ZM100 54L106 54.0002V54H100ZM88.6104 74.4678L92.8531 70.2252L92.853 70.2251L88.6104 74.4678ZM88.6104 82.9531L92.853 87.1958L92.8532 87.1956L88.6104 82.9531ZM82.9531 88.6104L87.1955 92.8533L87.1958 92.853L82.9531 88.6104ZM74.4678 88.6104L70.2251 92.853L70.2252 92.8531L74.4678 88.6104ZM60 94L66 94.0002V94H60ZM40 94H34V94.0002L40 94ZM26.3848 88.6104L30.6272 92.8532L30.6279 92.8525L26.3848 88.6104ZM17.8994 88.6104L13.6568 92.853L13.6569 92.8532L17.8994 88.6104ZM12.2422 82.9531L7.99923 87.1954L7.99955 87.1958L12.2422 82.9531ZM12.2422 74.4678L16.485 78.7102L16.4854 78.7098L12.2422 74.4678ZM0 54H-6V54.0002L0 54ZM0 46L-6 45.9998V46H0ZM12.2422 26.3848L7.99932 30.6272L7.99955 30.6274L12.2422 26.3848ZM12.2422 17.8994L7.99955 13.6568L7.99925 13.6571L12.2422 17.8994ZM17.8994 12.2422L13.657 7.99936L13.6568 7.99955L17.8994 12.2422ZM26.3848 12.2422L30.6274 7.99955L30.6272 7.99932L26.3848 12.2422ZM40 6L34 5.99976V6H40ZM39.2512 11.4594L40.8604 17.2395L39.2512 11.4594ZM15.1521 30.3539L9.9284 27.4021L15.1521 30.3539ZM14.9918 29.1344L10.7491 33.377L14.9918 29.1344ZM11.4613 60.7488L5.68101 62.3576L11.4613 60.7488ZM30.8872 85.145L33.7586 79.8767L30.8872 85.145ZM29.6812 85.3131L25.438 81.071L29.6812 85.3131ZM88.5387 39.2512L82.7585 40.8602L88.5387 39.2512ZM15.3014 71.4077L11.0582 67.1656L15.3014 71.4077ZM15.4538 70.1747L20.6321 67.144L15.4538 70.1747ZM29.1334 14.9908L24.8907 19.2334L29.1334 14.9908ZM60.7488 88.5387L59.1394 82.7585L60.7488 88.5387ZM70.1747 15.4538L73.2057 10.2757L70.1747 15.4538ZM71.4077 15.3014L67.1656 11.0582L71.4077 15.3014ZM39.2512 88.5387L40.8602 82.7585L39.2512 88.5387ZM84.8469 69.6451L79.6234 66.6931L84.8469 69.6451ZM88.5387 60.7488L94.3188 62.3583L88.5387 60.7488ZM69.6451 84.8469L66.6931 79.6234L69.6451 84.8469ZM85.3131 29.6812L89.5552 33.9244L85.3131 29.6812ZM85.145 30.8872L90.4133 28.0158L85.145 30.8872ZM60.7488 11.4594L62.3579 5.67914L60.7488 11.4594ZM54 0V6V6.00024L60 6L66 5.99976C65.9997 -0.627119 60.6276 -6 54 -6V0ZM60 6H54V10.4836H60H66V6H60ZM60.7488 11.4594L59.1398 17.2396C61.9712 18.0278 64.6562 19.1759 67.1437 20.6319L70.1747 15.4538L73.2057 10.2757C69.8422 8.30686 66.2031 6.74953 62.3579 5.67914L60.7488 11.4594ZM71.4077 15.3014L75.6498 19.5447L78.7098 16.4854L74.4678 12.2422L70.2257 7.99897L67.1656 11.0582L71.4077 15.3014ZM74.4678 12.2422L78.7103 16.4849L78.7108 16.4851L82.9531 12.2422L87.1954 7.99923C82.5094 3.31392 74.9116 3.31333 70.2253 7.99943L74.4678 12.2422ZM82.9531 12.2422L78.7105 16.4848L84.3677 22.1421L88.6104 17.8994L92.853 13.6568L87.1958 7.99955L82.9531 12.2422ZM88.6104 17.8994L84.3675 22.1419L84.3676 22.1422L88.6104 26.3848L92.8531 30.6273C97.5391 25.941 97.539 18.3431 92.8532 13.6569L88.6104 17.8994ZM88.6104 26.3848L84.3682 22.1416L81.071 25.438L85.3131 29.6812L89.5552 33.9244L92.8525 30.6279L88.6104 26.3848ZM85.145 30.8872L79.8767 33.7586C81.0923 35.9889 82.0646 38.3676 82.7585 40.8602L88.5387 39.2512L94.3189 37.6421C93.377 34.2583 92.0581 31.0337 90.4133 28.0158L85.145 30.8872ZM89.5145 40V46H94V40V34H89.5145V40ZM94 40V46V46.0002L100 46L106 45.9998C106 39.3729 100.628 34 94 34V40ZM100 46H94V54H100H106V46H100ZM100 54L94 53.9998V54V60V66C100.628 66 106 60.6271 106 54.0002L100 54ZM94 60V54H89.5145V60V66H94V60ZM88.5387 60.7488L82.7585 59.1394C82.0177 61.7998 80.958 64.3315 79.6234 66.6931L84.8469 69.6451L90.0705 72.5971C91.8741 69.4057 93.312 65.9741 94.3188 62.3583L88.5387 60.7488ZM85.0072 70.8647L80.7646 75.1073L84.3677 78.7104L88.6104 74.4678L92.853 70.2251L89.2499 66.622L85.0072 70.8647ZM88.6104 74.4678L84.3676 78.7103L84.3675 78.7107L88.6104 82.9531L92.8532 87.1956C97.5389 82.5095 97.5392 74.9115 92.8531 70.2252L88.6104 74.4678ZM88.6104 82.9531L84.3677 78.7105L78.7105 84.3677L82.9531 88.6104L87.1958 92.853L92.853 87.1958L88.6104 82.9531ZM82.9531 88.6104L78.7108 84.3674L78.7103 84.3676L74.4678 88.6104L70.2252 92.8531C74.9116 97.5393 82.5095 97.5386 87.1955 92.8533L82.9531 88.6104ZM74.4678 88.6104L78.7104 84.3677L75.1073 80.7646L70.8647 85.0072L66.622 89.2499L70.2251 92.853L74.4678 88.6104ZM69.6451 84.8469L66.6931 79.6234C64.3314 80.958 61.7999 82.0178 59.1394 82.7585L60.7488 88.5387L62.3582 94.3188C65.9741 93.312 69.4057 91.8741 72.5971 90.0705L69.6451 84.8469ZM60 89.5145H54V94H60H66V89.5145H60ZM60 94L54 93.9998V94V100V106C60.6276 106 65.9997 100.627 66 94.0002L60 94ZM54 100V94H46V100V106H54V100ZM46 100V94V93.9998L40 94L34 94.0002C34.0003 100.627 39.3724 106 46 106V100ZM40 94H46V89.5145H40H34V94H40ZM39.2512 88.5387L40.8602 82.7585C38.3676 82.0646 35.9889 81.0923 33.7586 79.8767L30.8872 85.145L28.0157 90.4133C31.0337 92.0582 34.2583 93.377 37.6422 94.3189L39.2512 88.5387ZM29.6812 85.3131L25.438 81.071L22.1416 84.3682L26.3848 88.6104L30.6279 92.8525L33.9244 89.5552L29.6812 85.3131ZM26.3848 88.6104L22.1423 84.3675L22.1419 84.3675L17.8994 88.6104L13.6569 92.8532C18.3432 97.539 25.941 97.5389 30.6272 92.8532L26.3848 88.6104ZM17.8994 88.6104L22.1421 84.3677L16.4848 78.7105L12.2422 82.9531L7.99955 87.1958L13.6568 92.853L17.8994 88.6104ZM12.2422 82.9531L16.4851 78.7108L16.485 78.7102L12.2422 74.4678L7.99933 70.2253C3.31355 74.9116 3.31386 82.5094 7.99923 87.1954L12.2422 82.9531ZM12.2422 74.4678L16.4854 78.7098L19.5447 75.6498L15.3014 71.4077L11.0582 67.1656L7.99897 70.2257L12.2422 74.4678ZM15.4538 70.1747L20.6321 67.144C19.1771 64.6579 18.03 61.9727 17.2416 59.14L11.4613 60.7488L5.68101 62.3576C6.75079 66.2012 8.3063 69.8407 10.2755 73.2053L15.4538 70.1747ZM10.4855 60V54H6V60V66H10.4855V60ZM6 60V54V53.9998L0 54L-6 54.0002C-5.99974 60.6271 -0.627569 66 6 66V60ZM0 54H6V46H0H-6V54H0ZM0 46L6 46.0002V46V40V34C-0.627569 34 -5.99974 39.3729 -6 45.9998L0 46ZM6 40V46H10.4855V40V34H6V40ZM11.4613 39.2512L17.2415 40.8603C17.9825 38.1987 19.0417 35.6666 20.3758 33.3057L15.1521 30.3539L9.9284 27.4021C8.12439 30.5946 6.68755 34.027 5.68114 37.642L11.4613 39.2512ZM14.9918 29.1344L19.2344 24.8917L16.4848 22.1421L12.2422 26.3848L7.99955 30.6274L10.7491 33.377L14.9918 29.1344ZM12.2422 26.3848L16.4851 22.1424L16.4851 22.1418L12.2422 17.8994L7.99925 13.6571C3.31382 18.3432 3.3136 25.941 7.99932 30.6272L12.2422 26.3848ZM12.2422 17.8994L16.4848 22.1421L22.1421 16.4848L17.8994 12.2422L13.6568 7.99955L7.99955 13.6568L12.2422 17.8994ZM17.8994 12.2422L22.1419 16.485L22.1424 16.4851L26.3848 12.2422L30.6272 7.99932C25.941 3.31368 18.3432 3.31353 13.657 7.99936L17.8994 12.2422ZM26.3848 12.2422L22.1421 16.4848L24.8907 19.2334L29.1334 14.9908L33.376 10.7482L30.6274 7.99955L26.3848 12.2422ZM30.3529 15.1511L33.3049 20.3747C35.6664 19.0402 38.1989 17.9805 40.8604 17.2395L39.2512 11.4594L37.6419 5.6792C34.0261 6.68585 30.5934 8.12339 27.401 9.9275L30.3529 15.1511ZM40 10.4836H46V6H40H34V10.4836H40ZM40 6L46 6.00024V6V0V-6C39.3724 -6 34.0003 -0.627119 34 5.99976L40 6ZM46 0V6H54V0V-6H46V0ZM39.2512 11.4594L40.8604 17.2395C43.8274 16.4135 46 13.7036 46 10.4836H40H34C34 8.17616 35.5541 6.26047 37.6419 5.6792L39.2512 11.4594ZM15.1521 30.3539L20.3758 33.3057C21.8922 30.6222 21.5112 27.1685 19.2344 24.8917L14.9918 29.1344L10.7491 33.377C9.11777 31.7456 8.86104 29.291 9.9284 27.4021L15.1521 30.3539ZM11.4613 60.7488L17.2416 59.14C16.4156 56.1724 13.7053 54 10.4855 54V60V66C8.17836 66 6.26229 64.4461 5.68101 62.3576L11.4613 60.7488ZM30.8872 85.145L33.7586 79.8767C31.0858 78.4199 27.6856 78.8228 25.438 81.071L29.6812 85.3131L33.9244 89.5552C32.3139 91.166 29.8973 91.4388 28.0157 90.4133L30.8872 85.145ZM88.5387 39.2512L82.7585 40.8602C83.5844 43.8274 86.2945 46 89.5145 46V40V34C91.8219 34 93.7377 35.5541 94.3189 37.6421L88.5387 39.2512ZM15.3014 71.4077L19.5447 75.6498C21.85 73.3438 22.2081 69.8367 20.6321 67.144L15.4538 70.1747L10.2755 73.2053C9.16642 71.3103 9.40629 68.818 11.0582 67.1656L15.3014 71.4077ZM29.1334 14.9908L24.8907 19.2334C27.1675 21.5102 30.6213 21.8912 33.3049 20.3747L30.3529 15.1511L27.401 9.9275C29.29 8.86001 31.7446 9.11679 33.376 10.7482L29.1334 14.9908ZM60.7488 88.5387L59.1394 82.7585C56.1726 83.5846 54 86.2945 54 89.5145H60H66C66 91.8219 64.4459 93.7375 62.3582 94.3188L60.7488 88.5387ZM70.1747 15.4538L67.1437 20.6319C69.8366 22.2082 73.3438 21.8499 75.6498 19.5447L71.4077 15.3014L67.1656 11.0582C68.8179 9.40635 71.3104 9.16628 73.2057 10.2757L70.1747 15.4538ZM40 89.5145H46C46 86.2945 43.8274 83.5844 40.8602 82.7585L39.2512 88.5387L37.6422 94.3189C35.5541 93.7377 34 91.8219 34 89.5145H40ZM10.4855 40V46C13.7055 46 16.4155 43.8274 17.2415 40.8603L11.4613 39.2512L5.68114 37.642C6.26242 35.554 8.17816 34 10.4855 34V40ZM84.8469 69.6451L79.6234 66.6931C78.1068 69.3768 78.4879 72.8306 80.7646 75.1073L85.0072 70.8647L89.2499 66.622C90.8812 68.2533 91.1381 70.7081 90.0705 72.5971L84.8469 69.6451ZM89.5145 60V54C86.2945 54 83.5846 56.1726 82.7585 59.1394L88.5387 60.7488L94.3188 62.3583C93.7375 64.446 91.8219 66 89.5145 66V60ZM70.8647 85.0072L75.1073 80.7646C72.8306 78.4879 69.3768 78.1068 66.6931 79.6234L69.6451 84.8469L72.5971 90.0705C70.7081 91.1381 68.2533 90.8812 66.622 89.2499L70.8647 85.0072ZM85.3131 29.6812L81.071 25.438C78.8228 27.6856 78.4199 31.0858 79.8767 33.7586L85.145 30.8872L90.4133 28.0158C91.4388 29.8973 91.166 32.3139 89.5552 33.9244L85.3131 29.6812ZM60 10.4836H54C54 13.7034 56.1725 16.4136 59.1398 17.2396L60.7488 11.4594L62.3579 5.67914C64.446 6.26042 66 8.1763 66 10.4836H60Z" fill="black" mask="url(#path-1-inside-1_5576_16674)"/>
<path d="M50 33C59.3888 33 67 40.6112 67 50C67 59.3888 59.3888 67 50 67C40.6112 67 33 59.3888 33 50C33 40.6112 40.6112 33 50 33Z" fill="white" stroke="black" stroke-width="6"/>
</g>
<defs>
<clipPath id="clip0_5576_16674">
<rect width="100" height="100" fill="white"/>
</clipPath>
</defs>
</svg>
