<svg width="251" height="250" viewBox="0 0 251 250" fill="none" xmlns="http://www.w3.org/2000/svg">
<rect width="250.694" height="250" rx="10" fill="white"/>
<path fill-rule="evenodd" clip-rule="evenodd" d="M105.773 50C105.773 47.7909 107.564 46 109.773 46H140.765C142.974 46 144.765 47.7909 144.765 50V76.582C144.765 78.4547 143.246 79.9728 141.374 79.9728C139.501 79.9728 137.983 78.4547 137.983 76.582V58.4932C137.983 56.284 136.192 54.4932 133.983 54.4932H116.554C114.345 54.4932 112.554 56.284 112.554 58.4932V76.5823C112.554 78.4548 111.036 79.9728 109.163 79.9728C107.291 79.9728 105.773 78.4548 105.773 76.5823V60.0931C92.1762 67.1638 82.8872 81.3993 82.8871 97.8085H167.652C167.652 81.3987 158.362 67.1629 144.765 60.0924V53.0138C163.584 60.2777 177.342 77.7496 179.283 98.6575H187.537C189.194 98.6575 190.537 100.001 190.537 101.658V105C190.537 106.657 189.194 108 187.537 108H63C61.3432 108 60 106.657 60 105V101.658C60 100.001 61.3431 98.6575 63 98.6575H71.2553C73.1958 77.7497 86.9544 60.278 105.773 53.014V50Z" fill="black"/>
<path d="M90.0469 157.375C86.2812 157.375 83.5625 156.438 81.8906 154.562C80.2344 152.688 79.4062 149.703 79.4062 145.609V141.578H87.5625V146.734C87.5625 147.688 87.7031 148.438 87.9844 148.984C88.2812 149.516 88.7891 149.781 89.5078 149.781C90.2578 149.781 90.7734 149.562 91.0547 149.125C91.3516 148.688 91.5 147.969 91.5 146.969C91.5 145.703 91.375 144.648 91.125 143.805C90.875 142.945 90.4375 142.133 89.8125 141.367C89.2031 140.586 88.3516 139.68 87.2578 138.648L83.5547 135.133C80.7891 132.523 79.4062 129.539 79.4062 126.18C79.4062 122.664 80.2188 119.984 81.8438 118.141C83.4844 116.297 85.8516 115.375 88.9453 115.375C92.7266 115.375 95.4062 116.383 96.9844 118.398C98.5781 120.414 99.375 123.477 99.375 127.586H90.9844V124.75C90.9844 124.188 90.8203 123.75 90.4922 123.438C90.1797 123.125 89.75 122.969 89.2031 122.969C88.5469 122.969 88.0625 123.156 87.75 123.531C87.4531 123.891 87.3047 124.359 87.3047 124.938C87.3047 125.516 87.4609 126.141 87.7734 126.812C88.0859 127.484 88.7031 128.258 89.625 129.133L94.3828 133.703C95.3359 134.609 96.2109 135.57 97.0078 136.586C97.8047 137.586 98.4453 138.758 98.9297 140.102C99.4141 141.43 99.6562 143.055 99.6562 144.977C99.6562 148.852 98.9375 151.891 97.5 154.094C96.0781 156.281 93.5938 157.375 90.0469 157.375ZM102.422 157V115.75H110.625V130.492H114.516V115.75H122.719V157H114.516V138.297H110.625V157H102.422ZM126 157V115.75H133.969V157H126ZM137.25 157V115.75H153.75V123.789H145.547V130.352H153.328V138.297H145.547V157H137.25ZM159.961 157V123.672H155.062V115.75H173.109V123.672H168.211V157H159.961Z" fill="black"/>
<path d="M91.5469 204.375C87.7812 204.375 85.0625 203.438 83.3906 201.562C81.7344 199.688 80.9062 196.703 80.9062 192.609V188.578H89.0625V193.734C89.0625 194.688 89.2031 195.438 89.4844 195.984C89.7812 196.516 90.2891 196.781 91.0078 196.781C91.7578 196.781 92.2734 196.562 92.5547 196.125C92.8516 195.688 93 194.969 93 193.969C93 192.703 92.875 191.648 92.625 190.805C92.375 189.945 91.9375 189.133 91.3125 188.367C90.7031 187.586 89.8516 186.68 88.7578 185.648L85.0547 182.133C82.2891 179.523 80.9062 176.539 80.9062 173.18C80.9062 169.664 81.7188 166.984 83.3438 165.141C84.9844 163.297 87.3516 162.375 90.4453 162.375C94.2266 162.375 96.9062 163.383 98.4844 165.398C100.078 167.414 100.875 170.477 100.875 174.586H92.4844V171.75C92.4844 171.188 92.3203 170.75 91.9922 170.438C91.6797 170.125 91.25 169.969 90.7031 169.969C90.0469 169.969 89.5625 170.156 89.25 170.531C88.9531 170.891 88.8047 171.359 88.8047 171.938C88.8047 172.516 88.9609 173.141 89.2734 173.812C89.5859 174.484 90.2031 175.258 91.125 176.133L95.8828 180.703C96.8359 181.609 97.7109 182.57 98.5078 183.586C99.3047 184.586 99.9453 185.758 100.43 187.102C100.914 188.43 101.156 190.055 101.156 191.977C101.156 195.852 100.438 198.891 99 201.094C97.5781 203.281 95.0938 204.375 91.5469 204.375ZM113.531 204.375C110.547 204.375 108.141 203.445 106.312 201.586C104.5 199.727 103.594 197.125 103.594 193.781V174.75C103.594 170.75 104.383 167.688 105.961 165.562C107.555 163.438 110.141 162.375 113.719 162.375C115.672 162.375 117.406 162.734 118.922 163.453C120.453 164.172 121.656 165.25 122.531 166.688C123.406 168.109 123.844 169.906 123.844 172.078V179.203H115.641V173.109C115.641 171.875 115.484 171.047 115.172 170.625C114.859 170.188 114.375 169.969 113.719 169.969C112.953 169.969 112.438 170.25 112.172 170.812C111.906 171.359 111.773 172.094 111.773 173.016V193.664C111.773 194.805 111.938 195.609 112.266 196.078C112.609 196.547 113.094 196.781 113.719 196.781C114.422 196.781 114.914 196.492 115.195 195.914C115.492 195.336 115.641 194.586 115.641 193.664V186.234H123.938V194.039C123.938 197.664 123.023 200.297 121.195 201.938C119.367 203.562 116.812 204.375 113.531 204.375ZM125.578 204L129.562 162.75H143.555L147.469 204H139.664L139.078 197.344H134.109L133.594 204H125.578ZM134.695 190.758H138.445L136.641 169.781H136.266L134.695 190.758ZM150 204V162.75H158.484L162.281 182.508V162.75H170.25V204H162.188L158.062 183.375V204H150Z" fill="black"/>
<path fill-rule="evenodd" clip-rule="evenodd" d="M38 41H71.2379C72.8947 41 74.2379 42.3431 74.2379 44V50.6574C74.2379 52.3142 72.8947 53.6574 71.2379 53.6574H50.6571C49.0002 53.6574 47.6571 55.0005 47.6571 56.6574V77.2378C47.6571 78.8947 46.3139 80.2378 44.6571 80.2378H38C36.3431 80.2378 35 78.8947 35 77.2378V44C35 42.3431 36.3431 41 38 41ZM38 181.497C36.3431 181.497 35 182.84 35 184.497V219C35 220.657 36.3431 222 38 222H71.2379C72.8947 222 74.2379 220.657 74.2379 219V212.343C74.2379 210.686 72.8947 209.343 71.2379 209.343H50.6571C49.0002 209.343 47.6571 208 47.6571 206.343V184.497C47.6571 182.84 46.3139 181.497 44.6571 181.497H38ZM206.342 181.497C204.686 181.497 203.342 182.84 203.342 184.497V206.343C203.342 208 201.999 209.343 200.342 209.343H178.497C176.84 209.343 175.497 210.686 175.497 212.343V219C175.497 220.657 176.84 222 178.497 222H213C214.657 222 216 220.657 216 219V184.497C216 182.84 214.657 181.497 213 181.497H206.342ZM213 80.2378C214.657 80.2378 216 78.8947 216 77.2378V44C216 42.3431 214.657 41 213 41H178.497C176.84 41 175.497 42.3431 175.497 44V50.6574C175.497 52.3142 176.84 53.6574 178.497 53.6574H200.342C201.999 53.6574 203.342 55.0005 203.342 56.6574V77.2378C203.342 78.8947 204.686 80.2378 206.342 80.2378H213Z" fill="black"/>
</svg>
