<svg width="217" height="104" viewBox="0 0 217 104" fill="none" xmlns="http://www.w3.org/2000/svg">
<path fill-rule="evenodd" clip-rule="evenodd" d="M37.6811 28C37.6811 25.7909 39.472 24 41.6811 24H65.78C67.9891 24 69.78 25.7909 69.78 28V49.1758C69.78 50.7174 68.5303 51.9671 66.9887 51.9671C65.4471 51.9671 64.1973 50.7174 64.1973 49.1758V34.9917C64.1973 32.7826 62.4065 30.9917 60.1973 30.9917H47.2633C45.0542 30.9917 43.2633 32.7826 43.2633 34.9917V49.176C43.2633 50.7175 42.0137 51.9671 40.4722 51.9671C38.9307 51.9671 37.6811 50.7175 37.6811 49.176V35.6018C26.4881 41.4225 18.8413 53.1414 18.8412 66.6499H88.6214C88.6213 53.141 80.974 41.4217 69.7803 35.6011V29.7739C85.2722 35.7537 96.5987 50.1369 98.1962 67.3488H104.461C106.118 67.3488 107.461 68.6919 107.461 70.3488V72.0397C107.461 73.6966 106.118 75.0397 104.461 75.0397H3C1.34315 75.0397 0 73.6966 0 72.0397V70.3488C0 68.6919 1.34315 67.3488 3 67.3488H9.26565C10.8631 50.137 22.1894 35.754 37.6811 29.7741V28Z" fill="black"/>
<path d="M121.047 56.375C117.281 56.375 114.562 55.4375 112.891 53.5625C111.234 51.6875 110.406 48.7031 110.406 44.6094V40.5781H118.562V45.7344C118.562 46.6875 118.703 47.4375 118.984 47.9844C119.281 48.5156 119.789 48.7812 120.508 48.7812C121.258 48.7812 121.773 48.5625 122.055 48.125C122.352 47.6875 122.5 46.9688 122.5 45.9688C122.5 44.7031 122.375 43.6484 122.125 42.8047C121.875 41.9453 121.438 41.1328 120.812 40.3672C120.203 39.5859 119.352 38.6797 118.258 37.6484L114.555 34.1328C111.789 31.5234 110.406 28.5391 110.406 25.1797C110.406 21.6641 111.219 18.9844 112.844 17.1406C114.484 15.2969 116.852 14.375 119.945 14.375C123.727 14.375 126.406 15.3828 127.984 17.3984C129.578 19.4141 130.375 22.4766 130.375 26.5859H121.984V23.75C121.984 23.1875 121.82 22.75 121.492 22.4375C121.18 22.125 120.75 21.9688 120.203 21.9688C119.547 21.9688 119.062 22.1562 118.75 22.5312C118.453 22.8906 118.305 23.3594 118.305 23.9375C118.305 24.5156 118.461 25.1406 118.773 25.8125C119.086 26.4844 119.703 27.2578 120.625 28.1328L125.383 32.7031C126.336 33.6094 127.211 34.5703 128.008 35.5859C128.805 36.5859 129.445 37.7578 129.93 39.1016C130.414 40.4297 130.656 42.0547 130.656 43.9766C130.656 47.8516 129.938 50.8906 128.5 53.0938C127.078 55.2812 124.594 56.375 121.047 56.375ZM133.422 56V14.75H141.625V29.4922H145.516V14.75H153.719V56H145.516V37.2969H141.625V56H133.422ZM157 56V14.75H164.969V56H157ZM168.25 56V14.75H184.75V22.7891H176.547V29.3516H184.328V37.2969H176.547V56H168.25ZM190.961 56V22.6719H186.062V14.75H204.109V22.6719H199.211V56H190.961Z" fill="black"/>
<path d="M122.547 103.375C118.781 103.375 116.062 102.438 114.391 100.562C112.734 98.6875 111.906 95.7031 111.906 91.6094V87.5781H120.062V92.7344C120.062 93.6875 120.203 94.4375 120.484 94.9844C120.781 95.5156 121.289 95.7812 122.008 95.7812C122.758 95.7812 123.273 95.5625 123.555 95.125C123.852 94.6875 124 93.9688 124 92.9688C124 91.7031 123.875 90.6484 123.625 89.8047C123.375 88.9453 122.938 88.1328 122.312 87.3672C121.703 86.5859 120.852 85.6797 119.758 84.6484L116.055 81.1328C113.289 78.5234 111.906 75.5391 111.906 72.1797C111.906 68.6641 112.719 65.9844 114.344 64.1406C115.984 62.2969 118.352 61.375 121.445 61.375C125.227 61.375 127.906 62.3828 129.484 64.3984C131.078 66.4141 131.875 69.4766 131.875 73.5859H123.484V70.75C123.484 70.1875 123.32 69.75 122.992 69.4375C122.68 69.125 122.25 68.9688 121.703 68.9688C121.047 68.9688 120.562 69.1562 120.25 69.5312C119.953 69.8906 119.805 70.3594 119.805 70.9375C119.805 71.5156 119.961 72.1406 120.273 72.8125C120.586 73.4844 121.203 74.2578 122.125 75.1328L126.883 79.7031C127.836 80.6094 128.711 81.5703 129.508 82.5859C130.305 83.5859 130.945 84.7578 131.43 86.1016C131.914 87.4297 132.156 89.0547 132.156 90.9766C132.156 94.8516 131.438 97.8906 130 100.094C128.578 102.281 126.094 103.375 122.547 103.375ZM144.531 103.375C141.547 103.375 139.141 102.445 137.312 100.586C135.5 98.7266 134.594 96.125 134.594 92.7812V73.75C134.594 69.75 135.383 66.6875 136.961 64.5625C138.555 62.4375 141.141 61.375 144.719 61.375C146.672 61.375 148.406 61.7344 149.922 62.4531C151.453 63.1719 152.656 64.25 153.531 65.6875C154.406 67.1094 154.844 68.9062 154.844 71.0781V78.2031H146.641V72.1094C146.641 70.875 146.484 70.0469 146.172 69.625C145.859 69.1875 145.375 68.9688 144.719 68.9688C143.953 68.9688 143.438 69.25 143.172 69.8125C142.906 70.3594 142.773 71.0938 142.773 72.0156V92.6641C142.773 93.8047 142.938 94.6094 143.266 95.0781C143.609 95.5469 144.094 95.7812 144.719 95.7812C145.422 95.7812 145.914 95.4922 146.195 94.9141C146.492 94.3359 146.641 93.5859 146.641 92.6641V85.2344H154.938V93.0391C154.938 96.6641 154.023 99.2969 152.195 100.938C150.367 102.562 147.812 103.375 144.531 103.375ZM156.578 103L160.562 61.75H174.555L178.469 103H170.664L170.078 96.3438H165.109L164.594 103H156.578ZM165.695 89.7578H169.445L167.641 68.7812H167.266L165.695 89.7578ZM181 103V61.75H189.484L193.281 81.5078V61.75H201.25V103H193.188L189.062 82.375V103H181Z" fill="black"/>
<path fill-rule="evenodd" clip-rule="evenodd" d="M26.6297 17C26.6297 15.3431 25.2866 14 23.6297 14H9C7.34315 14 6 15.3431 6 17V30.0769C6 31.7338 7.34315 33.0769 9 33.0769H9.65466C11.3115 33.0769 12.6547 31.7338 12.6547 30.0769V23.1538C12.6547 21.4969 13.9978 20.1538 15.6547 20.1538H23.6297C25.2866 20.1538 26.6297 18.8106 26.6297 17.1538V17ZM12.6547 85.3077C12.6547 83.6508 11.3115 82.3077 9.65466 82.3077H9C7.34314 82.3077 6 83.6508 6 85.3077V99C6 100.657 7.34314 102 9 102H23.6297C25.2866 102 26.6297 100.657 26.6297 99V98.8461C26.6297 97.1892 25.2866 95.8461 23.6297 95.8461H15.6547C13.9978 95.8461 12.6547 94.5029 12.6547 92.8461V85.3077ZM94.508 85.3077C94.508 83.6508 95.8511 82.3077 97.508 82.3077H98.1628C99.8196 82.3077 101.163 83.6508 101.163 85.3077V99C101.163 100.657 99.8196 102 98.1628 102H82.8677C81.2108 102 79.8677 100.657 79.8677 99V98.8461C79.8677 97.1892 81.2108 95.8461 82.8677 95.8461H91.508C93.1648 95.8461 94.508 94.5029 94.508 92.8461V85.3077ZM101.163 30.0769C101.163 31.7338 99.8196 33.0769 98.1628 33.0769H97.508C95.8511 33.0769 94.508 31.7338 94.508 30.0769V23.1538C94.508 21.4969 93.1648 20.1538 91.508 20.1538H82.8677C81.2108 20.1538 79.8677 18.8106 79.8677 17.1538V17C79.8677 15.3431 81.2108 14 82.8677 14H98.1628C99.8196 14 101.163 15.3431 101.163 17V30.0769Z" fill="black"/>
</svg>
