<svg width="100" height="100" viewBox="0 0 100 100" fill="none" xmlns="http://www.w3.org/2000/svg">
<g clip-path="url(#clip0_5615_120590)">
<path d="M47.1777 5.66992C48.101 3.10947 51.6378 3.02942 52.7246 5.42969L52.8223 5.66992L60.9785 28.2891C62.2297 31.7587 65.4718 34.1137 69.1582 34.2315L93.1904 34.999C95.9987 35.0887 97.1538 38.644 94.9346 40.3672L75.9434 55.1143C73.1212 57.3057 71.871 60.9503 72.7295 64.3965L72.8184 64.7295L79.5156 87.8233C80.2978 90.5216 77.2738 92.7185 74.9492 91.1406L55.0547 77.6358C52.0031 75.5643 47.9969 75.5643 44.9453 77.6358L25.0508 91.1406C22.7262 92.7185 19.7022 90.5216 20.4844 87.8233L27.1816 64.7295C28.2088 61.1871 26.9698 57.3764 24.0566 55.1143L5.06543 40.3672C2.91565 38.6979 3.93227 35.3096 6.55078 35.0176L6.80957 34.999L30.8418 34.2315C34.5282 34.1137 37.7703 31.7587 39.0215 28.2891L47.1777 5.66992Z" fill="#FEE718" stroke="black" stroke-width="6"/>
</g>
<defs>
<clipPath id="clip0_5615_120590">
<rect width="100" height="100" fill="white"/>
</clipPath>
</defs>
</svg>
