<svg width="100" height="100" viewBox="0 0 100 100" fill="none" xmlns="http://www.w3.org/2000/svg">
<path d="M44.3545 4.65234C46.2607 -0.633886 53.7373 -0.633886 55.6436 4.65234L63.7998 27.2715C64.6339 29.5844 66.7954 31.1548 69.2529 31.2334L93.2852 32.001C98.9017 32.1804 101.212 39.2898 96.7734 42.7363L77.7822 57.4834L77.6035 57.6279C75.79 59.1502 75.0359 61.6058 75.6992 63.8936L82.3955 86.9873C83.9359 92.2998 78.0999 96.6411 73.4824 93.7656L73.2627 93.623L53.3691 80.1182C51.3348 78.7372 48.6633 78.7362 46.6289 80.1172L26.7354 93.623L26.5156 93.7656C21.9717 96.5951 16.2472 92.4361 17.5342 87.2402L17.6025 86.9873L24.2988 63.8936C24.9835 61.532 24.1579 58.9914 22.2158 57.4834L3.22461 42.7363C-1.14426 39.3437 1.026 32.4019 6.45215 32.0146L6.71289 32.001L30.7451 31.2334C33.1258 31.1574 35.2287 29.6812 36.1162 27.4863L36.1982 27.2715L44.3545 4.65234ZM41.8428 29.3066C40.1746 33.9325 35.8525 37.0733 30.9375 37.2305L6.9043 37.998L25.8965 52.7451C29.7803 55.7612 31.4309 60.8416 30.0615 65.5645L23.3652 88.6582L43.2588 75.1533C47.3276 72.3912 52.6705 72.3913 56.7393 75.1533L76.6328 88.6582L69.9365 65.5645C68.5672 60.8416 70.2179 55.7612 74.1016 52.7451L93.0938 37.998L69.0605 37.2305C64.1456 37.0732 59.8234 33.9326 58.1553 29.3066L49.999 6.6875L41.8428 29.3066Z" fill="black"/>
</svg>
