<svg width="100" height="100" viewBox="0 0 100 100" fill="none" xmlns="http://www.w3.org/2000/svg">
<g clip-path="url(#clip0_5559_140748)">
<path d="M91.9519 29.9998C93.4747 28.9035 95.6236 29.4364 96.3308 31.1743C98.6953 36.9851 100 43.3398 100 50C100 77.6142 77.6142 100 50 100C37.5698 100 26.2002 95.463 17.454 87.9559C16.0301 86.7338 16.2056 84.5265 17.7284 83.4301V83.4301C18.9101 82.5792 20.5224 82.6966 21.6351 83.6359C29.2944 90.1019 39.1916 94 50 94C74.3005 94 94 74.3005 94 50C94 44.2684 92.9016 38.7938 90.9073 33.7726C90.3694 32.4184 90.7694 30.851 91.9519 29.9998V29.9998ZM50 0C62.663 0 74.2249 4.70892 83.0342 12.4695C84.4303 13.6993 84.243 15.8829 82.7331 16.9699V16.9699C81.5396 17.829 79.9089 17.6991 78.7976 16.7361C71.0801 10.0484 61.0136 6 50 6C25.6995 6 6 25.6995 6 50C6 55.9338 7.17424 61.5934 9.3035 66.7587C9.86424 68.119 9.47035 69.7076 8.27622 70.5672V70.5672C6.76708 71.6535 4.63813 71.1395 3.91505 69.4264C1.39418 63.4541 0 56.8899 0 50C0 22.3858 22.3858 0 50 0Z" fill="white"/>
<path fill-rule="evenodd" clip-rule="evenodd" d="M85.5544 17.8165L85.5554 17.7773V4.44434C85.5554 2.78748 84.2123 1.44434 82.5554 1.44434C80.8986 1.44434 79.5554 2.78748 79.5554 4.44434V8.77756C79.5554 12.0913 76.8691 14.7776 73.5554 14.7776H69.2217C67.5648 14.7776 66.2217 16.1207 66.2217 17.7776C66.2217 19.4344 67.5648 20.7776 69.2217 20.7776H82.5547L82.5639 20.7773C82.6101 20.7772 82.656 20.776 82.7016 20.7738L82.709 20.7737C83.0087 20.7585 83.2968 20.6994 83.5669 20.6026C84.6801 20.2041 85.4891 19.1664 85.5515 17.9316L85.5525 17.8934C85.5535 17.8678 85.5541 17.8422 85.5544 17.8165Z" fill="white"/>
<path d="M17 99.333C15.3433 99.3329 14 97.9898 14 96.333L14 83L14.0039 82.8457C14.0054 82.8152 14.0112 82.7851 14.0137 82.7549C14.0166 82.7192 14.0203 82.6838 14.0244 82.6484C14.0318 82.5856 14.0406 82.5235 14.0518 82.4619C14.0578 82.4288 14.0642 82.396 14.0713 82.3633C14.0844 82.3026 14.0995 82.2428 14.1162 82.1836C14.1259 82.1491 14.1365 82.115 14.1475 82.0811C14.165 82.0266 14.1836 81.9729 14.2041 81.9199C14.2185 81.8828 14.2333 81.846 14.249 81.8096C14.2707 81.7596 14.2941 81.7107 14.3184 81.6621C14.3361 81.6266 14.354 81.5913 14.373 81.5566C14.3982 81.5109 14.4247 81.4661 14.4521 81.4219C14.4756 81.3841 14.5003 81.3472 14.5254 81.3105C14.5528 81.2704 14.581 81.2311 14.6104 81.1924C14.6359 81.1587 14.6616 81.1253 14.6885 81.0928C14.7206 81.0539 14.7531 81.0157 14.7871 80.9785C14.8168 80.946 14.8478 80.915 14.8789 80.8838C14.9155 80.8471 14.9527 80.8112 14.9912 80.7764C15.0191 80.7511 15.0473 80.7263 15.0762 80.7021C15.1179 80.6672 15.1605 80.6333 15.2041 80.6006C15.2371 80.5758 15.2706 80.5518 15.3047 80.5283C15.3468 80.4994 15.3899 80.4721 15.4336 80.4453C15.469 80.4235 15.5046 80.4022 15.541 80.3818C15.5865 80.3564 15.6328 80.3326 15.6797 80.3096C15.7171 80.2912 15.7547 80.2737 15.793 80.2568C15.8406 80.2358 15.8886 80.2158 15.9375 80.1973C15.9788 80.1816 16.0204 80.1672 16.0625 80.1533C16.109 80.138 16.1557 80.1234 16.2031 80.1104C16.2499 80.0975 16.297 80.0858 16.3447 80.0752C16.3903 80.065 16.4361 80.0559 16.4824 80.0479C16.5309 80.0394 16.5797 80.0325 16.6289 80.0264C16.6774 80.0204 16.7262 80.0154 16.7754 80.0117C16.7992 80.01 16.8228 80.0051 16.8467 80.0039L16.9986 80.001C16.9989 80.001 16.9991 80.0009 16.9993 80.0007L16.9997 80.0003C16.9999 80.0001 17.0001 80.0001 17.0003 80.0003L17.0005 80.0005C17.0007 80.0007 17.001 80.0005 17.001 80.0003V80.0003C17.001 80.0001 17.0011 80 17.0013 80H30.334C31.9908 80 33.334 81.3431 33.334 83C33.3339 84.6568 31.9908 86 30.334 86H26C22.6863 86 20 88.6863 20 92V96.333C20 97.9899 18.6569 99.333 17 99.333Z" fill="white"/>
</g>
<defs>
<clipPath id="clip0_5559_140748">
<rect width="100" height="100" fill="white"/>
</clipPath>
</defs>
</svg>
