<svg width="90" height="90" viewBox="0 0 90 90" fill="none" xmlns="http://www.w3.org/2000/svg">
<g clip-path="url(#clip0_5559_159889)">
<path d="M84.4219 1.46533C85.2693 0.041663 87.1105 -0.424959 88.5342 0.422363C89.9579 1.26982 90.4256 3.11094 89.5781 4.53467L39.5967 88.5024C39.5936 88.5078 39.59 88.5128 39.5869 88.5181L39.5781 88.5347L39.4961 88.6655C39.4861 88.6806 39.4732 88.6937 39.4629 88.7085C39.3698 88.8424 39.2665 88.9712 39.1494 89.0913C39.1283 89.113 39.1066 89.1338 39.085 89.1548C39.0657 89.1734 39.0473 89.1932 39.0273 89.2114C38.9952 89.2409 38.9618 89.2686 38.9287 89.2964C38.9225 89.3016 38.9173 89.3079 38.9111 89.313C38.8417 89.3705 38.7693 89.4229 38.6963 89.4731C38.6919 89.4762 38.688 89.4799 38.6836 89.4829C38.6253 89.5225 38.5651 89.5582 38.5049 89.5933C38.4556 89.6218 38.4052 89.6477 38.3545 89.6733C38.3137 89.694 38.2729 89.7142 38.2314 89.7329C38.1928 89.7503 38.1536 89.766 38.1143 89.7817C38.0642 89.8018 38.0147 89.8221 37.9639 89.8394C37.9259 89.8522 37.8871 89.8622 37.8486 89.8735C37.7953 89.8892 37.7424 89.9058 37.6885 89.9185C37.6517 89.9271 37.6143 89.9326 37.5771 89.9399C37.5231 89.9505 37.4694 89.9617 37.415 89.9692C37.3522 89.9781 37.289 89.9839 37.2256 89.9888C37.1995 89.9907 37.1736 89.9943 37.1475 89.9956C37.0854 89.9987 37.0233 89.9973 36.9609 89.9966C36.9241 89.9961 36.8873 89.9974 36.8506 89.9956C36.7954 89.9929 36.7407 89.9858 36.6855 89.98C36.6478 89.976 36.6099 89.9737 36.5723 89.9683C36.5085 89.9591 36.4453 89.9465 36.3818 89.9331C36.3516 89.9268 36.3211 89.9218 36.291 89.9146C36.2345 89.9008 36.179 89.8829 36.123 89.8657C36.0856 89.8543 36.0478 89.8444 36.0107 89.8315C35.9772 89.8198 35.9445 89.8055 35.9111 89.7925C35.8511 89.7691 35.7911 89.7456 35.7324 89.7183C35.7162 89.7107 35.7007 89.7017 35.6846 89.6938C35.6129 89.6589 35.5418 89.6225 35.4727 89.5815C35.4704 89.5802 35.4681 89.579 35.4658 89.5776C35.4224 89.5518 35.3815 89.5223 35.3398 89.4946C35.3024 89.4697 35.264 89.4462 35.2275 89.4194C35.2174 89.412 35.2073 89.4045 35.1973 89.397C35.1319 89.3477 35.0678 89.296 35.0059 89.2407C34.9914 89.2278 34.9771 89.2148 34.9629 89.2017C34.9096 89.1522 34.858 89.1004 34.8076 89.0464C34.7969 89.0349 34.7859 89.0238 34.7754 89.0122L1.78809 53.0269L1.68652 52.9106C0.675037 51.688 0.789774 49.8731 1.97266 48.7886C3.15575 47.7041 4.97414 47.7479 6.10449 48.8618L6.21094 48.9722L36.4844 81.9985L84.4219 1.46533Z" fill="black"/>
</g>
<defs>
<clipPath id="clip0_5559_159889">
<rect width="90" height="90" fill="white"/>
</clipPath>
</defs>
</svg>
