<svg width="80" height="100" viewBox="0 0 80 100" fill="none" xmlns="http://www.w3.org/2000/svg">
<path d="M34.8667 38.0149V48.0707C34.8667 48.7241 35.3963 49.2537 36.0497 49.2537C36.2361 49.2537 36.42 49.2097 36.5862 49.1251L39.8714 47.4535C40.9372 46.9112 42.2 47.6855 42.2 48.8814C42.2 49.1264 42.2562 49.368 42.3642 49.5879L43.3049 51.5025C43.5429 51.9869 43.6667 52.5195 43.6667 53.0592V53.5783C43.6667 54.588 44.2334 55.5123 45.1333 55.9701L45.5887 56.2019C46.2092 56.5176 46.6 57.1549 46.6 57.8511V58.2348C46.6 59.0448 47.2566 59.7015 48.0667 59.7015C48.8767 59.7015 49.5333 60.3581 49.5333 61.1682V64.4451C49.5333 65.1225 50.0825 65.6716 50.7599 65.6716C50.9185 65.6716 51.0755 65.6409 51.2224 65.5811L57.2456 63.1293C57.9639 62.8369 58.7322 62.6866 59.5077 62.6866H61.302C62.2347 62.6866 63.146 62.4066 63.9178 61.883L65.685 60.6841C66.5238 60.115 67.6496 60.2268 68.36 60.9498C68.519 61.1116 68.7031 61.2465 68.9052 61.3493L69.2384 61.5189C70.6555 62.2399 71.572 63.6707 71.6345 65.2595L72.7549 93.7643C72.8887 97.1679 70.1657 100 66.7595 100H15.9333C12.6196 100 9.93333 97.3137 9.93333 94V71.7949C9.93333 70.7851 9.36659 69.8609 8.46667 69.403C7.56675 68.9451 7 68.0208 7 67.0111V65.6716V63.8801C7 63.0949 7.18006 62.3201 7.52633 61.6153L7.71514 61.2311C8.19625 60.2519 9.04739 59.5045 10.0806 59.154L10.732 58.9331C12.0081 58.5002 12.8667 57.3024 12.8667 55.9548C12.8667 55.4739 12.9769 54.9995 13.189 54.5679L15.4777 49.9097C15.6897 49.4781 15.8 49.0037 15.8 48.5228C15.8 47.1753 14.9415 45.9774 13.6653 45.5445L13.208 45.3894C12.0698 45.0033 11.1798 44.1039 10.8057 42.9618L9.93333 40.2985L9.46237 39.34C8.83442 38.0619 8.83442 36.565 9.46237 35.2869C9.77222 34.6563 9.93333 33.963 9.93333 33.2604V5.13333C9.93333 2.29827 12.2316 0 15.0667 0C17.9017 0 20.2 2.29827 20.2 5.13333V7.46269V13.135C20.2 14.3031 20.541 15.4459 21.1811 16.423L22.4434 18.3499C22.8936 19.037 23.1333 19.8405 23.1333 20.662C23.1333 21.7682 23.5678 22.8302 24.3431 23.6192L27.5333 26.8657L31.5512 30.9544C31.8053 31.213 32.0845 31.4458 32.3845 31.6494L34.1615 32.8549C35.4069 33.6999 35.8397 35.3331 35.176 36.6838C34.9725 37.098 34.8667 37.5534 34.8667 38.0149Z" fill="black"/>
</svg>
