<svg width="100" height="100" viewBox="0 0 100 100" fill="none" xmlns="http://www.w3.org/2000/svg">
<g clip-path="url(#clip0_5559_159871)">
<circle cx="50" cy="50" r="50" fill="#FC8F2B"/>
<path d="M78.4266 35.918C79.9576 34.816 82.1209 35.3522 82.7791 37.1199C84.2145 40.9745 85 45.1453 85 49.5L84.9883 50.416C84.5024 69.5986 68.7997 84.9999 49.5 85L48.584 84.9883C40.4953 84.7834 33.0797 81.8724 27.2071 77.1274C25.739 75.9412 25.9162 73.718 27.4481 72.6154V72.6154C28.6261 71.7675 30.2283 71.8806 31.3727 72.7733C36.3742 76.6749 42.6653 79 49.5 79C65.7922 78.9999 78.9999 65.7922 79 49.5C79 46.0613 78.4116 42.76 77.3301 39.6913C76.8474 38.322 77.2483 36.7663 78.4266 35.918V35.918ZM50.416 14.0117C58.6747 14.2209 66.2314 17.2517 72.1608 22.175C73.5991 23.3692 73.4102 25.5663 71.8929 26.6584V26.6584C70.7035 27.5145 69.0832 27.3886 67.9398 26.4719C62.889 22.4223 56.4773 20 49.5 20C33.2077 20 20 33.2077 20 49.5C20 53.0772 20.6379 56.5051 21.8047 59.6775C22.3111 61.0545 21.9164 62.6329 20.7257 63.4901V63.4901C19.2083 64.5825 17.0643 64.0654 16.3885 62.3221C14.9511 58.6145 14.1179 54.6057 14.0117 50.416L14 49.5C14 29.894 29.894 14 49.5 14L50.416 14.0117Z" fill="black"/>
<path d="M73.1309 16.5205C74.7877 16.5206 76.1309 17.8637 76.1309 19.5205V28.9873L76.127 29.1416C76.1254 29.1724 76.1197 29.2028 76.1172 29.2334C76.1144 29.2678 76.1114 29.3019 76.1074 29.3359C76.0999 29.4008 76.0897 29.4648 76.0781 29.5283C76.0726 29.5588 76.067 29.589 76.0605 29.6191C76.0469 29.6828 76.0313 29.7455 76.0137 29.8076C76.0049 29.8385 75.9951 29.8689 75.9854 29.8994C75.9665 29.9585 75.9462 30.0168 75.9238 30.0742C75.9113 30.1064 75.8984 30.1383 75.8848 30.1699C75.861 30.2252 75.8356 30.2795 75.8086 30.333C75.7944 30.3611 75.7806 30.3894 75.7656 30.417C75.7365 30.4706 75.7051 30.5226 75.6729 30.5742C75.654 30.6044 75.6352 30.6346 75.6152 30.6641C75.5827 30.7122 75.5479 30.7586 75.5127 30.8047C75.4931 30.8303 75.4735 30.8559 75.4531 30.8809C75.4121 30.9312 75.3694 30.9798 75.3252 31.0273C75.3073 31.0466 75.2889 31.0652 75.2705 31.084C75.2237 31.1317 75.1759 31.1781 75.126 31.2227C75.1067 31.2399 75.0871 31.2567 75.0674 31.2734C75.0175 31.3157 74.9666 31.3565 74.9141 31.3955C74.889 31.4141 74.8636 31.4323 74.8379 31.4502C74.7909 31.4828 74.7432 31.514 74.6943 31.5439C74.6599 31.5651 74.6252 31.5857 74.5898 31.6055C74.5444 31.6309 74.4981 31.6547 74.4512 31.6777C74.4145 31.6958 74.3774 31.7129 74.3398 31.7295C74.2897 31.7516 74.2391 31.7726 74.1875 31.792C74.1497 31.8063 74.1118 31.8202 74.0732 31.833C74.0249 31.849 73.9761 31.8634 73.9268 31.877C73.8803 31.8898 73.8335 31.9015 73.7861 31.9121C73.7406 31.9223 73.6948 31.9314 73.6484 31.9395C73.6 31.9479 73.5512 31.9548 73.502 31.9609C73.4534 31.9669 73.4047 31.9719 73.3555 31.9756C73.3317 31.9774 73.3081 31.9822 73.2842 31.9834L73.1322 31.9863C73.132 31.9863 73.1317 31.9864 73.1316 31.9866L73.1311 31.987C73.131 31.9872 73.1307 31.9872 73.1306 31.987L73.1304 31.9868C73.1302 31.9866 73.1299 31.9868 73.1299 31.987V31.987C73.1299 31.9872 73.1298 31.9873 73.1296 31.9873H63.6631C62.0063 31.9873 60.6633 30.644 60.6631 28.9873C60.6631 27.3305 62.0062 25.9873 63.6631 25.9873H64.1309C67.4446 25.9873 70.1309 23.301 70.1309 19.9873V19.5205C70.1309 17.8637 71.474 16.5205 73.1309 16.5205Z" fill="black"/>
<path d="M27.0078 82.833C25.351 82.833 24.0079 81.4898 24.0078 79.833V70.3867C24.0078 70.3799 24.0068 70.3731 24.0068 70.3662C24.0068 70.3529 24.0096 70.3395 24.0098 70.3262L24.0117 70.2119C24.0126 70.1939 24.0164 70.1761 24.0176 70.1582C24.0219 70.0951 24.028 70.0327 24.0361 69.9707C24.0403 69.9393 24.0447 69.9081 24.0498 69.877C24.0606 69.811 24.0738 69.7461 24.0889 69.6816C24.0966 69.6486 24.1045 69.6157 24.1133 69.583C24.1273 69.5313 24.1426 69.4803 24.1592 69.4297C24.1735 69.3862 24.1889 69.3434 24.2051 69.3008C24.2242 69.2505 24.2449 69.2013 24.2666 69.1523C24.2813 69.1191 24.2966 69.0863 24.3125 69.0537C24.3381 69.0013 24.3651 68.95 24.3936 68.8994C24.4115 68.8676 24.4292 68.8358 24.4482 68.8047C24.4771 68.7574 24.5077 68.7115 24.5391 68.666C24.561 68.6343 24.5834 68.6031 24.6064 68.5723C24.6414 68.5256 24.6773 68.48 24.7148 68.4355C24.7349 68.4117 24.7555 68.3884 24.7764 68.3652C24.8169 68.3201 24.8582 68.276 24.9014 68.2334C24.9261 68.209 24.951 68.1847 24.9766 68.1611C25.0209 68.1203 25.0665 68.0811 25.1133 68.043C25.1363 68.0242 25.1591 68.0054 25.1826 67.9873C25.2306 67.9505 25.2799 67.9158 25.3301 67.8818C25.3622 67.8601 25.3947 67.8389 25.4277 67.8184C25.47 67.7921 25.513 67.7673 25.5566 67.7432C25.5965 67.7211 25.6368 67.7 25.6777 67.6797C25.7202 67.6586 25.763 67.6382 25.8066 67.6191C25.8498 67.6002 25.8933 67.5823 25.9375 67.5654C25.9828 67.5481 26.0288 67.5327 26.0752 67.5176C26.1192 67.5032 26.1632 67.4889 26.208 67.4766C26.2519 67.4645 26.2961 67.4535 26.3408 67.4434C26.3931 67.4315 26.4458 67.4212 26.499 67.4121C26.5433 67.4045 26.5879 67.3982 26.6328 67.3926C26.6813 67.3865 26.7301 67.3816 26.7793 67.3779C26.8036 67.3761 26.828 67.3714 26.8525 67.3701L27.0068 67.3662H36.4736C38.1304 67.3663 39.4736 68.7094 39.4736 70.3662C39.4736 72.0229 38.1303 73.3661 36.4736 73.3662H36.0078C32.6941 73.3662 30.0078 76.0525 30.0078 79.3662V79.833C30.0077 81.4897 28.6644 82.8328 27.0078 82.833Z" fill="black"/>
</g>
<defs>
<clipPath id="clip0_5559_159871">
<rect width="100" height="100" fill="white"/>
</clipPath>
</defs>
</svg>
