<svg width="90" height="90" viewBox="0 0 90 90" fill="none" xmlns="http://www.w3.org/2000/svg">
<g clip-path="url(#clip0_5559_140750)">
<path d="M83.8662 0.891602C85.0306 -0.286819 86.9298 -0.298047 88.1084 0.866211C89.287 2.03053 89.2989 3.92968 88.1348 5.1084L49.2168 44.5059L88.1348 83.917C89.2988 85.0959 89.2871 86.995 88.1084 88.1592C86.9295 89.3234 85.0294 89.3117 83.8652 88.1328L44.999 48.7754L6.13477 88.1201C4.97043 89.2986 3.07127 89.3107 1.89258 88.1465C0.713847 86.9821 0.70187 85.0821 1.86621 83.9033L40.7832 44.5049L1.87891 5.1084C0.714733 3.92949 0.726376 2.02942 1.90527 0.865234C3.08419 -0.298947 4.98426 -0.286339 6.14844 0.892578L45 40.2363L83.8662 0.891602Z" fill="black"/>
</g>
<defs>
<clipPath id="clip0_5559_140750">
<rect width="90" height="90" fill="white"/>
</clipPath>
</defs>
</svg>
