<svg width="80" height="100" viewBox="0 0 80 100" fill="none" xmlns="http://www.w3.org/2000/svg">
<path d="M35.1778 38.7339V48.1873C35.1778 48.801 35.6753 49.2985 36.289 49.2985C36.4642 49.2985 36.637 49.2571 36.7931 49.1775L39.8778 47.607C40.8795 47.097 42.0667 47.8247 42.0667 48.9488C42.0667 49.1789 42.1194 49.4059 42.2208 49.6124L43.1046 51.4124C43.3282 51.8677 43.4444 52.3682 43.4444 52.8755V53.3644C43.4444 54.3131 43.9768 55.1815 44.8222 55.6119L45.2497 55.8296C45.8328 56.1265 46.2 56.7255 46.2 57.3798V57.7416C46.2 58.5025 46.8169 59.1194 47.5778 59.1194C48.3387 59.1194 48.9556 59.7363 48.9556 60.4972V63.5792C48.9556 64.2155 49.4714 64.7313 50.1077 64.7313C50.2567 64.7313 50.4043 64.7024 50.5423 64.6462L56.1339 62.3686C56.8526 62.0759 57.6213 61.9254 58.3973 61.9254H60.0108C60.8871 61.9254 61.7432 61.6622 62.4681 61.1701L64.1281 60.0432C64.9161 59.5082 65.974 59.6133 66.6413 60.2929C66.7906 60.4449 66.9635 60.5717 67.1533 60.6683L67.4666 60.8279C68.7977 61.5056 69.6585 62.8499 69.7172 64.3424L70.7551 90.7645C70.8888 94.1679 68.1658 97 64.7597 97H17.7556C14.4418 97 11.7556 94.3137 11.7556 91V70.4864C11.7556 69.5377 11.2232 68.6693 10.3778 68.2388C9.53236 67.8084 9 66.9399 9 65.9912V64.7313V63.0467C9 62.309 9.16907 61.581 9.49423 60.9188L9.67198 60.5568C10.1238 59.6366 10.9234 58.9342 11.8942 58.6047L12.5044 58.3975C13.7041 57.9903 14.5111 56.8642 14.5111 55.5973C14.5111 55.1454 14.6147 54.6995 14.8138 54.2939L16.9639 49.915C17.1631 49.5094 17.2667 49.0635 17.2667 48.6117C17.2667 47.3448 16.4597 46.2186 15.26 45.8114L14.832 45.6661C13.7626 45.3032 12.9266 44.458 12.5753 43.3848L11.7556 40.8806L11.3131 39.9795C10.7232 38.7781 10.7232 37.3712 11.3131 36.1697C11.6042 35.5769 11.7556 34.9253 11.7556 34.2648V7.82222C11.7556 5.15898 13.9145 3 16.5778 3C19.241 3 21.4 5.15898 21.4 7.82222V10.0149V15.2405C21.4 16.408 21.7406 17.5501 22.3801 18.5269L23.5074 20.2487C23.9303 20.8947 24.1556 21.6501 24.1556 22.4222C24.1556 23.4621 24.5638 24.4605 25.2924 25.2025L28.2889 28.2537L32.0631 32.097C32.3019 32.3402 32.5643 32.5591 32.8463 32.7506L34.5147 33.8832C35.6852 34.6778 36.0919 36.213 35.4684 37.4828C35.2772 37.8722 35.1778 38.3002 35.1778 38.7339Z" stroke="black" stroke-width="6"/>
</svg>
