<svg width="100" height="80" viewBox="0 0 100 80" fill="none" xmlns="http://www.w3.org/2000/svg">
<g clip-path="url(#clip0_5615_62689)">
<path d="M17.1045 1.16895C24.7454 -1.4005 33.7038 0.392028 41.5859 5.33789L47.7646 2.58789C50.7918 1.24046 54.3378 2.60185 55.6855 5.62891L56.623 7.7334C57.9705 10.7604 56.6089 14.3074 53.582 15.6553L52.5146 16.1299L56.5898 25.2842C57.9372 28.3112 56.5757 31.8582 53.5488 33.2061L53 33.4502V45H58V24C58.0002 20.6866 60.6866 18.0002 64 18H79.3096C81.0987 18.0001 82.7948 18.7987 83.9346 20.1777L94.625 33.1162C95.5134 34.1914 95.9998 35.5427 96 36.9375V55.3418C98.3301 56.1655 99.9998 58.3879 100 61V66C99.9998 69.3134 97.3134 71.9998 94 72H88.002C86.0427 76.6974 81.4075 79.9998 76 80C70.5924 79.9998 65.9562 76.6976 63.9971 72H34.002C32.0427 76.6974 27.4075 79.9998 22 80C16.5924 79.9998 11.9562 76.6976 9.99707 72H8C7.8968 72 7.79333 71.9973 7.69141 71.9922C4.52144 71.8314 2.00021 69.2099 2 66V56C2.00001 55.8285 2.00835 55.6581 2.02246 55.4902C0.782624 54.3911 0.000118073 52.7872 0 51C0.000192759 47.6866 2.68661 45.0002 6 45H6.85254L0.308594 30.3037C-0.985951 27.3958 0.219842 24.0089 3 22.5518C3.05711 12.815 7.80949 4.6169 16.4658 1.39551L17.1045 1.16895ZM22 60C18.1343 60.0002 15.0002 63.1343 15 67C15.0002 70.8657 18.1343 73.9998 22 74C25.8656 73.9998 28.9998 70.8657 29 67C28.9998 63.1343 25.8657 60.0002 22 60ZM76 60C72.1343 60.0002 69.0002 63.1343 69 67C69.0002 70.8657 72.1343 73.9998 76 74C79.8656 73.9998 82.9998 70.8657 83 67C82.9998 63.1343 79.8657 60.0002 76 60ZM22 64C23.6565 64.0002 24.9998 65.3435 25 67C24.9998 68.6565 23.6565 69.9998 22 70C20.3435 69.9998 19.0002 68.6565 19 67C19.0002 65.3435 20.3435 64.0002 22 64ZM76 64C77.6565 64.0002 78.9998 65.3435 79 67C78.9998 68.6565 77.6565 69.9998 76 70C74.3435 69.9998 73.0002 68.6565 73 67C73.0002 65.3435 74.3435 64.0002 76 64ZM8.25391 52.9961L8.00098 55.9932C8.00074 55.9954 8.00014 55.9982 8 56V66H9.03711C9.54788 59.2879 15.1571 54.0002 22 54C28.8429 54.0002 34.4511 59.2879 34.9619 66H58V51H6.00293L8.25391 52.9961ZM79.3096 24H64V61.9922C65.9611 57.2989 70.5955 54.0002 76 54C82.8429 54.0002 88.4511 59.2879 88.9619 66H94V61.001C93.9989 60.9999 93.9979 60.9988 93.9971 60.998L90 59.585V36.9375L79.3096 23.999V24ZM27.0596 45H39V39.6836L27.0596 45ZM45 37.0117V45H47V36.1211L45 37.0117ZM43.0371 11.2607C43.0359 11.2614 43.0338 11.2628 43.0322 11.2637L42.8359 11.3691L42.6318 11.46L5.79004 27.8633L13.2354 44.5859L39 33.1152V33H39.2588L51.1084 27.7246L47.0332 18.5703L44.5918 13.0859L50.0771 10.6475L51.1416 10.1738V10.1729L50.2051 8.07031L50.2041 8.06934L43.0371 11.2607ZM78.3789 28C78.9873 28 79.5629 28.2774 79.9424 28.7529L86.5635 37.0527C86.846 37.407 87 37.8476 87 38.3008V42C86.9998 43.1042 86.1042 43.9998 85 44H69C67.8958 43.9998 67.0002 43.1042 67 42V30C67.0002 28.8957 67.8958 28.0002 69 28H78.3789ZM74 33C72.8957 33.0002 72 33.8956 72 35V38C72 39.1044 72.8956 39.9998 74 40H79C80.1046 40 81 39.1046 81 38V37.915C80.9999 37.4526 80.8402 37.004 80.5469 36.6465L78.1543 33.7314C77.7744 33.2686 77.2072 33 76.6084 33H74ZM14.8389 26.2344C16.364 25.587 18.125 26.2982 18.7725 27.8232L21.749 34.834L21.8057 34.9775C22.3506 36.4679 21.6365 38.1405 20.1592 38.7676C18.6821 39.3942 16.9825 38.7464 16.2891 37.3193L16.2256 37.1787L13.25 30.168C12.6027 28.6431 13.3143 26.882 14.8389 26.2344ZM25.8389 21.2344C27.364 20.587 29.125 21.2982 29.7725 22.8232L32.749 29.834L32.8057 29.9775C33.3506 31.4679 32.6365 33.1405 31.1592 33.7676C29.6821 34.3942 27.9825 33.7464 27.2891 32.3193L27.2256 32.1787L24.25 25.168C23.6027 23.6431 24.3143 21.882 25.8389 21.2344ZM36.8389 16.2344C38.364 15.587 40.125 16.2982 40.7725 17.8232L43.749 24.834L43.8057 24.9775C44.3506 26.4679 43.6365 28.1405 42.1592 28.7676C40.6821 29.3942 38.9825 28.7464 38.2891 27.3193L38.2256 27.1787L35.25 20.168C34.6027 18.6431 35.3143 16.882 36.8389 16.2344ZM35.1914 8.2041C29.547 5.55495 23.7748 5.02036 19.2861 6.69043C14.2372 8.56955 10.5815 13.3237 9.55078 19.6201L35.1914 8.2041Z" fill="black"/>
</g>
<defs>
<clipPath id="clip0_5615_62689">
<rect width="100" height="80" fill="white"/>
</clipPath>
</defs>
</svg>
