<svg width="100" height="80" viewBox="0 0 100 80" fill="none" xmlns="http://www.w3.org/2000/svg">
<g clip-path="url(#clip0_5611_41953)">
<path d="M49.8223 40C57.6794 40.0002 64.7234 45.3276 69.5059 53.7539C69.4965 53.7374 69.4879 53.7206 69.4785 53.7041C72.6676 47.7843 77.5395 44 82.999 44C91.238 44.0007 98.1398 52.6191 99.9375 64.1904C100.43 67.3623 97.8747 70.0001 94.7021 70.1621L94.3936 70.1699H75.1143C75.1001 70.0838 75.0849 69.998 75.0703 69.9121C75.2973 71.2517 75.482 72.6184 75.6182 74.0088C75.941 77.3065 73.2226 79.9998 69.9092 80H29.7354C26.4217 80 23.7034 77.3066 24.0264 74.0088C24.1538 72.7075 24.3231 71.427 24.5303 70.1699H5.60449L5.29492 70.1621C2.12229 70.0002 -0.432179 67.3624 0.0605469 64.1904C1.8583 52.6189 8.75972 44.0001 16.999 44C22.3599 44.0008 27.1548 47.6504 30.3457 53.3877C30.3402 53.3971 30.3346 53.4066 30.3291 53.416C35.1071 45.1846 42.0702 40.0001 49.8223 40ZM49.8223 46C45.7152 46 41.3427 48.3051 37.5244 53.3887C33.8018 58.3451 30.9836 65.5326 30.0596 74H69.585C68.661 65.5326 65.8426 58.3451 62.1201 53.3887C58.3019 48.3051 53.9293 46.0002 49.8223 46ZM74.001 64.9648C73.9892 64.9202 73.9777 64.8756 73.9658 64.8311C73.9777 64.8756 73.9892 64.9202 74.001 64.9648ZM82.998 50C81.1223 50.0002 78.9028 50.9631 76.7363 53.5811C75.1695 55.4745 73.7934 58.0757 72.8604 61.2207C72.8458 61.1789 72.83 61.1374 72.8154 61.0957C73.1767 62.1267 73.5091 63.1848 73.8115 64.2676C73.8025 64.2351 73.7943 64.2024 73.7852 64.1699H93.8467C93.0086 59.6867 91.294 56.0383 89.2607 53.5811C87.0942 50.9629 84.8738 50.0002 82.998 50ZM16.998 50C15.1224 50.0002 12.9026 50.9635 10.7363 53.5811C8.70306 56.0382 6.98845 59.6867 6.15039 64.1699H25.8594C26.1946 62.9783 26.5642 61.8159 26.9707 60.6875C26.0438 57.7815 24.7379 55.3663 23.2607 53.5811C21.0945 50.9634 18.8736 50.0004 16.998 50ZM72.5225 60.2832C72.5059 60.2385 72.4893 60.194 72.4727 60.1494C72.4893 60.194 72.5059 60.2385 72.5225 60.2832ZM27.4502 59.4199C27.4013 59.5447 27.3508 59.6692 27.3027 59.7949C27.3508 59.6692 27.4013 59.5447 27.4502 59.4199ZM72.1279 59.252C72.1197 59.2313 72.1107 59.211 72.1025 59.1904C72.1107 59.211 72.1198 59.2313 72.1279 59.252ZM27.7969 58.5596C27.7481 58.6771 27.6993 58.7948 27.6514 58.9131C27.6993 58.7948 27.7481 58.6771 27.7969 58.5596ZM28.1582 57.709C28.1156 57.8062 28.0743 57.9041 28.0322 58.002C28.0743 57.9042 28.1156 57.8062 28.1582 57.709ZM71.3359 57.376C71.3046 57.3061 71.2728 57.2365 71.2412 57.167C71.2728 57.2366 71.3046 57.3061 71.3359 57.376ZM28.5283 56.8867C28.5183 56.9084 28.509 56.9304 28.499 56.9521C28.5112 56.9258 28.523 56.8993 28.5352 56.873L28.5283 56.8867ZM29.0557 55.7891C29.0097 55.8816 28.9634 55.9742 28.918 56.0674C28.9634 55.9742 29.0097 55.8816 29.0557 55.7891ZM29.501 54.917C29.4364 55.0398 29.3722 55.1631 29.3086 55.2871C29.3722 55.1631 29.4364 55.0398 29.501 54.917ZM29.9062 54.1641C29.8486 54.2685 29.7924 54.3741 29.7354 54.4795C29.7924 54.3741 29.8485 54.2685 29.9062 54.1641ZM16.999 17C23.6262 17.0002 28.999 22.3727 28.999 29C28.999 35.6273 23.6262 40.9998 16.999 41C10.3716 41 4.99902 35.6274 4.99902 29C4.99902 22.3726 10.3716 17 16.999 17ZM82.999 17C89.6262 17.0002 94.999 22.3727 94.999 29C94.999 35.6273 89.6262 40.9998 82.999 41C76.3716 41 70.999 35.6274 70.999 29C70.999 22.3726 76.3716 17 82.999 17ZM50.499 0C60.7161 0.000226774 68.999 8.28287 68.999 18.5C68.999 28.7171 60.7161 36.9998 50.499 37C40.2818 37 31.999 28.7173 31.999 18.5C31.999 8.28273 40.2818 0 50.499 0ZM16.999 23C13.6853 23 10.999 25.6863 10.999 29C10.999 32.3137 13.6853 35 16.999 35C20.3125 34.9998 22.999 32.3136 22.999 29C22.999 25.6864 20.3125 23.0002 16.999 23ZM82.999 23C79.6853 23 76.999 25.6863 76.999 29C76.999 32.3137 79.6853 35 82.999 35C86.3125 34.9998 88.999 32.3136 88.999 29C88.999 25.6864 86.3125 23.0002 82.999 23ZM50.499 6C43.5955 6 37.999 11.5964 37.999 18.5C37.999 25.4036 43.5955 31 50.499 31C57.4024 30.9998 62.999 25.4034 62.999 18.5C62.999 11.5966 57.4024 6.00023 50.499 6Z" fill="White"/>
</g>
<defs>
<clipPath id="clip0_5611_41953">
<rect width="100" height="80" fill="white"/>
</clipPath>
</defs>
</svg>
