<svg width="80" height="100" viewBox="0 0 80 100" fill="none" xmlns="http://www.w3.org/2000/svg">
<g clip-path="url(#clip0_5582_19113)">
<path d="M74.3213 0.0078125C77.3894 0.163269 79.8494 2.62333 80.0049 5.69141L80.0127 6V76.418C80.0124 79.6279 77.4914 82.2496 74.3213 82.4102L74.0127 82.418H71.8994V84.8174C71.8994 88.0275 69.3783 90.6489 66.208 90.8096L65.8994 90.8174H63.8105V94C63.8103 97.21 61.2893 99.8316 58.1191 99.9922L57.8105 100H6L5.69141 99.9922C2.52125 99.8316 0.000228191 97.21 0 94V23.582L0.0078125 23.2734C0.16325 20.2054 2.62333 17.7453 5.69141 17.5898L6 17.582H8.08887V14.3994L8.09668 14.0908C8.25237 11.023 10.7124 8.56266 13.7803 8.40723L14.0889 8.39941H16.2021V6L16.21 5.69141C16.3654 2.62333 18.8255 0.163269 21.8936 0.0078125L22.2021 0H74.0127L74.3213 0.0078125ZM6 94H57.8105V23.582H6V94ZM46 82C47.6569 82 49 83.3431 49 85C49 86.6569 47.6569 88 46 88H16C14.3431 88 13 86.6569 13 85C13 83.3431 14.3431 82 16 82H46ZM14.0889 17.582H57.8105L58.1191 17.5898C61.1872 17.7453 63.6473 20.2054 63.8027 23.2734L63.8105 23.582V84.8174H65.8994V14.3994H14.0889V17.582ZM22.2021 8.39941H65.8994L66.208 8.40723C69.2759 8.56266 71.7359 11.023 71.8916 14.0908L71.8994 14.3994V76.418H74.0127V6H22.2021V8.39941ZM46 69C47.6569 69 49 70.3431 49 72C49 73.6569 47.6569 75 46 75H16C14.3431 75 13 73.6569 13 72C13 70.3431 14.3431 69 16 69H46ZM31 29C40.9411 29 49 37.0589 49 47C49 56.9411 40.9411 65 31 65C21.0589 65 13 56.9411 13 47C13 37.0589 21.0589 29 31 29ZM31 35C24.3726 35 19 40.3726 19 47C19 53.6274 24.3726 59 31 59C37.6274 59 43 53.6274 43 47C43 40.3726 37.6274 35 31 35ZM31 37C32.6569 37 34 38.3431 34 40V46.7568L36.1211 48.8779C37.2927 50.0495 37.2927 51.9495 36.1211 53.1211C34.9495 54.2927 33.0495 54.2927 31.8779 53.1211L28.8789 50.1211C28.815 50.0572 28.7551 49.9908 28.6982 49.9229C28.6919 49.9152 28.685 49.9081 28.6787 49.9004C28.6223 49.8317 28.5699 49.7608 28.5205 49.6885C28.5165 49.6827 28.5127 49.6767 28.5088 49.6709C28.4694 49.6124 28.4342 49.5518 28.3994 49.4912C28.3853 49.4667 28.3699 49.4429 28.3564 49.418C28.3303 49.3693 28.3074 49.3193 28.2842 49.2695C28.2644 49.2274 28.2434 49.1858 28.2256 49.1426C28.205 49.0925 28.1887 49.0411 28.1709 48.9902C28.1562 48.9483 28.1398 48.907 28.127 48.8643C28.1177 48.8333 28.1108 48.8017 28.1025 48.7705C28.0373 48.5244 28 48.2666 28 48V40C28 38.3431 29.3431 37 31 37Z" fill="white"/>
</g>
<defs>
<clipPath id="clip0_5582_19113">
<rect width="80" height="100" fill="white"/>
</clipPath>
</defs>
</svg>
