<svg width="90" height="90" viewBox="0 0 90 90" fill="none" xmlns="http://www.w3.org/2000/svg">
<path d="M27.957 25.48H62.005V35.912H60.341L58.485 29.192C58.357 28.68 58.2077 28.3173 58.037 28.104C57.909 27.848 57.6317 27.6987 57.205 27.656C56.7783 27.5707 56.053 27.528 55.029 27.528H47.797V63.816C47.797 65.3093 47.861 66.184 47.989 66.44C48.117 66.696 48.5223 66.8667 49.205 66.952L52.725 67.336V69H37.301V67.336L40.821 66.952C41.5037 66.8667 41.909 66.696 42.037 66.44C42.165 66.184 42.229 65.3093 42.229 63.816V27.528H34.933C33.9517 27.528 33.2263 27.5707 32.757 27.656C32.3303 27.6987 32.0317 27.848 31.861 28.104C31.733 28.3173 31.605 28.68 31.477 29.192L29.621 35.912H27.957V25.48Z" fill="black"/>
</svg>
