<svg width="80" height="100" viewBox="0 0 80 100" fill="none" xmlns="http://www.w3.org/2000/svg">
<path d="M76.1035 24.0039C77.6888 24.0841 78.9492 25.3948 78.9492 27C78.9492 28.6052 77.6888 29.9159 76.1035 29.9961L76.0195 29.998C76.0191 30.2846 76.0009 30.5752 75.958 30.8682L66.5977 94.8682L66.5518 95.1426C66.0263 97.8592 63.7035 99.8663 60.9395 99.9932L60.6611 100H20.3516L20.0742 99.9932C17.3099 99.8666 14.9864 97.8594 14.4609 95.1426L14.415 94.8682L5.05566 30.8682C5.01291 30.5758 4.99373 30.2859 4.99316 30H4.05078C2.39393 30 1.05078 28.6569 1.05078 27C1.05078 25.3431 2.39393 24 4.05078 24H75.9492L76.1035 24.0039ZM20.3516 94H60.6611L70.0205 30H10.9922L20.3516 94ZM40.5059 39C42.1627 39 43.5059 40.3431 43.5059 42V86C43.5059 87.6569 42.1627 89 40.5059 89C38.849 89 37.5059 87.6569 37.5059 86V42C37.5059 40.3431 38.849 39 40.5059 39ZM24.0391 39.0117C25.6388 38.88 27.0566 40.0281 27.2764 41.6006L27.2939 41.7539L31.1152 84.8848C31.2613 86.5351 30.0408 87.9831 28.3896 88.1191C26.7384 88.2551 25.281 87.0273 25.1348 85.377L21.3135 42.2461L21.3037 42.0918C21.244 40.5063 22.4394 39.1435 24.0391 39.0117ZM53.4893 41.7539C53.6355 40.1035 55.0929 38.8758 56.7441 39.0117C58.3953 39.1477 59.6158 40.5958 59.4697 42.2461L55.6484 85.377L55.6309 85.5303C55.4111 87.1028 53.9933 88.2509 52.3936 88.1191C50.7939 87.9874 49.5984 86.6245 49.6582 85.0391L49.668 84.8848L53.4893 41.7539ZM50.709 0C54.0227 0 56.709 2.68629 56.709 6V9L56.7168 9.30859C56.8774 12.4789 59.4988 15 62.709 15H75.9492L76.1035 15.0039C77.6888 15.0841 78.9492 16.3948 78.9492 18C78.9492 19.6052 77.6888 20.9159 76.1035 20.9961L75.9492 21H4.05078C2.39393 21 1.05078 19.6569 1.05078 18C1.05078 16.3431 2.39393 15 4.05078 15H17.291L17.5996 14.9922C20.6677 14.8368 23.1278 12.3767 23.2832 9.30859L23.291 9V6C23.291 2.68638 25.9774 0.000147198 29.291 0H50.709ZM29.291 9C29.291 11.1864 28.7033 13.2346 27.6816 15H52.3184C51.2967 13.2346 50.709 11.1864 50.709 9V6H29.291V9Z" fill="black"/>
</svg>
