<svg width="100" height="80" viewBox="0 0 100 80" fill="none" xmlns="http://www.w3.org/2000/svg">
<g clip-path="url(#clip0_5615_64042)">
<path d="M44 0C45.6569 0 47 1.34315 47 3V16.3418C49.3303 17.1655 51 19.3876 51 22V48H52V8C62.8213 8.00092 72.0973 15.5025 76.0117 26.1719C78.1271 27.1462 79.5 29.2686 79.5 31.6211V38.1729C79.5001 38.9058 80.0942 39.4999 80.8271 39.5L80.8262 40.8281L80.8271 40.8271V39.5C80.9418 39.5 81.0562 39.5146 81.167 39.5439L93.5352 42.8184C96.1668 43.515 97.9999 45.8959 98 48.6182V56.5283C99.2273 57.627 100 59.2231 100 61V66C100 69.3137 97.3137 72 94 72H91.0029C89.0437 76.6978 84.4078 80 79 80C73.5922 80 68.9563 76.6978 66.9971 72H51.582C50.2758 76.6165 46.0347 80 41 80C35.0039 80 30.1316 75.2023 30.0059 69.2363C30.0035 69.3239 30 69.4118 30 69.5C30 70.3655 30.1181 71.2032 30.335 72H29.582C28.2758 76.6165 24.0347 80 19 80C13.9653 80 9.72416 76.6165 8.41797 72H8L7.69141 71.9922C4.52111 71.8316 2 69.2102 2 66V56.2412C0.794277 55.4339 0 54.06 0 52.5C0 50.0147 2.01472 48 4.5 48H37V22C37 19.3876 38.6697 17.1655 41 16.3418V6H38C36.3431 6 35 4.65685 35 3C35 1.34315 36.3431 0 38 0H44ZM19 64C16.2386 64 14 66.2386 14 69C14 71.7614 16.2386 74 19 74C21.7614 74 24 71.7614 24 69C24 66.2386 21.7614 64 19 64ZM41 64C38.2386 64 36 66.2386 36 69C36 71.7614 38.2386 74 41 74C43.7614 74 46 71.7614 46 69C46 66.2386 43.7614 64 41 64ZM79 60C75.134 60 72 63.134 72 67C72 70.866 75.134 74 79 74C82.866 74 86 70.866 86 67C86 63.134 82.866 60 79 60ZM19 66C20.6569 66 22 67.3431 22 69C22 70.6569 20.6569 72 19 72C17.3431 72 16 70.6569 16 69C16 67.3431 17.3431 66 19 66ZM41 66C42.6569 66 44 67.3431 44 69C44 70.6569 42.6569 72 41 72C39.3431 72 38 70.6569 38 69C38 67.3431 39.3431 66 41 66ZM79 63C81.2091 63 83 64.7909 83 67C83 69.2091 81.2091 71 79 71C76.7909 71 75 69.2091 75 67C75 64.7909 76.7909 63 79 63ZM8 65.998L8.07422 66H8.41797C9.72416 61.3835 13.9653 58 19 58C24.0347 58 28.2758 61.3835 29.582 66H30.418C31.7242 61.3835 35.9653 58 41 58C46.0347 58 50.2758 61.3835 51.582 66H52V54H8V65.998ZM58 66H66.0381C66.5487 59.2876 72.1568 54 79 54C85.8432 54 91.4513 59.2876 91.9619 66H94V61.001L93.998 60.999L92 59.21V48.6182L80.0781 45.4619C76.3837 45.0867 73.5006 41.9672 73.5 38.1738V31.6211L71.2373 30.5791L70.3789 28.2383C68.0086 21.7778 63.4066 17.1016 58 15.0928V66ZM43 48H45V22H43V48ZM61 31.9834C61 30.5607 62.4437 29.5925 63.7598 30.1328L69.7598 32.5957C70.5102 32.9038 71 33.6351 71 34.4463V40C71 41.1046 70.1046 42 69 42H63C61.8954 42 61 41.1046 61 40V31.9834Z" fill="black"/>
</g>
<defs>
<clipPath id="clip0_5615_64042">
<rect width="100" height="80" fill="white"/>
</clipPath>
</defs>
</svg>
